<svg width="128" height="178" viewBox="0 0 128 178" fill="none" xmlns="http://www.w3.org/2000/svg">
<path d="M126.237 0H1.76124C0.792559 0 0 0.791987 0 1.75997V175.733C0 176.701 0.792559 177.493 1.76124 177.493H126.237C127.206 177.493 127.998 176.701 127.998 175.733V1.75997C128.042 0.791987 127.25 0 126.237 0Z" fill="#A6AFA9"/>
<path d="M119.216 2.19772H8.81341C5.15834 2.19772 2.19531 5.16074 2.19531 8.81582V168.673C2.19531 172.328 5.15833 175.291 8.8134 175.291H119.216C122.871 175.291 125.834 172.328 125.834 168.673V8.81582C125.834 5.16075 122.871 2.19772 119.216 2.19772Z" fill="white"/>
<path d="M126.319 85.0945H2.67969V85.7105H126.319V85.0945Z" fill="#E6E6E6"/>
<path d="M49.6391 93.0135H3.05368C2.84713 93.0135 2.67969 93.181 2.67969 93.3875C2.67969 93.5941 2.84713 93.7615 3.05368 93.7615H49.6391C49.8456 93.7615 50.0131 93.5941 50.0131 93.3875C50.0131 93.181 49.8456 93.0135 49.6391 93.0135Z" fill="#8F9992"/>
<path d="M125.897 93.0135H79.3115C79.1049 93.0135 78.9375 93.181 78.9375 93.3875C78.9375 93.5941 79.1049 93.7615 79.3115 93.7615H125.897C126.103 93.7615 126.271 93.5941 126.271 93.3875C126.271 93.181 126.103 93.0135 125.897 93.0135Z" fill="#A6AFA9"/>
<path d="M52.1356 90.0214C52.9722 90.0214 53.2804 90.1094 53.5446 90.4614C53.8088 90.8133 53.8968 91.1653 53.8968 92.0453C53.8968 92.9693 53.8088 93.3213 53.5446 93.6293C53.2804 93.8933 52.8841 94.0693 52.3117 94.0693H52.1796V96.8413H51.2109V90.0214H52.1356ZM52.3557 93.1893C52.9281 93.1893 53.0162 93.0133 53.0162 92.0453C53.0162 91.0773 52.8841 90.9013 52.3557 90.9013H52.2237V93.1893H52.3557Z" fill="#4C4C4C"/>
<path d="M55.2137 96.799H54.2891L55.2137 89.9792H56.4466L57.3272 96.799H56.4026L56.2264 95.2591H55.3898L55.2137 96.799ZM55.8301 91.2551L55.5219 94.4231H56.1824L55.8301 91.2551Z" fill="#4C4C4C"/>
<path d="M58.8721 94.8191V95.1271C58.8721 95.8311 59.0042 96.0511 59.3564 96.0511C59.6206 96.0511 59.7967 95.8311 59.7967 95.3911C59.7967 94.9511 59.6647 94.6871 59.2243 94.0711L58.74 93.3671C58.1676 92.4871 57.9474 92.0031 57.9474 91.4311C57.9474 90.5511 58.4758 89.9792 59.3564 89.9792C60.0169 89.9792 60.4572 90.3311 60.5893 90.9471C60.6333 91.2111 60.6333 91.2111 60.6333 91.7831L59.7087 91.8711C59.7087 91.5191 59.7087 91.3871 59.6647 91.2551C59.6206 90.9911 59.4885 90.8151 59.2684 90.8151C59.0042 90.8151 58.8721 91.0351 58.8721 91.4311C58.8721 91.8711 58.9161 91.9591 59.5326 92.8831L60.0169 93.5871C60.4572 94.2471 60.7214 94.9071 60.7214 95.5231C60.7214 96.447 60.2371 96.931 59.3124 96.931C58.784 96.931 58.4318 96.755 58.1676 96.403C57.9474 96.0951 57.8594 95.8311 57.8594 95.2151C57.8594 95.0831 57.8594 94.9951 57.8594 94.8631L58.8721 94.8191Z" fill="#4C4C4C"/>
<path d="M62.3096 94.819V95.127C62.3096 95.831 62.4417 96.051 62.7939 96.051C63.0581 96.051 63.2342 95.831 63.2342 95.391C63.2342 94.951 63.1021 94.687 62.6618 94.0711L62.1775 93.3671C61.6051 92.4871 61.3849 92.0031 61.3849 91.4311C61.3849 90.5511 61.9133 89.9791 62.7939 89.9791C63.4544 89.9791 63.8947 90.3311 64.0268 90.9471C64.0708 91.2111 64.0708 91.2111 64.0708 91.7831L63.1462 91.8711C63.1462 91.5191 63.1462 91.3871 63.1021 91.2551C63.0581 90.9911 62.926 90.8151 62.7059 90.8151C62.4417 90.8151 62.3096 91.0351 62.3096 91.4311C62.3096 91.8711 62.3536 91.9591 62.9701 92.8831L63.4544 93.5871C63.8947 94.2471 64.1589 94.907 64.1589 95.523C64.1589 96.447 63.6746 96.931 62.7499 96.931C62.2215 96.931 61.8693 96.755 61.6051 96.403C61.3849 96.095 61.2969 95.831 61.2969 95.215C61.2969 95.083 61.2969 94.995 61.2969 94.863L62.3096 94.819Z" fill="#4C4C4C"/>
<path d="M65.7372 90.0222C66.5737 90.0222 66.882 90.1102 67.1462 90.4622C67.4103 90.8142 67.4984 91.1662 67.4984 92.0461C67.4984 92.9701 67.4103 93.3221 67.1462 93.6301C66.882 93.8941 66.4857 94.0701 65.9133 94.0701H65.7812V96.8421H64.8125V90.0222H65.7372ZM65.9133 93.1901C66.4857 93.1901 66.5737 93.0141 66.5737 92.0461C66.5737 91.0782 66.4417 90.9022 65.9133 90.9022H65.7812V93.1901H65.9133Z" fill="#4C4C4C"/>
<path d="M70.894 95.0825C70.894 95.9185 70.85 96.0505 70.6738 96.3585C70.4537 96.7105 70.0134 96.9305 69.529 96.9305C69.0447 96.9305 68.6044 96.7105 68.3842 96.3585C68.2081 96.0505 68.1641 95.8745 68.1641 95.0825V91.7386C68.1641 90.9466 68.2081 90.7706 68.3842 90.4626C68.6044 90.1106 69.0447 89.8906 69.529 89.8906C70.0134 89.8906 70.4537 90.1106 70.6738 90.4626C70.85 90.7706 70.894 90.9466 70.894 91.7386V95.0825ZM69.9693 91.3426C69.9693 90.9466 69.8372 90.7706 69.5731 90.7706C69.3089 90.7706 69.1768 90.9466 69.1768 91.3426V95.4785C69.1768 95.8745 69.3089 96.0505 69.5731 96.0505C69.8372 96.0505 69.9693 95.8745 69.9693 95.4785V91.3426Z" fill="#4C4C4C"/>
<path d="M72.6533 90.0222C73.4019 90.0222 73.7541 90.1542 74.0623 90.5062C74.3265 90.8142 74.4146 91.2982 74.4146 91.9142C74.4146 92.7501 74.3265 93.0581 73.9302 93.5861L74.5907 96.8421H73.534L72.9616 93.8941C72.7854 93.9381 72.7854 93.9381 72.6093 93.9381V96.8421H71.6406V90.0222H72.6533ZM72.7854 92.9701C73.0936 92.9701 73.2698 92.8821 73.3578 92.7061C73.4459 92.5741 73.4459 92.3981 73.4459 91.7822C73.4459 91.0342 73.3138 90.8582 72.7854 90.8582H72.6533V92.9261H72.7854V92.9701Z" fill="#4C4C4C"/>
<path d="M75.8728 90.9022H74.9922V90.0222H77.7662V90.9022H76.8415V96.7981H75.8728V90.9022Z" fill="#4C4C4C"/>
<path d="M122.523 159.369H5.45749C3.62995 159.369 2.14844 160.851 2.14844 162.678V170.096C2.14844 171.923 3.62995 173.405 5.45749 173.405H122.523C124.35 173.405 125.832 171.923 125.832 170.096V162.678C125.832 160.851 124.35 159.369 122.523 159.369Z" fill="#E6E6E6"/>
<path d="M33.4978 104.718H9.91061C8.08307 104.718 6.60156 106.199 6.60156 108.027V138.984C6.60156 140.812 8.08307 142.293 9.91061 142.293H33.4978C35.3253 142.293 36.8069 140.812 36.8069 138.984V108.027C36.8069 106.199 35.3253 104.718 33.4978 104.718Z" fill="#F4F4F4"/>
<path d="M33.5496 165.261L31.6562 164.425V163.985L33.5496 163.193V163.721L32.2287 164.205L33.5496 164.733V165.261Z" fill="#4C4C4C"/>
<path d="M35.7371 165.261L33.8438 164.425V163.985L35.7371 163.193V163.721L34.4162 164.205L35.7371 164.733V165.261Z" fill="#4C4C4C"/>
<path d="M38.0808 165.261L36.1875 164.425V163.985L38.0808 163.193V163.721L36.7599 164.205L38.0808 164.733V165.261Z" fill="#4C4C4C"/>
<path d="M40.3308 165.261L38.4375 164.425V163.985L40.3308 163.193V163.721L39.0099 164.205L40.3308 164.733V165.261Z" fill="#4C4C4C"/>
<path d="M42.573 165.261L40.6797 164.425V163.985L42.573 163.193V163.721L41.2521 164.205L42.573 164.733V165.261Z" fill="#4C4C4C"/>
<path d="M44.8152 165.261L42.9219 164.425V163.985L44.8152 163.193V163.721L43.4943 164.205L44.8152 164.733V165.261Z" fill="#4C4C4C"/>
<path d="M47.0261 165.261L45.1328 164.425V163.985L47.0261 163.193V163.721L45.7052 164.205L47.0261 164.733V165.261Z" fill="#4C4C4C"/>
<path d="M49.2683 165.261L47.375 164.425V163.985L49.2683 163.193V163.721L47.9474 164.205L49.2683 164.733V165.261Z" fill="#4C4C4C"/>
<path d="M51.5027 165.261L49.6094 164.425V163.985L51.5027 163.193V163.721L50.1818 164.205L51.5027 164.733V165.261Z" fill="#4C4C4C"/>
<path d="M53.7605 165.261L51.8672 164.425V163.985L53.7605 163.193V163.721L52.4396 164.205L53.7605 164.733V165.261Z" fill="#4C4C4C"/>
<path d="M11.4871 165.261L9.59375 164.425V163.985L11.4871 163.193V163.721L10.1662 164.205L11.4871 164.733V165.261Z" fill="#4C4C4C"/>
<path d="M13.7293 165.261L11.8359 164.425V163.985L13.7293 163.193V163.721L12.4083 164.205L13.7293 164.733V165.261Z" fill="#4C4C4C"/>
<path d="M16.0183 165.261L14.125 164.425V163.985L16.0183 163.193V163.721L14.6974 164.205L16.0183 164.733V165.261Z" fill="#4C4C4C"/>
<path d="M4.75271 165.261L2.85938 164.425V163.985L4.75271 163.193V163.721L3.43178 164.205L4.75271 164.733V165.261Z" fill="#4C4C4C"/>
<path d="M6.9949 165.261L5.10156 164.425V163.985L6.9949 163.193V163.721L5.67397 164.205L6.9949 164.733V165.261Z" fill="#4C4C4C"/>
<path d="M9.33865 165.261L7.44531 164.425V163.985L9.33865 163.193V163.721L8.01772 164.205L9.33865 164.733V165.261Z" fill="#4C4C4C"/>
<path d="M18.2683 165.261L16.375 164.425V163.985L18.2683 163.193V163.721L16.9474 164.205L18.2683 164.733V165.261Z" fill="#4C4C4C"/>
<path d="M20.5183 165.261L18.625 164.425V163.985L20.5183 163.193V163.721L19.1974 164.205L20.5183 164.733V165.261Z" fill="#4C4C4C"/>
<path d="M22.7683 165.261L20.875 164.425V163.985L22.7683 163.193V163.721L21.4474 164.205L22.7683 164.733V165.261Z" fill="#4C4C4C"/>
<path d="M24.9949 165.261L23.1016 164.425V163.985L24.9949 163.193V163.721L23.674 164.205L24.9949 164.733V165.261Z" fill="#4C4C4C"/>
<path d="M27.2136 165.261L25.3203 164.425V163.985L27.2136 163.193V163.721L25.8927 164.205L27.2136 164.733V165.261Z" fill="#4C4C4C"/>
<path d="M29.4558 165.261L27.5625 164.425V163.985L29.4558 163.193V163.721L28.1349 164.205L29.4558 164.733V165.261Z" fill="#4C4C4C"/>
<path d="M31.7058 165.261L29.8125 164.425V163.985L31.7058 163.193V163.721L30.3849 164.205L31.7058 164.733V165.261Z" fill="#4C4C4C"/>
<path d="M55.9636 165.261L54.0703 164.425V163.985L55.9636 163.193V163.721L54.6427 164.205L55.9636 164.733V165.261Z" fill="#4C4C4C"/>
<path d="M58.198 165.261L56.3047 164.425V163.985L58.198 163.193V163.721L56.8771 164.205L58.198 164.733V165.261Z" fill="#4C4C4C"/>
<path d="M60.448 165.261L58.5547 164.425V163.985L60.448 163.193V163.721L59.1271 164.205L60.448 164.733V165.261Z" fill="#4C4C4C"/>
<path d="M62.698 165.261L60.8047 164.425V163.985L62.698 163.193V163.721L61.3771 164.205L62.698 164.733V165.261Z" fill="#4C4C4C"/>
<path d="M64.948 165.261L63.0547 164.425V163.985L64.948 163.193V163.721L63.6271 164.205L64.948 164.733V165.261Z" fill="#4C4C4C"/>
<path d="M67.1433 165.261L65.25 164.425V163.985L67.1433 163.193V163.721L65.8224 164.205L67.1433 164.733V165.261Z" fill="#4C4C4C"/>
<path d="M69.3855 165.261L67.4922 164.425V163.985L69.3855 163.193V163.721L68.0646 164.205L69.3855 164.733V165.261Z" fill="#4C4C4C"/>
<path d="M71.6355 165.261L69.7422 164.425V163.985L71.6355 163.193V163.721L70.3146 164.205L71.6355 164.733V165.261Z" fill="#4C4C4C"/>
<path d="M73.8777 165.261L71.9844 164.425V163.985L73.8777 163.193V163.721L72.5568 164.205L73.8777 164.733V165.261Z" fill="#4C4C4C"/>
<path d="M76.073 165.261L74.1797 164.425V163.985L76.073 163.193V163.721L74.7521 164.205L76.073 164.733V165.261Z" fill="#4C4C4C"/>
<path d="M78.323 165.261L76.4297 164.425V163.985L78.323 163.193V163.721L77.0021 164.205L78.323 164.733V165.261Z" fill="#4C4C4C"/>
<path d="M80.5652 165.261L78.6719 164.425V163.985L80.5652 163.193V163.721L79.2443 164.205L80.5652 164.733V165.261Z" fill="#4C4C4C"/>
<path d="M82.8152 165.261L80.9219 164.425V163.985L82.8152 163.193V163.721L81.4943 164.205L82.8152 164.733V165.261Z" fill="#4C4C4C"/>
<path d="M85.0183 165.261L83.125 164.425V163.985L85.0183 163.193V163.721L83.6974 164.205L85.0183 164.733V165.261Z" fill="#4C4C4C"/>
<path d="M87.2761 165.261L85.3828 164.425V163.985L87.2761 163.193V163.721L85.9552 164.205L87.2761 164.733V165.261Z" fill="#4C4C4C"/>
<path d="M89.5105 165.261L87.6172 164.425V163.985L89.5105 163.193V163.721L88.1896 164.205L89.5105 164.733V165.261Z" fill="#4C4C4C"/>
<path d="M91.7527 165.261L89.8594 164.425V163.985L91.7527 163.193V163.721L90.4318 164.205L91.7527 164.733V165.261Z" fill="#4C4C4C"/>
<path d="M94.0027 165.261L92.1094 164.425V163.985L94.0027 163.193V163.721L92.6818 164.205L94.0027 164.733V165.261Z" fill="#4C4C4C"/>
<path d="M96.2058 165.261L94.3125 164.425V163.985L96.2058 163.193V163.721L94.8849 164.205L96.2058 164.733V165.261Z" fill="#4C4C4C"/>
<path d="M98.4402 165.261L96.5469 164.425V163.985L98.4402 163.193V163.721L97.1193 164.205L98.4402 164.733V165.261Z" fill="#4C4C4C"/>
<path d="M100.698 165.261L98.8047 164.425V163.985L100.698 163.193V163.721L99.3771 164.205L100.698 164.733V165.261Z" fill="#4C4C4C"/>
<path d="M102.932 165.261L101.039 164.425V163.985L102.932 163.193V163.721L101.611 164.205L102.932 164.733V165.261Z" fill="#4C4C4C"/>
<path d="M105.143 165.261L103.25 164.425V163.985L105.143 163.193V163.721L103.822 164.205L105.143 164.733V165.261Z" fill="#4C4C4C"/>
<path d="M107.386 165.261L105.492 164.425V163.985L107.386 163.193V163.721L106.065 164.205L107.386 164.733V165.261Z" fill="#4C4C4C"/>
<path d="M109.628 165.261L107.734 164.425V163.985L109.628 163.193V163.721L108.307 164.205L109.628 164.733V165.261Z" fill="#4C4C4C"/>
<path d="M111.878 165.261L109.984 164.425V163.985L111.878 163.193V163.721L110.557 164.205L111.878 164.733V165.261Z" fill="#4C4C4C"/>
<path d="M114.081 165.261L112.188 164.425V163.985L114.081 163.193V163.721L112.76 164.205L114.081 164.733V165.261Z" fill="#4C4C4C"/>
<path d="M116.331 165.261L114.438 164.425V163.985L116.331 163.193V163.721L115.01 164.205L116.331 164.733V165.261Z" fill="#4C4C4C"/>
<path d="M118.573 165.261L116.68 164.425V163.985L118.573 163.193V163.721L117.252 164.205L118.573 164.733V165.261Z" fill="#4C4C4C"/>
<path d="M120.815 165.261L118.922 164.425V163.985L120.815 163.193V163.721L119.494 164.205L120.815 164.733V165.261Z" fill="#4C4C4C"/>
<path d="M123.073 165.261L121.18 164.425V163.985L123.073 163.193V163.721L121.752 164.205L123.073 164.733V165.261Z" fill="#4C4C4C"/>
<path d="M8.62836 170.102H8.01193L7.79177 169.486H6.691L6.47084 170.102H5.89844L6.95518 167.374H7.52759L8.62836 170.102ZM7.61565 169.002L7.21937 167.99L6.86712 169.002H7.61565Z" fill="#4C4C4C"/>
<path d="M11.5786 170.102H10.9622L10.7421 169.486H9.64128L9.42112 170.102H8.80469L9.86143 167.374H10.4338L11.5786 170.102ZM10.5219 169.002L10.1256 167.99L9.77337 169.002H10.5219Z" fill="#4C4C4C"/>
<path d="M12.9388 170.099H12.4105V168.119C12.2343 168.295 12.0142 168.427 11.75 168.515V168.031C11.8821 167.987 12.0142 167.899 12.1903 167.767C12.3664 167.635 12.4545 167.503 12.5426 167.327H12.9829V170.099H12.9388Z" fill="#4C4C4C"/>
<path d="M15.4899 169.618V170.102H13.6406C13.6406 169.926 13.7287 169.75 13.8167 169.574C13.9048 169.398 14.125 169.178 14.3892 168.914C14.6093 168.694 14.7854 168.562 14.8295 168.474C14.9175 168.386 14.9175 168.254 14.9175 168.166C14.9175 168.034 14.8735 167.946 14.8295 167.902C14.7854 167.858 14.6974 167.814 14.5653 167.814C14.4772 167.814 14.3892 167.858 14.3011 167.902C14.2571 167.99 14.213 168.078 14.169 168.21L13.6406 168.166C13.6847 167.858 13.7727 167.682 13.9488 167.55C14.125 167.418 14.3011 167.374 14.5653 167.374C14.8295 167.374 15.0496 167.462 15.1817 167.594C15.3578 167.726 15.4019 167.902 15.4019 168.122C15.4019 168.254 15.3578 168.342 15.3138 168.474C15.2698 168.606 15.1817 168.694 15.0937 168.826C15.0496 168.914 14.9175 169.002 14.7414 169.178C14.5653 169.31 14.4772 169.442 14.4332 169.486C14.3892 169.53 14.3451 169.574 14.3451 169.618H15.4899Z" fill="#4C4C4C"/>
<path d="M15.7969 169.353L16.3252 169.309C16.3252 169.441 16.3693 169.529 16.4573 169.617C16.5454 169.705 16.6335 169.705 16.7215 169.705C16.8096 169.705 16.9417 169.661 16.9857 169.573C17.0738 169.485 17.1178 169.397 17.1178 169.221C17.1178 169.089 17.0738 169.001 17.0297 168.913C16.9417 168.825 16.8536 168.781 16.7656 168.781C16.6775 168.781 16.6335 168.781 16.5454 168.825L16.5894 168.386C16.7215 168.386 16.8536 168.341 16.8977 168.297C16.9417 168.254 17.0297 168.165 17.0297 168.034C17.0297 167.946 16.9857 167.858 16.9417 167.814C16.8977 167.77 16.8096 167.726 16.7215 167.726C16.6335 167.726 16.5454 167.77 16.5014 167.814C16.4573 167.858 16.4133 167.946 16.3693 168.078L15.8849 167.989C15.929 167.814 15.973 167.682 16.017 167.594C16.1051 167.506 16.1932 167.418 16.2812 167.374C16.4133 167.33 16.5454 167.286 16.6775 167.286C16.9417 167.286 17.1618 167.374 17.2939 167.55C17.426 167.682 17.4701 167.858 17.4701 167.989C17.4701 168.209 17.338 168.429 17.0738 168.561C17.2499 168.605 17.338 168.649 17.4701 168.781C17.5581 168.913 17.6021 169.045 17.6021 169.221C17.6021 169.441 17.5141 169.661 17.338 169.837C17.1618 170.013 16.9417 170.101 16.6775 170.101C16.4133 170.101 16.2372 170.013 16.0611 169.881C15.929 169.793 15.8409 169.573 15.7969 169.353Z" fill="#4C4C4C"/>
<path d="M19.007 170.099V169.527H17.9062V169.087L19.0951 167.327H19.5354V169.043H19.8876V169.483H19.5354V170.055H19.007V170.099ZM19.007 169.087V168.163L18.3906 169.087H19.007Z" fill="#4C4C4C"/>
<path d="M20.1094 169.397L20.6377 169.353C20.6377 169.485 20.6818 169.573 20.7698 169.617C20.8579 169.705 20.946 169.705 21.034 169.705C21.1221 169.705 21.2542 169.661 21.2982 169.573C21.3863 169.485 21.4303 169.353 21.4303 169.177C21.4303 169.001 21.3863 168.869 21.2982 168.781C21.2102 168.693 21.1221 168.649 20.99 168.649C20.8579 168.649 20.7258 168.737 20.5937 168.869L20.1534 168.825L20.4176 167.417H21.8266V167.901H20.8579L20.7698 168.385C20.9019 168.341 20.99 168.297 21.1221 168.297C21.3422 168.297 21.5624 168.385 21.6945 168.561C21.8706 168.737 21.9587 168.957 21.9587 169.221C21.9587 169.441 21.9146 169.661 21.7826 169.837C21.6064 170.057 21.3422 170.189 21.034 170.189C20.7698 170.189 20.5937 170.101 20.4176 169.969C20.2415 169.793 20.1094 169.617 20.1094 169.397Z" fill="#4C4C4C"/>
<path d="M23.9956 168.031L23.4672 168.075C23.4672 167.987 23.4232 167.899 23.3792 167.855C23.3352 167.811 23.2471 167.767 23.159 167.767C23.0269 167.767 22.9389 167.811 22.8948 167.899C22.8068 167.987 22.7627 168.207 22.7627 168.515C22.8948 168.339 23.071 168.295 23.2471 168.295C23.4672 168.295 23.6434 168.383 23.8195 168.559C23.9956 168.735 24.0396 168.955 24.0396 169.219C24.0396 169.483 23.9516 169.703 23.7755 169.879C23.5993 170.055 23.3792 170.143 23.159 170.143C22.8948 170.143 22.6747 170.055 22.4986 169.835C22.3224 169.615 22.2344 169.263 22.2344 168.779C22.2344 168.295 22.3224 167.899 22.4986 167.679C22.6747 167.459 22.9389 167.327 23.2031 167.327C23.4232 167.327 23.5993 167.371 23.7314 167.503C23.8635 167.635 23.9516 167.811 23.9956 168.031ZM22.8068 169.175C22.8068 169.351 22.8508 169.483 22.9389 169.571C23.0269 169.659 23.115 169.703 23.2031 169.703C23.2911 169.703 23.3792 169.659 23.4672 169.571C23.5113 169.483 23.5553 169.351 23.5553 169.219C23.5553 169.043 23.5113 168.911 23.4672 168.823C23.3792 168.735 23.2911 168.691 23.2031 168.691C23.115 168.691 23.0269 168.735 22.9389 168.823C22.8508 168.867 22.8068 168.999 22.8068 169.175Z" fill="#4C4C4C"/>
<path d="M24.3438 167.858V167.374H26.149V167.77C26.0169 167.902 25.8408 168.122 25.7087 168.386C25.5766 168.65 25.4445 168.958 25.3565 169.266C25.2684 169.574 25.2244 169.838 25.2244 170.102H24.696C24.696 169.706 24.7841 169.354 24.9162 168.958C25.0482 168.562 25.2684 168.21 25.4886 167.902H24.3438V167.858Z" fill="#4C4C4C"/>
<path d="M26.951 168.603C26.8189 168.559 26.7308 168.471 26.6427 168.383C26.5987 168.295 26.5547 168.163 26.5547 168.075C26.5547 167.855 26.6427 167.723 26.7748 167.547C26.9069 167.415 27.1271 167.327 27.3913 167.327C27.6555 167.327 27.8756 167.415 28.0077 167.547C28.1398 167.679 28.2279 167.855 28.2279 168.075C28.2279 168.207 28.1838 168.295 28.1398 168.427C28.0517 168.515 27.9637 168.603 27.8756 168.647C28.0077 168.691 28.1398 168.779 28.2279 168.911C28.3159 169.043 28.36 169.175 28.36 169.307C28.36 169.571 28.2719 169.747 28.1398 169.923C27.9637 170.099 27.7435 170.143 27.4793 170.143C27.2152 170.143 27.039 170.099 26.8629 169.967C26.6868 169.791 26.5547 169.615 26.5547 169.351C26.5547 169.219 26.5987 169.087 26.6868 168.955C26.6868 168.779 26.7748 168.691 26.951 168.603ZM26.995 169.263C26.995 169.395 27.039 169.527 27.1271 169.615C27.2152 169.703 27.3032 169.747 27.3913 169.747C27.4793 169.747 27.5674 169.703 27.6555 169.615C27.7435 169.527 27.7435 169.439 27.7435 169.263C27.7435 169.131 27.6995 169.043 27.6555 168.955C27.5674 168.867 27.4793 168.823 27.3913 168.823C27.2592 168.823 27.1711 168.867 27.0831 168.955C27.039 169.043 26.995 169.131 26.995 169.263ZM27.039 168.075C27.039 168.163 27.0831 168.251 27.1271 168.339C27.1711 168.383 27.2592 168.427 27.3472 168.427C27.4353 168.427 27.5234 168.383 27.5674 168.339C27.6114 168.295 27.6555 168.207 27.6555 168.075C27.6555 167.987 27.6114 167.899 27.5674 167.855C27.5234 167.811 27.4353 167.767 27.3472 167.767C27.2592 167.767 27.1711 167.811 27.1271 167.855C27.0831 167.899 27.039 167.987 27.039 168.075Z" fill="#4C4C4C"/>
<path d="M28.6143 169.439L29.1427 169.395C29.1427 169.483 29.1867 169.571 29.2308 169.615C29.2748 169.659 29.3629 169.703 29.4509 169.703C29.539 169.703 29.6711 169.659 29.7151 169.571C29.8032 169.483 29.8472 169.263 29.8472 168.955C29.7151 169.087 29.539 169.175 29.3629 169.175C29.1427 169.175 28.9666 169.087 28.7905 168.911C28.6143 168.735 28.5703 168.515 28.5703 168.251C28.5703 167.987 28.6584 167.767 28.8345 167.591C29.0106 167.415 29.2308 167.327 29.4509 167.327C29.7151 167.327 29.9353 167.415 30.1554 167.635C30.3316 167.855 30.4196 168.207 30.4196 168.691C30.4196 169.175 30.3316 169.571 30.1554 169.791C29.9793 170.011 29.7151 170.143 29.4509 170.143C29.2308 170.143 29.0547 170.099 28.9226 169.967C28.7464 169.835 28.6584 169.659 28.6143 169.439ZM29.8032 168.295C29.8032 168.119 29.7592 167.987 29.6711 167.899C29.583 167.811 29.495 167.767 29.4069 167.767C29.3188 167.767 29.2308 167.811 29.1867 167.899C29.1427 167.987 29.0987 168.119 29.0987 168.295C29.0987 168.471 29.1427 168.603 29.1867 168.691C29.2748 168.779 29.3629 168.823 29.4509 168.823C29.539 168.823 29.6271 168.779 29.7151 168.691C29.7592 168.559 29.8032 168.471 29.8032 168.295Z" fill="#4C4C4C"/>
<path d="M31.6122 167.327C31.8763 167.327 32.0965 167.415 32.2286 167.591C32.4047 167.811 32.4928 168.207 32.4928 168.691C32.4928 169.219 32.4047 169.571 32.2286 169.791C32.0965 169.967 31.8763 170.055 31.6122 170.055C31.348 170.055 31.1278 169.967 30.9517 169.747C30.7756 169.527 30.6875 169.175 30.6875 168.647C30.6875 168.119 30.7756 167.767 30.9517 167.547C31.1718 167.415 31.348 167.327 31.6122 167.327ZM31.6122 167.767C31.5681 167.767 31.4801 167.767 31.436 167.811C31.392 167.855 31.348 167.943 31.3039 168.031C31.2599 168.163 31.2599 168.383 31.2599 168.735C31.2599 169.087 31.2599 169.263 31.3039 169.395C31.348 169.527 31.392 169.615 31.436 169.615C31.4801 169.659 31.5241 169.659 31.6122 169.659C31.7002 169.659 31.7442 169.659 31.7883 169.615C31.8323 169.571 31.8763 169.483 31.9204 169.395C31.9644 169.263 31.9644 169.043 31.9644 168.691C31.9644 168.339 31.9644 168.163 31.9204 168.031C31.8763 167.899 31.8323 167.811 31.7883 167.811C31.7442 167.767 31.7002 167.767 31.6122 167.767Z" fill="#4C4C4C"/>
<path d="M35.0027 169.751L33.1094 168.915V168.475L35.0027 167.683V168.211L33.6818 168.695L35.0027 169.223V169.751Z" fill="#4C4C4C"/>
<path d="M36.5418 167.327C36.806 167.327 37.0262 167.415 37.1583 167.591C37.3344 167.811 37.4225 168.207 37.4225 168.691C37.4225 169.219 37.3344 169.571 37.1583 169.791C37.0262 169.967 36.806 170.055 36.5418 170.055C36.2777 170.055 36.0575 169.967 35.8814 169.747C35.7052 169.527 35.6172 169.175 35.6172 168.647C35.6172 168.119 35.7052 167.767 35.8814 167.547C36.0575 167.415 36.2336 167.327 36.5418 167.327ZM36.5418 167.767C36.4978 167.767 36.4097 167.767 36.3657 167.811C36.3217 167.855 36.2777 167.943 36.2336 168.031C36.1896 168.163 36.1896 168.383 36.1896 168.735C36.1896 169.087 36.1896 169.263 36.2336 169.395C36.2777 169.527 36.3217 169.615 36.3657 169.615C36.4097 169.659 36.4538 169.659 36.5418 169.659C36.6299 169.659 36.6739 169.659 36.718 169.615C36.762 169.571 36.806 169.483 36.8501 169.395C36.8941 169.263 36.8941 169.043 36.8941 168.691C36.8941 168.339 36.8941 168.163 36.8501 168.031C36.806 167.899 36.762 167.811 36.718 167.811C36.6299 167.767 36.5859 167.767 36.5418 167.767Z" fill="#4C4C4C"/>
<path d="M39.1029 170.099H38.5745V168.119C38.3984 168.295 38.1782 168.427 37.9141 168.515V168.031C38.0462 167.987 38.1782 167.899 38.3544 167.767C38.5305 167.635 38.6186 167.503 38.7066 167.327H39.1469V170.099H39.1029Z" fill="#4C4C4C"/>
<path d="M41.654 169.618V170.102H39.8047C39.8047 169.926 39.8928 169.75 39.9808 169.574C40.0689 169.398 40.289 169.178 40.5532 168.914C40.7734 168.694 40.9495 168.562 40.9935 168.474C41.0816 168.386 41.0816 168.254 41.0816 168.166C41.0816 168.034 41.0376 167.946 40.9935 167.902C40.9495 167.858 40.8614 167.814 40.7293 167.814C40.6413 167.814 40.5532 167.858 40.4652 167.902C40.4211 167.99 40.3771 168.078 40.3331 168.21L39.8047 168.166C39.8487 167.858 39.9368 167.682 40.1129 167.55C40.289 167.418 40.4652 167.374 40.7293 167.374C40.9935 167.374 41.2137 167.462 41.3458 167.594C41.5219 167.726 41.5659 167.902 41.5659 168.122C41.5659 168.254 41.5219 168.342 41.4779 168.474C41.4338 168.606 41.3458 168.694 41.2577 168.826C41.2137 168.914 41.0816 169.002 40.9055 169.178C40.7293 169.31 40.6413 169.442 40.5972 169.486C40.5532 169.53 40.5092 169.574 40.5092 169.618H41.654Z" fill="#4C4C4C"/>
<path d="M42.0078 169.353L42.5362 169.309C42.5362 169.441 42.5802 169.529 42.6683 169.617C42.7563 169.705 42.8444 169.705 42.9325 169.705C43.0205 169.705 43.1526 169.661 43.1967 169.573C43.2847 169.485 43.3287 169.397 43.3287 169.221C43.3287 169.089 43.2847 169.001 43.2407 168.913C43.1526 168.825 43.0646 168.781 42.9765 168.781C42.8884 168.781 42.8444 168.781 42.7563 168.825L42.8004 168.386C42.9325 168.386 43.0646 168.341 43.1086 168.297C43.1967 168.254 43.2407 168.165 43.2407 168.034C43.2407 167.946 43.1967 167.858 43.1526 167.814C43.1086 167.77 43.0205 167.726 42.9325 167.726C42.8444 167.726 42.7563 167.77 42.7123 167.814C42.6683 167.858 42.6242 167.946 42.5802 168.078L42.0959 167.989C42.1399 167.814 42.1839 167.682 42.228 167.594C42.316 167.506 42.4041 167.418 42.4922 167.374C42.6242 167.33 42.7563 167.286 42.8884 167.286C43.1526 167.286 43.3728 167.374 43.5049 167.55C43.637 167.682 43.681 167.858 43.681 167.989C43.681 168.209 43.5489 168.429 43.2847 168.561C43.4608 168.605 43.5489 168.649 43.681 168.781C43.7691 168.913 43.8131 169.045 43.8131 169.221C43.8131 169.441 43.725 169.661 43.5489 169.837C43.3728 170.013 43.1526 170.101 42.8884 170.101C42.6242 170.101 42.4481 170.013 42.272 169.881C42.1399 169.793 42.0518 169.573 42.0078 169.353Z" fill="#4C4C4C"/>
<path d="M45.1711 170.099V169.527H44.0703V169.087L45.2592 167.327H45.6995V169.043H46.0517V169.483H45.6995V170.055H45.1711V170.099ZM45.1711 169.087V168.163L44.5547 169.087H45.1711Z" fill="#4C4C4C"/>
<path d="M46.2812 169.397L46.8096 169.353C46.8096 169.485 46.8537 169.573 46.9417 169.617C47.0298 169.705 47.1178 169.705 47.2059 169.705C47.294 169.705 47.4261 169.661 47.4701 169.573C47.5582 169.485 47.6022 169.353 47.6022 169.177C47.6022 169.001 47.5582 168.869 47.4701 168.781C47.382 168.693 47.294 168.649 47.1619 168.649C47.0298 168.649 46.8977 168.737 46.7656 168.869L46.3253 168.825L46.5895 167.417H47.9985V167.901H47.0298L46.9417 168.385C47.0738 168.341 47.1619 168.297 47.294 168.297C47.5141 168.297 47.7343 168.385 47.8664 168.561C48.0425 168.737 48.1306 168.957 48.1306 169.221C48.1306 169.441 48.0865 169.661 47.9544 169.837C47.7783 170.057 47.5141 170.189 47.2059 170.189C46.9417 170.189 46.7656 170.101 46.5895 169.969C46.4133 169.793 46.3253 169.617 46.2812 169.397Z" fill="#4C4C4C"/>
<path d="M50.1909 168.031L49.6626 168.075C49.6626 167.987 49.6185 167.899 49.5745 167.855C49.5305 167.811 49.4424 167.767 49.3543 167.767C49.2222 167.767 49.1342 167.811 49.0902 167.899C49.0021 167.987 48.9581 168.207 48.9581 168.515C49.0902 168.339 49.2663 168.295 49.4424 168.295C49.6626 168.295 49.8387 168.383 50.0148 168.559C50.1909 168.735 50.235 168.955 50.235 169.219C50.235 169.483 50.1469 169.703 49.9708 169.879C49.7946 170.055 49.5745 170.143 49.3543 170.143C49.0902 170.143 48.87 170.055 48.6939 169.835C48.5177 169.615 48.4297 169.263 48.4297 168.779C48.4297 168.295 48.5177 167.899 48.6939 167.679C48.87 167.459 49.1342 167.327 49.3984 167.327C49.6185 167.327 49.7946 167.371 49.9267 167.503C50.0588 167.635 50.1469 167.811 50.1909 168.031ZM49.0021 169.175C49.0021 169.351 49.0461 169.483 49.1342 169.571C49.2222 169.659 49.3103 169.703 49.3984 169.703C49.4864 169.703 49.5745 169.659 49.6626 169.571C49.7066 169.483 49.7506 169.351 49.7506 169.219C49.7506 169.043 49.7066 168.911 49.6626 168.823C49.5745 168.735 49.4864 168.691 49.3984 168.691C49.3103 168.691 49.2222 168.735 49.1342 168.823C49.0461 168.867 49.0021 168.999 49.0021 169.175Z" fill="#4C4C4C"/>
<path d="M50.5391 167.858V167.374H52.3443V167.77C52.2122 167.902 52.0361 168.122 51.904 168.386C51.7719 168.65 51.6398 168.958 51.5518 169.266C51.4637 169.574 51.4197 169.838 51.4197 170.102H50.8913C50.8913 169.706 50.9794 169.354 51.1115 168.958C51.2436 168.562 51.4637 168.21 51.6839 167.902H50.5391V167.858Z" fill="#4C4C4C"/>
<path d="M53.0994 168.603C52.9673 168.559 52.8793 168.471 52.7912 168.383C52.7472 168.295 52.7031 168.163 52.7031 168.075C52.7031 167.855 52.7912 167.723 52.9233 167.547C53.0554 167.415 53.2755 167.327 53.5397 167.327C53.8039 167.327 54.0241 167.415 54.1562 167.547C54.2882 167.679 54.3763 167.855 54.3763 168.075C54.3763 168.207 54.3323 168.295 54.2882 168.427C54.2002 168.515 54.1121 168.603 54.0241 168.647C54.1562 168.691 54.2882 168.779 54.3763 168.911C54.4644 169.043 54.5084 169.175 54.5084 169.307C54.5084 169.571 54.4203 169.747 54.2882 169.923C54.1121 170.099 53.892 170.143 53.6278 170.143C53.3636 170.143 53.1875 170.099 53.0113 169.967C52.8352 169.791 52.7031 169.615 52.7031 169.351C52.7031 169.219 52.7472 169.087 52.8352 168.955C52.8352 168.779 52.9673 168.691 53.0994 168.603ZM53.1875 169.263C53.1875 169.395 53.2315 169.527 53.3196 169.615C53.4076 169.703 53.4957 169.747 53.5837 169.747C53.6718 169.747 53.7599 169.703 53.8479 169.615C53.936 169.527 53.936 169.439 53.936 169.263C53.936 169.131 53.892 169.043 53.8479 168.955C53.7599 168.867 53.6718 168.823 53.5837 168.823C53.4517 168.823 53.3636 168.867 53.2755 168.955C53.1875 169.043 53.1875 169.131 53.1875 169.263ZM53.2315 168.075C53.2315 168.163 53.2755 168.251 53.3196 168.339C53.3636 168.383 53.4517 168.427 53.5397 168.427C53.6278 168.427 53.7158 168.383 53.7599 168.339C53.8039 168.295 53.8479 168.207 53.8479 168.075C53.8479 167.987 53.8039 167.899 53.7599 167.855C53.7158 167.811 53.6278 167.767 53.5397 167.767C53.4517 167.767 53.3636 167.811 53.3196 167.855C53.2755 167.899 53.2315 167.987 53.2315 168.075Z" fill="#4C4C4C"/>
<path d="M54.8097 169.439L55.338 169.395C55.338 169.483 55.3821 169.571 55.4261 169.615C55.4701 169.659 55.5582 169.703 55.6462 169.703C55.7343 169.703 55.8664 169.659 55.9104 169.571C55.9985 169.483 56.0425 169.263 56.0425 168.955C55.9104 169.087 55.7343 169.175 55.5582 169.175C55.338 169.175 55.1619 169.087 54.9858 168.911C54.8097 168.735 54.7656 168.515 54.7656 168.251C54.7656 167.987 54.8537 167.767 55.0298 167.591C55.2059 167.415 55.4261 167.327 55.6462 167.327C55.9104 167.327 56.1306 167.415 56.3507 167.635C56.5269 167.855 56.6149 168.207 56.6149 168.691C56.6149 169.175 56.5269 169.571 56.3507 169.791C56.1746 170.011 55.9104 170.143 55.6462 170.143C55.4261 170.143 55.25 170.099 55.1179 169.967C54.9417 169.835 54.8537 169.659 54.8097 169.439ZM55.9985 168.295C55.9985 168.119 55.9545 167.987 55.8664 167.899C55.7783 167.811 55.6903 167.767 55.6022 167.767C55.5142 167.767 55.4261 167.811 55.3821 167.899C55.338 167.987 55.294 168.119 55.294 168.295C55.294 168.471 55.338 168.603 55.3821 168.691C55.4701 168.779 55.5582 168.823 55.6462 168.823C55.7343 168.823 55.8224 168.779 55.9104 168.691C55.9545 168.559 55.9985 168.471 55.9985 168.295Z" fill="#4C4C4C"/>
<path d="M58.823 169.751L56.9297 168.915V168.475L58.823 167.683V168.211L57.5021 168.695L58.823 169.223V169.751Z" fill="#4C4C4C"/>
<path d="M61.0652 169.751L59.1719 168.915V168.475L61.0652 167.683V168.211L59.7443 168.695L61.0652 169.223V169.751Z" fill="#4C4C4C"/>
<path d="M63.2683 169.751L61.375 168.915V168.475L63.2683 167.683V168.211L61.9474 168.695L63.2683 169.223V169.751Z" fill="#4C4C4C"/>
<path d="M65.5105 169.751L63.6172 168.915V168.475L65.5105 167.683V168.211L64.1896 168.695L65.5105 169.223V169.751Z" fill="#4C4C4C"/>
<path d="M67.7683 169.751L65.875 168.915V168.475L67.7683 167.683V168.211L66.4474 168.695L67.7683 169.223V169.751Z" fill="#4C4C4C"/>
<path d="M70.0105 169.751L68.1172 168.915V168.475L70.0105 167.683V168.211L68.6896 168.695L70.0105 169.223V169.751Z" fill="#4C4C4C"/>
<path d="M72.2058 169.751L70.3125 168.915V168.475L72.2058 167.683V168.211L70.8849 168.695L72.2058 169.223V169.751Z" fill="#4C4C4C"/>
<path d="M74.4558 169.751L72.5625 168.915V168.475L74.4558 167.683V168.211L73.1349 168.695L74.4558 169.223V169.751Z" fill="#4C4C4C"/>
<path d="M74.9347 167.327H75.9474C76.1675 167.327 76.3436 167.327 76.4757 167.371C76.6519 167.415 76.784 167.503 76.872 167.635C77.0041 167.767 77.0922 167.899 77.1362 168.075C77.1802 168.251 77.2243 168.471 77.2243 168.735C77.2243 168.955 77.1802 169.175 77.1362 169.307C77.0481 169.527 76.9601 169.659 76.828 169.791C76.7399 169.879 76.6078 169.967 76.4317 170.011C76.2996 170.055 76.1675 170.055 75.9474 170.055H74.8906V167.327H74.9347ZM75.463 167.811V169.615H75.8593C76.0354 169.615 76.1235 169.615 76.2116 169.571C76.2996 169.527 76.3877 169.527 76.4317 169.439C76.4757 169.395 76.5198 169.307 76.5638 169.175C76.6078 169.043 76.6078 168.867 76.6078 168.691C76.6078 168.515 76.6078 168.295 76.5638 168.207C76.5198 168.075 76.4757 167.987 76.3877 167.943C76.2996 167.899 76.2556 167.855 76.1235 167.811C76.0354 167.811 75.9033 167.767 75.6832 167.767H75.463V167.811Z" fill="#4C4C4C"/>
<path d="M77.669 167.327H78.6817C78.9019 167.327 79.078 167.327 79.2101 167.371C79.3862 167.415 79.5183 167.503 79.6064 167.635C79.7385 167.767 79.8266 167.899 79.8706 168.075C79.9146 168.251 79.9587 168.471 79.9587 168.735C79.9587 168.955 79.9146 169.175 79.8706 169.307C79.7825 169.527 79.6945 169.659 79.5624 169.791C79.4743 169.879 79.3422 169.967 79.1661 170.011C79.034 170.055 78.9019 170.055 78.6817 170.055H77.625V167.327H77.669ZM78.2414 167.811V169.615H78.6377C78.8138 169.615 78.9019 169.615 78.99 169.571C79.078 169.527 79.1661 169.527 79.2101 169.439C79.2541 169.395 79.2982 169.307 79.3422 169.175C79.3862 169.043 79.3862 168.867 79.3862 168.691C79.3862 168.515 79.3862 168.295 79.3422 168.207C79.2982 168.075 79.2542 167.987 79.1661 167.943C79.078 167.899 79.034 167.855 78.9019 167.811C78.8138 167.811 78.6817 167.767 78.4616 167.767H78.2414V167.811Z" fill="#4C4C4C"/>
<path d="M80.3984 169.351V168.823H81.4104V169.351H80.3984Z" fill="#4C4C4C"/>
<path d="M81.7109 170.102V167.374H82.5475L83.0319 169.222L83.5162 167.374H84.3528V170.102H83.8244V167.946L83.296 170.102H82.7677L82.2393 167.946V170.102H81.7109Z" fill="#4C4C4C"/>
<path d="M84.8906 170.102V167.374H85.7272L86.2116 169.222L86.6959 167.374H87.5325V170.102H87.0041V167.946L86.4757 170.102H85.9474L85.419 167.946V170.102H84.8906Z" fill="#4C4C4C"/>
<path d="M88.0547 169.351V168.823H89.0667V169.351H88.0547Z" fill="#4C4C4C"/>
<path d="M90.083 170.102V168.958L89.0703 167.374H89.7308L90.3912 168.474L91.0077 167.374H91.6241L90.6114 168.958V170.102H90.083Z" fill="#4C4C4C"/>
<path d="M92.6377 170.102V168.958L91.625 167.374H92.2855L92.9459 168.474L93.5624 167.374H94.1788L93.1661 168.958V170.102H92.6377Z" fill="#4C4C4C"/>
<path d="M96.2527 169.751L94.3594 168.915V168.475L96.2527 167.683V168.211L94.9318 168.695L96.2527 169.223V169.751Z" fill="#4C4C4C"/>
<path d="M98.4871 169.751L96.5938 168.915V168.475L98.4871 167.683V168.211L97.1662 168.695L98.4871 169.223V169.751Z" fill="#4C4C4C"/>
<path d="M100.737 169.751L98.8438 168.915V168.475L100.737 167.683V168.211L99.4162 168.695L100.737 169.223V169.751Z" fill="#4C4C4C"/>
<path d="M102.987 169.751L101.094 168.915V168.475L102.987 167.683V168.211L101.666 168.695L102.987 169.223V169.751Z" fill="#4C4C4C"/>
<path d="M105.182 169.751L103.289 168.915V168.475L105.182 167.683V168.211L103.861 168.695L105.182 169.223V169.751Z" fill="#4C4C4C"/>
<path d="M107.432 169.751L105.539 168.915V168.475L107.432 167.683V168.211L106.111 168.695L107.432 169.223V169.751Z" fill="#4C4C4C"/>
<path d="M109.675 169.751L107.781 168.915V168.475L109.675 167.683V168.211L108.354 168.695L109.675 169.223V169.751Z" fill="#4C4C4C"/>
<path d="M111.925 169.751L110.031 168.915V168.475L111.925 167.683V168.211L110.604 168.695L111.925 169.223V169.751Z" fill="#4C4C4C"/>
<path d="M114.131 169.746L112.281 168.954V168.514L114.175 167.722V168.25L112.854 168.734L114.175 169.262V169.746H114.131Z" fill="#4C4C4C"/>
<path d="M116.37 169.751L114.477 168.915V168.475L116.37 167.683V168.211L115.049 168.695L116.37 169.223V169.751Z" fill="#4C4C4C"/>
<path d="M118.62 169.751L116.727 168.915V168.475L118.62 167.683V168.211L117.299 168.695L118.62 169.223V169.751Z" fill="#4C4C4C"/>
<path d="M120.862 169.751L118.969 168.915V168.475L120.862 167.683V168.211L119.541 168.695L120.862 169.223V169.751Z" fill="#4C4C4C"/>
<path d="M123.096 169.751L121.203 168.915V168.475L123.096 167.683V168.211L121.776 168.695L123.096 169.223V169.751Z" fill="#4C4C4C"/>
<path d="M85.8996 103.967H85.019L84.6667 103.043H83.0376L82.6853 103.967H81.8047L83.3898 99.8755H84.2704L85.8996 103.967ZM84.4025 102.339L83.8301 100.843L83.2577 102.339H84.4025Z" fill="#4C4C4C"/>
<path d="M90.2589 103.964H89.3783L89.0261 103.04H87.3969L87.0447 103.964H86.1641L87.7492 99.872H88.6298L90.2589 103.964ZM88.7179 102.336L88.1455 100.84L87.5731 102.336H88.7179Z" fill="#4C4C4C"/>
<path d="M92.2897 103.965H91.4971V101.017C91.2329 101.281 90.8807 101.501 90.4844 101.589V100.885C90.7045 100.797 90.9247 100.709 91.1448 100.489C91.365 100.313 91.5411 100.093 91.6292 99.8289H92.2456V103.965H92.2897Z" fill="#4C4C4C"/>
<path d="M96.1177 103.216V103.964H93.3438C93.3878 103.7 93.4758 103.436 93.6079 103.172C93.74 102.908 94.0482 102.6 94.4886 102.204C94.8408 101.896 95.061 101.632 95.149 101.544C95.2371 101.368 95.3251 101.236 95.3251 101.06C95.3251 100.884 95.2811 100.752 95.1931 100.664C95.105 100.576 94.9729 100.532 94.7968 100.532C94.6207 100.532 94.4886 100.576 94.4005 100.664C94.3124 100.752 94.2684 100.928 94.2244 101.148L93.4318 101.06C93.4758 100.62 93.6079 100.312 93.8721 100.136C94.1363 99.96 94.4445 99.872 94.7968 99.872C95.1931 99.872 95.5013 99.96 95.7655 100.18C95.9856 100.4 96.1177 100.664 96.1177 100.972C96.1177 101.148 96.0737 101.324 96.0296 101.5C95.9856 101.676 95.8535 101.852 95.7214 102.028C95.6334 102.16 95.4572 102.336 95.1931 102.556C94.9289 102.776 94.7968 102.952 94.7087 102.996C94.6647 103.084 94.5766 103.128 94.5326 103.216H96.1177Z" fill="#4C4C4C"/>
<path d="M96.5938 102.865L97.3423 102.777C97.3863 102.953 97.4303 103.129 97.5184 103.217C97.6065 103.305 97.7386 103.349 97.9147 103.349C98.0908 103.349 98.2229 103.305 98.311 103.173C98.4431 103.041 98.4871 102.865 98.4871 102.689C98.4871 102.513 98.4431 102.337 98.311 102.205C98.2229 102.073 98.0908 102.029 97.9147 102.029C97.8266 102.029 97.6945 102.029 97.5624 102.073L97.6505 101.457C97.8707 101.457 98.0027 101.413 98.1348 101.325C98.2669 101.237 98.311 101.105 98.311 100.929C98.311 100.797 98.2669 100.665 98.1789 100.621C98.0908 100.533 98.0027 100.489 97.8707 100.489C97.7386 100.489 97.6065 100.533 97.5184 100.621C97.4303 100.709 97.3863 100.841 97.3423 101.017L96.6378 100.885C96.6818 100.621 96.7699 100.445 96.8579 100.313C96.946 100.181 97.1221 100.049 97.2982 99.9609C97.4744 99.8729 97.6945 99.8289 97.9147 99.8289C98.311 99.8289 98.6192 99.9609 98.8393 100.181C99.0155 100.401 99.1475 100.621 99.1475 100.841C99.1475 101.193 98.9714 101.501 98.5751 101.677C98.7953 101.721 99.0155 101.853 99.1475 102.029C99.2796 102.205 99.3677 102.425 99.3677 102.645C99.3677 102.997 99.2356 103.305 98.9714 103.569C98.7072 103.833 98.399 103.965 98.0027 103.965C97.6505 103.965 97.3423 103.877 97.0781 103.657C96.8139 103.437 96.6378 103.217 96.5938 102.865Z" fill="#4C4C4C"/>
<path d="M101.361 103.965V103.129H99.6875V102.425L101.449 99.8289H102.109V102.425H102.638V103.129H102.109V103.965H101.361ZM101.361 102.425V101.017L100.436 102.425H101.361Z" fill="#4C4C4C"/>
<path d="M102.984 102.908L103.777 102.82C103.821 102.996 103.865 103.128 103.953 103.26C104.041 103.348 104.173 103.436 104.349 103.436C104.525 103.436 104.658 103.348 104.746 103.216C104.878 103.084 104.922 102.864 104.922 102.6C104.922 102.336 104.878 102.16 104.746 102.028C104.614 101.896 104.481 101.852 104.305 101.852C104.085 101.852 103.865 101.94 103.689 102.16L103.072 102.072L103.469 99.9605H105.538V100.708H104.041L103.909 101.412C104.085 101.324 104.261 101.28 104.437 101.28C104.79 101.28 105.098 101.412 105.318 101.676C105.538 101.94 105.67 102.248 105.67 102.644C105.67 102.996 105.582 103.26 105.362 103.524C105.098 103.876 104.746 104.052 104.261 104.052C103.865 104.052 103.557 103.964 103.337 103.744C103.205 103.524 103.028 103.26 102.984 102.908Z" fill="#4C4C4C"/>
<path d="M108.793 100.885L108.045 100.973C108.045 100.797 107.957 100.709 107.913 100.621C107.824 100.533 107.736 100.489 107.604 100.489C107.428 100.489 107.296 100.577 107.164 100.709C107.032 100.841 106.988 101.149 106.944 101.633C107.12 101.413 107.384 101.281 107.692 101.281C108.001 101.281 108.309 101.413 108.529 101.633C108.749 101.897 108.881 102.205 108.881 102.601C108.881 102.997 108.749 103.349 108.529 103.613C108.265 103.877 107.957 104.009 107.604 104.009C107.208 104.009 106.856 103.833 106.592 103.525C106.327 103.217 106.195 102.689 106.195 101.941C106.195 101.193 106.327 100.665 106.592 100.313C106.856 99.9609 107.208 99.8289 107.648 99.8289C107.957 99.8289 108.221 99.9169 108.441 100.093C108.617 100.269 108.749 100.533 108.793 100.885ZM107.032 102.557C107.032 102.821 107.076 102.997 107.208 103.129C107.34 103.261 107.472 103.349 107.604 103.349C107.736 103.349 107.868 103.305 107.957 103.173C108.045 103.041 108.089 102.865 108.089 102.601C108.089 102.337 108.045 102.161 107.913 102.029C107.824 101.897 107.692 101.853 107.516 101.853C107.384 101.853 107.252 101.897 107.12 102.029C107.076 102.161 107.032 102.337 107.032 102.557Z" fill="#4C4C4C"/>
<path d="M109.32 100.666V99.9175H112.006V100.49C111.786 100.71 111.566 101.018 111.346 101.414C111.126 101.81 110.949 102.249 110.817 102.689C110.685 103.129 110.641 103.569 110.641 103.921H109.893C109.893 103.349 110.025 102.777 110.245 102.205C110.465 101.634 110.773 101.106 111.126 100.622H109.32V100.666Z" fill="#4C4C4C"/>
<path d="M113.202 101.764C112.982 101.676 112.85 101.544 112.762 101.412C112.674 101.28 112.63 101.104 112.63 100.928C112.63 100.62 112.718 100.356 112.938 100.18C113.158 99.96 113.467 99.872 113.863 99.872C114.259 99.872 114.567 99.96 114.787 100.18C115.008 100.4 115.096 100.62 115.096 100.928C115.096 101.104 115.052 101.28 114.964 101.412C114.876 101.544 114.743 101.676 114.567 101.764C114.787 101.852 114.964 101.984 115.096 102.16C115.228 102.336 115.272 102.556 115.272 102.776C115.272 103.172 115.14 103.48 114.92 103.7C114.699 103.92 114.347 104.052 113.951 104.052C113.599 104.052 113.29 103.964 113.026 103.744C112.718 103.524 112.586 103.216 112.586 102.776C112.586 102.556 112.63 102.336 112.762 102.16C112.762 101.984 112.938 101.852 113.202 101.764ZM113.29 102.688C113.29 102.908 113.334 103.084 113.467 103.172C113.599 103.304 113.731 103.348 113.863 103.348C114.039 103.348 114.171 103.304 114.259 103.172C114.347 103.04 114.435 102.908 114.435 102.688C114.435 102.512 114.391 102.336 114.259 102.248C114.171 102.116 113.995 102.072 113.863 102.072C113.687 102.072 113.511 102.116 113.423 102.248C113.334 102.424 113.29 102.556 113.29 102.688ZM113.334 100.972C113.334 101.148 113.379 101.236 113.467 101.324C113.555 101.412 113.687 101.456 113.819 101.456C113.951 101.456 114.083 101.412 114.171 101.324C114.259 101.236 114.303 101.104 114.303 100.972C114.303 100.84 114.259 100.708 114.171 100.62C114.083 100.532 113.951 100.488 113.819 100.488C113.687 100.488 113.555 100.532 113.467 100.62C113.379 100.708 113.334 100.796 113.334 100.972Z" fill="#4C4C4C"/>
<path d="M115.71 102.996L116.459 102.908C116.459 103.084 116.547 103.172 116.591 103.26C116.635 103.348 116.767 103.392 116.899 103.392C117.075 103.392 117.207 103.304 117.295 103.172C117.427 103.04 117.471 102.732 117.515 102.248C117.339 102.468 117.075 102.6 116.767 102.6C116.459 102.6 116.151 102.468 115.93 102.248C115.71 101.984 115.578 101.676 115.578 101.28C115.578 100.884 115.71 100.532 115.93 100.268C116.195 100.004 116.503 99.872 116.855 99.872C117.251 99.872 117.604 100.048 117.868 100.356C118.132 100.664 118.264 101.192 118.264 101.94C118.264 102.688 118.132 103.216 117.868 103.568C117.604 103.92 117.251 104.052 116.767 104.052C116.459 104.052 116.195 103.964 115.974 103.788C115.886 103.612 115.754 103.348 115.71 102.996ZM117.471 101.28C117.471 101.016 117.427 100.84 117.295 100.708C117.163 100.576 117.031 100.488 116.899 100.488C116.767 100.488 116.635 100.532 116.547 100.664C116.459 100.796 116.415 100.972 116.415 101.236C116.415 101.5 116.459 101.676 116.591 101.808C116.679 101.94 116.811 101.984 116.987 101.984C117.119 101.984 117.251 101.94 117.383 101.808C117.427 101.676 117.471 101.544 117.471 101.28Z" fill="#4C4C4C"/>
<path d="M120.196 99.8289C120.592 99.8289 120.9 99.9609 121.121 100.269C121.385 100.621 121.517 101.149 121.517 101.941C121.517 102.733 121.385 103.261 121.121 103.613C120.9 103.877 120.592 104.009 120.196 104.009C119.8 104.009 119.491 103.877 119.227 103.569C118.963 103.261 118.875 102.733 118.875 101.941C118.875 101.193 119.007 100.621 119.271 100.269C119.491 100.005 119.8 99.8289 120.196 99.8289ZM120.196 100.489C120.108 100.489 120.02 100.533 119.932 100.577C119.844 100.621 119.8 100.753 119.756 100.885C119.712 101.105 119.668 101.413 119.668 101.897C119.668 102.381 119.712 102.689 119.756 102.865C119.8 103.041 119.844 103.173 119.932 103.217C120.02 103.261 120.108 103.305 120.196 103.305C120.284 103.305 120.372 103.261 120.46 103.217C120.548 103.173 120.592 103.041 120.636 102.909C120.68 102.689 120.724 102.381 120.724 101.897C120.724 101.413 120.68 101.105 120.636 100.929C120.592 100.753 120.548 100.621 120.46 100.577C120.372 100.533 120.284 100.489 120.196 100.489Z" fill="#4C4C4C"/>
<path d="M118.262 74.9268C118.554 74.9268 118.79 74.6905 118.79 74.3988C118.79 74.1072 118.554 73.8708 118.262 73.8708C117.971 73.8708 117.734 74.1072 117.734 74.3988C117.734 74.6905 117.971 74.9268 118.262 74.9268Z" fill="#B3B3B3"/>
<path d="M119.637 74.9268C119.929 74.9268 120.165 74.6905 120.165 74.3988C120.165 74.1072 119.929 73.8708 119.637 73.8708C119.346 73.8708 119.109 74.1072 119.109 74.3988C119.109 74.6905 119.346 74.9268 119.637 74.9268Z" fill="#B3B3B3"/>
<path d="M120.989 74.9268C121.281 74.9268 121.517 74.6905 121.517 74.3988C121.517 74.1072 121.281 73.8708 120.989 73.8708C120.697 73.8708 120.461 74.1072 120.461 74.3988C120.461 74.6905 120.697 74.9268 120.989 74.9268Z" fill="#B3B3B3"/>
<path d="M122.317 74.9268C122.609 74.9268 122.845 74.6905 122.845 74.3988C122.845 74.1072 122.609 73.8708 122.317 73.8708C122.025 73.8708 121.789 74.1072 121.789 74.3988C121.789 74.6905 122.025 74.9268 122.317 74.9268Z" fill="#B3B3B3"/>
<path d="M116.942 73.6061C117.234 73.6061 117.47 73.3697 117.47 73.0781C117.47 72.7865 117.234 72.5501 116.942 72.5501C116.65 72.5501 116.414 72.7865 116.414 73.0781C116.414 73.3697 116.65 73.6061 116.942 73.6061Z" fill="#B3B3B3"/>
<path d="M119.637 73.6061C119.929 73.6061 120.165 73.3697 120.165 73.0781C120.165 72.7865 119.929 72.5501 119.637 72.5501C119.346 72.5501 119.109 72.7865 119.109 73.0781C119.109 73.3697 119.346 73.6061 119.637 73.6061Z" fill="#B3B3B3"/>
<path d="M116.942 72.2396C117.234 72.2396 117.47 72.0032 117.47 71.7116C117.47 71.42 117.234 71.1837 116.942 71.1837C116.65 71.1837 116.414 71.42 116.414 71.7116C116.414 72.0032 116.65 72.2396 116.942 72.2396Z" fill="#B3B3B3"/>
<path d="M119.637 72.2396C119.929 72.2396 120.165 72.0032 120.165 71.7116C120.165 71.42 119.929 71.1837 119.637 71.1837C119.346 71.1837 119.109 71.42 119.109 71.7116C119.109 72.0032 119.346 72.2396 119.637 72.2396Z" fill="#B3B3B3"/>
<path d="M118.262 70.8794C118.554 70.8794 118.79 70.643 118.79 70.3514C118.79 70.0598 118.554 69.8234 118.262 69.8234C117.971 69.8234 117.734 70.0598 117.734 70.3514C117.734 70.643 117.971 70.8794 118.262 70.8794Z" fill="#B3B3B3"/>
<path d="M119.637 70.8794C119.929 70.8794 120.165 70.643 120.165 70.3514C120.165 70.0598 119.929 69.8234 119.637 69.8234C119.346 69.8234 119.109 70.0598 119.109 70.3514C119.109 70.643 119.346 70.8794 119.637 70.8794Z" fill="#B3B3B3"/>
<path d="M120.989 70.8794C121.281 70.8794 121.517 70.643 121.517 70.3514C121.517 70.0598 121.281 69.8234 120.989 69.8234C120.697 69.8234 120.461 70.0598 120.461 70.3514C120.461 70.643 120.697 70.8794 120.989 70.8794Z" fill="#B3B3B3"/>
<path d="M122.317 70.8794C122.609 70.8794 122.845 70.643 122.845 70.3514C122.845 70.0598 122.609 69.8234 122.317 69.8234C122.025 69.8234 121.789 70.0598 121.789 70.3514C121.789 70.643 122.025 70.8794 122.317 70.8794Z" fill="#B3B3B3"/>
<path d="M118.262 68.1922C118.554 68.1922 118.79 67.9559 118.79 67.6643C118.79 67.3726 118.554 67.1363 118.262 67.1363C117.971 67.1363 117.734 67.3726 117.734 67.6643C117.734 67.9559 117.971 68.1922 118.262 68.1922Z" fill="#B3B3B3"/>
<path d="M119.637 68.1922C119.929 68.1922 120.165 67.9559 120.165 67.6643C120.165 67.3726 119.929 67.1363 119.637 67.1363C119.346 67.1363 119.109 67.3726 119.109 67.6643C119.109 67.9559 119.346 68.1922 119.637 68.1922Z" fill="#B3B3B3"/>
<path d="M120.989 68.1922C121.281 68.1922 121.517 67.9559 121.517 67.6643C121.517 67.3726 121.281 67.1363 120.989 67.1363C120.697 67.1363 120.461 67.3726 120.461 67.6643C120.461 67.9559 120.697 68.1922 120.989 68.1922Z" fill="#B3B3B3"/>
<path d="M122.317 68.1922C122.609 68.1922 122.845 67.9559 122.845 67.6643C122.845 67.3726 122.609 67.1363 122.317 67.1363C122.025 67.1363 121.789 67.3726 121.789 67.6643C121.789 67.9559 122.025 68.1922 122.317 68.1922Z" fill="#B3B3B3"/>
<path d="M116.942 66.8296C117.234 66.8296 117.47 66.5932 117.47 66.3016C117.47 66.01 117.234 65.7737 116.942 65.7737C116.65 65.7737 116.414 66.01 116.414 66.3016C116.414 66.5932 116.65 66.8296 116.942 66.8296Z" fill="#B3B3B3"/>
<path d="M119.637 66.8296C119.929 66.8296 120.165 66.5932 120.165 66.3016C120.165 66.01 119.929 65.7737 119.637 65.7737C119.346 65.7737 119.109 66.01 119.109 66.3016C119.109 66.5932 119.346 66.8296 119.637 66.8296Z" fill="#B3B3B3"/>
<path d="M116.942 65.5125C117.234 65.5125 117.47 65.2761 117.47 64.9845C117.47 64.6929 117.234 64.4565 116.942 64.4565C116.65 64.4565 116.414 64.6929 116.414 64.9845C116.414 65.2761 116.65 65.5125 116.942 65.5125Z" fill="#B3B3B3"/>
<path d="M119.637 65.5125C119.929 65.5125 120.165 65.2761 120.165 64.9845C120.165 64.6929 119.929 64.4565 119.637 64.4565C119.346 64.4565 119.109 64.6929 119.109 64.9845C119.109 65.2761 119.346 65.5125 119.637 65.5125Z" fill="#B3B3B3"/>
<path d="M118.262 64.1461C118.554 64.1461 118.79 63.9097 118.79 63.6181C118.79 63.3265 118.554 63.0901 118.262 63.0901C117.971 63.0901 117.734 63.3265 117.734 63.6181C117.734 63.9097 117.971 64.1461 118.262 64.1461Z" fill="#B3B3B3"/>
<path d="M119.637 64.1461C119.929 64.1461 120.165 63.9097 120.165 63.6181C120.165 63.3265 119.929 63.0901 119.637 63.0901C119.346 63.0901 119.109 63.3265 119.109 63.6181C119.109 63.9097 119.346 64.1461 119.637 64.1461Z" fill="#B3B3B3"/>
<path d="M120.989 64.1461C121.281 64.1461 121.517 63.9097 121.517 63.6181C121.517 63.3265 121.281 63.0901 120.989 63.0901C120.697 63.0901 120.461 63.3265 120.461 63.6181C120.461 63.9097 120.697 64.1461 120.989 64.1461Z" fill="#B3B3B3"/>
<path d="M122.317 64.1461C122.609 64.1461 122.845 63.9097 122.845 63.6181C122.845 63.3265 122.609 63.0901 122.317 63.0901C122.025 63.0901 121.789 63.3265 121.789 63.6181C121.789 63.9097 122.025 64.1461 122.317 64.1461Z" fill="#B3B3B3"/>
<path d="M118.262 61.4196C118.554 61.4196 118.79 61.1832 118.79 60.8916C118.79 60.6 118.554 60.3636 118.262 60.3636C117.971 60.3636 117.734 60.6 117.734 60.8916C117.734 61.1832 117.971 61.4196 118.262 61.4196Z" fill="#B3B3B3"/>
<path d="M116.942 60.0963C117.234 60.0963 117.47 59.8599 117.47 59.5683C117.47 59.2767 117.234 59.0403 116.942 59.0403C116.65 59.0403 116.414 59.2767 116.414 59.5683C116.414 59.8599 116.65 60.0963 116.942 60.0963Z" fill="#B3B3B3"/>
<path d="M118.262 60.0963C118.554 60.0963 118.79 59.8599 118.79 59.5683C118.79 59.2767 118.554 59.0403 118.262 59.0403C117.971 59.0403 117.734 59.2767 117.734 59.5683C117.734 59.8599 117.971 60.0963 118.262 60.0963Z" fill="#B3B3B3"/>
<path d="M119.637 60.0963C119.929 60.0963 120.165 59.8599 120.165 59.5683C120.165 59.2767 119.929 59.0403 119.637 59.0403C119.346 59.0403 119.109 59.2767 119.109 59.5683C119.109 59.8599 119.346 60.0963 119.637 60.0963Z" fill="#B3B3B3"/>
<path d="M120.989 60.0963C121.281 60.0963 121.517 59.8599 121.517 59.5683C121.517 59.2767 121.281 59.0403 120.989 59.0403C120.697 59.0403 120.461 59.2767 120.461 59.5683C120.461 59.8599 120.697 60.0963 120.989 60.0963Z" fill="#B3B3B3"/>
<path d="M122.317 60.0963C122.609 60.0963 122.845 59.8599 122.845 59.5683C122.845 59.2767 122.609 59.0403 122.317 59.0403C122.025 59.0403 121.789 59.2767 121.789 59.5683C121.789 59.8599 122.025 60.0963 122.317 60.0963Z" fill="#B3B3B3"/>
<path d="M116.942 57.3698C117.234 57.3698 117.47 57.1334 117.47 56.8418C117.47 56.5502 117.234 56.3138 116.942 56.3138C116.65 56.3138 116.414 56.5502 116.414 56.8418C116.414 57.1334 116.65 57.3698 116.942 57.3698Z" fill="#B3B3B3"/>
<path d="M119.637 57.3698C119.929 57.3698 120.165 57.1334 120.165 56.8418C120.165 56.5502 119.929 56.3138 119.637 56.3138C119.346 56.3138 119.109 56.5502 119.109 56.8418C119.109 57.1334 119.346 57.3698 119.637 57.3698Z" fill="#B3B3B3"/>
<path d="M120.989 57.3698C121.281 57.3698 121.517 57.1334 121.517 56.8418C121.517 56.5502 121.281 56.3138 120.989 56.3138C120.697 56.3138 120.461 56.5502 120.461 56.8418C120.461 57.1334 120.697 57.3698 120.989 57.3698Z" fill="#B3B3B3"/>
<path d="M122.317 57.3698C122.609 57.3698 122.845 57.1334 122.845 56.8418C122.845 56.5502 122.609 56.3138 122.317 56.3138C122.025 56.3138 121.789 56.5502 121.789 56.8418C121.789 57.1334 122.025 57.3698 122.317 57.3698Z" fill="#B3B3B3"/>
<path d="M116.942 56.0488C117.234 56.0488 117.47 55.8125 117.47 55.5208C117.47 55.2292 117.234 54.9929 116.942 54.9929C116.65 54.9929 116.414 55.2292 116.414 55.5208C116.414 55.8125 116.65 56.0488 116.942 56.0488Z" fill="#B3B3B3"/>
<path d="M119.637 56.0489C119.929 56.0489 120.165 55.8125 120.165 55.5209C120.165 55.2293 119.929 54.9929 119.637 54.9929C119.346 54.9929 119.109 55.2293 119.109 55.5209C119.109 55.8125 119.346 56.0489 119.637 56.0489Z" fill="#B3B3B3"/>
<path d="M122.317 56.0488C122.609 56.0488 122.845 55.8125 122.845 55.5208C122.845 55.2292 122.609 54.9929 122.317 54.9929C122.025 54.9929 121.789 55.2292 121.789 55.5208C121.789 55.8125 122.025 56.0488 122.317 56.0488Z" fill="#B3B3B3"/>
<path d="M116.942 54.6863C117.234 54.6863 117.47 54.4499 117.47 54.1583C117.47 53.8667 117.234 53.6303 116.942 53.6303C116.65 53.6303 116.414 53.8667 116.414 54.1583C116.414 54.4499 116.65 54.6863 116.942 54.6863Z" fill="#B3B3B3"/>
<path d="M118.262 54.6862C118.554 54.6862 118.79 54.4498 118.79 54.1582C118.79 53.8666 118.554 53.6302 118.262 53.6302C117.971 53.6302 117.734 53.8666 117.734 54.1582C117.734 54.4498 117.971 54.6862 118.262 54.6862Z" fill="#B3B3B3"/>
<path d="M119.637 54.6862C119.929 54.6862 120.165 54.4498 120.165 54.1582C120.165 53.8666 119.929 53.6302 119.637 53.6302C119.346 53.6302 119.109 53.8666 119.109 54.1582C119.109 54.4498 119.346 54.6862 119.637 54.6862Z" fill="#B3B3B3"/>
<path d="M122.317 54.6863C122.609 54.6863 122.845 54.4499 122.845 54.1583C122.845 53.8667 122.609 53.6303 122.317 53.6303C122.025 53.6303 121.789 53.8667 121.789 54.1583C121.789 54.4499 122.025 54.6863 122.317 54.6863Z" fill="#B3B3B3"/>
<path d="M116.942 51.999C117.234 51.999 117.47 51.7626 117.47 51.471C117.47 51.1794 117.234 50.943 116.942 50.943C116.65 50.943 116.414 51.1794 116.414 51.471C116.414 51.7626 116.65 51.999 116.942 51.999Z" fill="#B3B3B3"/>
<path d="M119.637 51.999C119.929 51.999 120.165 51.7626 120.165 51.471C120.165 51.1794 119.929 50.943 119.637 50.943C119.346 50.943 119.109 51.1794 119.109 51.471C119.109 51.7626 119.346 51.999 119.637 51.999Z" fill="#B3B3B3"/>
<path d="M122.317 51.999C122.609 51.999 122.845 51.7626 122.845 51.471C122.845 51.1794 122.609 50.943 122.317 50.943C122.025 50.943 121.789 51.1794 121.789 51.471C121.789 51.7626 122.025 51.999 122.317 51.999Z" fill="#B3B3B3"/>
<path d="M116.942 50.6389C117.234 50.6389 117.47 50.4025 117.47 50.1109C117.47 49.8193 117.234 49.5829 116.942 49.5829C116.65 49.5829 116.414 49.8193 116.414 50.1109C116.414 50.4025 116.65 50.6389 116.942 50.6389Z" fill="#B3B3B3"/>
<path d="M119.637 50.6389C119.929 50.6389 120.165 50.4025 120.165 50.1109C120.165 49.8193 119.929 49.5829 119.637 49.5829C119.346 49.5829 119.109 49.8193 119.109 50.1109C119.109 50.4025 119.346 50.6389 119.637 50.6389Z" fill="#B3B3B3"/>
<path d="M122.317 50.6389C122.609 50.6389 122.845 50.4025 122.845 50.1109C122.845 49.8193 122.609 49.5829 122.317 49.5829C122.025 49.5829 121.789 49.8193 121.789 50.1109C121.789 50.4025 122.025 50.6389 122.317 50.6389Z" fill="#B3B3B3"/>
<path d="M116.942 49.2726C117.234 49.2726 117.47 49.0362 117.47 48.7446C117.47 48.453 117.234 48.2166 116.942 48.2166C116.65 48.2166 116.414 48.453 116.414 48.7446C116.414 49.0362 116.65 49.2726 116.942 49.2726Z" fill="#B3B3B3"/>
<path d="M118.262 49.2726C118.554 49.2726 118.79 49.0362 118.79 48.7446C118.79 48.453 118.554 48.2166 118.262 48.2166C117.971 48.2166 117.734 48.453 117.734 48.7446C117.734 49.0362 117.971 49.2726 118.262 49.2726Z" fill="#B3B3B3"/>
<path d="M119.637 49.2726C119.929 49.2726 120.165 49.0362 120.165 48.7446C120.165 48.453 119.929 48.2166 119.637 48.2166C119.346 48.2166 119.109 48.453 119.109 48.7446C119.109 49.0362 119.346 49.2726 119.637 49.2726Z" fill="#B3B3B3"/>
<path d="M120.989 49.2726C121.281 49.2726 121.517 49.0362 121.517 48.7446C121.517 48.453 121.281 48.2166 120.989 48.2166C120.697 48.2166 120.461 48.453 120.461 48.7446C120.461 49.0362 120.697 49.2726 120.989 49.2726Z" fill="#B3B3B3"/>
<path d="M122.317 49.2726C122.609 49.2726 122.845 49.0362 122.845 48.7446C122.845 48.453 122.609 48.2166 122.317 48.2166C122.025 48.2166 121.789 48.453 121.789 48.7446C121.789 49.0362 122.025 49.2726 122.317 49.2726Z" fill="#B3B3B3"/>
<path d="M116.942 46.589C117.234 46.589 117.47 46.3526 117.47 46.061C117.47 45.7694 117.234 45.533 116.942 45.533C116.65 45.533 116.414 45.7694 116.414 46.061C116.414 46.3526 116.65 46.589 116.942 46.589Z" fill="#B3B3B3"/>
<path d="M118.262 46.5891C118.554 46.5891 118.79 46.3527 118.79 46.0611C118.79 45.7695 118.554 45.5331 118.262 45.5331C117.971 45.5331 117.734 45.7695 117.734 46.0611C117.734 46.3527 117.971 46.5891 118.262 46.5891Z" fill="#B3B3B3"/>
<path d="M119.637 46.5891C119.929 46.5891 120.165 46.3527 120.165 46.0611C120.165 45.7695 119.929 45.5331 119.637 45.5331C119.346 45.5331 119.109 45.7695 119.109 46.0611C119.109 46.3527 119.346 46.5891 119.637 46.5891Z" fill="#B3B3B3"/>
<path d="M118.262 45.2226C118.554 45.2226 118.79 44.9862 118.79 44.6946C118.79 44.403 118.554 44.1667 118.262 44.1667C117.971 44.1667 117.734 44.403 117.734 44.6946C117.734 44.9862 117.971 45.2226 118.262 45.2226Z" fill="#B3B3B3"/>
<path d="M119.637 45.2226C119.929 45.2226 120.165 44.9862 120.165 44.6946C120.165 44.403 119.929 44.1667 119.637 44.1667C119.346 44.1667 119.109 44.403 119.109 44.6946C119.109 44.9862 119.346 45.2226 119.637 45.2226Z" fill="#B3B3B3"/>
<path d="M120.989 45.2226C121.281 45.2226 121.517 44.9862 121.517 44.6946C121.517 44.403 121.281 44.1667 120.989 44.1667C120.697 44.1667 120.461 44.403 120.461 44.6946C120.461 44.9862 120.697 45.2226 120.989 45.2226Z" fill="#B3B3B3"/>
<path d="M122.317 45.2226C122.609 45.2226 122.845 44.9862 122.845 44.6946C122.845 44.403 122.609 44.1667 122.317 44.1667C122.025 44.1667 121.789 44.403 121.789 44.6946C121.789 44.9862 122.025 45.2226 122.317 45.2226Z" fill="#B3B3B3"/>
<path d="M119.637 43.8626C119.929 43.8626 120.165 43.6262 120.165 43.3346C120.165 43.043 119.929 42.8066 119.637 42.8066C119.346 42.8066 119.109 43.043 119.109 43.3346C119.109 43.6262 119.346 43.8626 119.637 43.8626Z" fill="#B3B3B3"/>
<path d="M116.942 41.179C117.234 41.179 117.47 40.9426 117.47 40.651C117.47 40.3594 117.234 40.123 116.942 40.123C116.65 40.123 116.414 40.3594 116.414 40.651C116.414 40.9426 116.65 41.179 116.942 41.179Z" fill="#B3B3B3"/>
<path d="M118.262 41.1789C118.554 41.1789 118.79 40.9425 118.79 40.6509C118.79 40.3593 118.554 40.123 118.262 40.123C117.971 40.123 117.734 40.3593 117.734 40.6509C117.734 40.9425 117.971 41.1789 118.262 41.1789Z" fill="#B3B3B3"/>
<path d="M119.637 41.1789C119.929 41.1789 120.165 40.9425 120.165 40.6509C120.165 40.3593 119.929 40.123 119.637 40.123C119.346 40.123 119.109 40.3593 119.109 40.6509C119.109 40.9425 119.346 41.1789 119.637 41.1789Z" fill="#B3B3B3"/>
<path d="M122.317 41.1789C122.609 41.1789 122.845 40.9425 122.845 40.6509C122.845 40.3593 122.609 40.123 122.317 40.123C122.025 40.123 121.789 40.3593 121.789 40.6509C121.789 40.9425 122.025 41.1789 122.317 41.1789Z" fill="#B3B3B3"/>
<path d="M116.942 39.8126C117.234 39.8126 117.47 39.5762 117.47 39.2846C117.47 38.993 117.234 38.7567 116.942 38.7567C116.65 38.7567 116.414 38.993 116.414 39.2846C116.414 39.5762 116.65 39.8126 116.942 39.8126Z" fill="#B3B3B3"/>
<path d="M119.637 39.8126C119.929 39.8126 120.165 39.5762 120.165 39.2846C120.165 38.993 119.929 38.7567 119.637 38.7567C119.346 38.7567 119.109 38.993 119.109 39.2846C119.109 39.5762 119.346 39.8126 119.637 39.8126Z" fill="#B3B3B3"/>
<path d="M122.317 39.8126C122.609 39.8126 122.845 39.5762 122.845 39.2846C122.845 38.993 122.609 38.7567 122.317 38.7567C122.025 38.7567 121.789 38.993 121.789 39.2846C121.789 39.5762 122.025 39.8126 122.317 39.8126Z" fill="#B3B3B3"/>
<path d="M116.942 38.4954C117.234 38.4954 117.47 38.259 117.47 37.9674C117.47 37.6758 117.234 37.4394 116.942 37.4394C116.65 37.4394 116.414 37.6758 116.414 37.9674C116.414 38.259 116.65 38.4954 116.942 38.4954Z" fill="#B3B3B3"/>
<path d="M119.637 38.4954C119.929 38.4954 120.165 38.259 120.165 37.9674C120.165 37.6758 119.929 37.4394 119.637 37.4394C119.346 37.4394 119.109 37.6758 119.109 37.9674C119.109 38.259 119.346 38.4954 119.637 38.4954Z" fill="#B3B3B3"/>
<path d="M120.989 38.4954C121.281 38.4954 121.517 38.259 121.517 37.9674C121.517 37.6758 121.281 37.4394 120.989 37.4394C120.697 37.4394 120.461 37.6758 120.461 37.9674C120.461 38.259 120.697 38.4954 120.989 38.4954Z" fill="#B3B3B3"/>
<path d="M122.317 38.4954C122.609 38.4954 122.845 38.259 122.845 37.9674C122.845 37.6758 122.609 37.4394 122.317 37.4394C122.025 37.4394 121.789 37.6758 121.789 37.9674C121.789 38.259 122.025 38.4954 122.317 38.4954Z" fill="#B3B3B3"/>
<path d="M116.942 35.7688C117.234 35.7688 117.47 35.5325 117.47 35.2409C117.47 34.9492 117.234 34.7129 116.942 34.7129C116.65 34.7129 116.414 34.9492 116.414 35.2409C116.414 35.5325 116.65 35.7688 116.942 35.7688Z" fill="#B3B3B3"/>
<path d="M119.637 35.7688C119.929 35.7688 120.165 35.5324 120.165 35.2408C120.165 34.9492 119.929 34.7128 119.637 34.7128C119.346 34.7128 119.109 34.9492 119.109 35.2408C119.109 35.5324 119.346 35.7688 119.637 35.7688Z" fill="#B3B3B3"/>
<path d="M120.989 35.7688C121.281 35.7688 121.517 35.5325 121.517 35.2409C121.517 34.9492 121.281 34.7129 120.989 34.7129C120.697 34.7129 120.461 34.9492 120.461 35.2409C120.461 35.5325 120.697 35.7688 120.989 35.7688Z" fill="#B3B3B3"/>
<path d="M122.317 35.7688C122.609 35.7688 122.845 35.5325 122.845 35.2409C122.845 34.9492 122.609 34.7129 122.317 34.7129C122.025 34.7129 121.789 34.9492 121.789 35.2409C121.789 35.5325 122.025 35.7688 122.317 35.7688Z" fill="#B3B3B3"/>
<path d="M116.942 34.4457C117.234 34.4457 117.47 34.2093 117.47 33.9177C117.47 33.6261 117.234 33.3897 116.942 33.3897C116.65 33.3897 116.414 33.6261 116.414 33.9177C116.414 34.2093 116.65 34.4457 116.942 34.4457Z" fill="#B3B3B3"/>
<path d="M119.637 34.4458C119.929 34.4458 120.165 34.2094 120.165 33.9178C120.165 33.6262 119.929 33.3898 119.637 33.3898C119.346 33.3898 119.109 33.6262 119.109 33.9178C119.109 34.2094 119.346 34.4458 119.637 34.4458Z" fill="#B3B3B3"/>
<path d="M122.317 34.4457C122.609 34.4457 122.845 34.2093 122.845 33.9177C122.845 33.6261 122.609 33.3897 122.317 33.3897C122.025 33.3897 121.789 33.6261 121.789 33.9177C121.789 34.2093 122.025 34.4457 122.317 34.4457Z" fill="#B3B3B3"/>
<path d="M116.942 33.0817C117.234 33.0817 117.47 32.8454 117.47 32.5537C117.47 32.2621 117.234 32.0258 116.942 32.0258C116.65 32.0258 116.414 32.2621 116.414 32.5537C116.414 32.8454 116.65 33.0817 116.942 33.0817Z" fill="#B3B3B3"/>
<path d="M118.262 33.0817C118.554 33.0817 118.79 32.8453 118.79 32.5537C118.79 32.2621 118.554 32.0257 118.262 32.0257C117.971 32.0257 117.734 32.2621 117.734 32.5537C117.734 32.8453 117.971 33.0817 118.262 33.0817Z" fill="#B3B3B3"/>
<path d="M119.637 33.0817C119.929 33.0817 120.165 32.8453 120.165 32.5537C120.165 32.2621 119.929 32.0257 119.637 32.0257C119.346 32.0257 119.109 32.2621 119.109 32.5537C119.109 32.8453 119.346 33.0817 119.637 33.0817Z" fill="#B3B3B3"/>
<path d="M120.989 33.0817C121.281 33.0817 121.517 32.8454 121.517 32.5537C121.517 32.2621 121.281 32.0258 120.989 32.0258C120.697 32.0258 120.461 32.2621 120.461 32.5537C120.461 32.8454 120.697 33.0817 120.989 33.0817Z" fill="#B3B3B3"/>
<path d="M122.317 33.0817C122.609 33.0817 122.845 32.8454 122.845 32.5537C122.845 32.2621 122.609 32.0258 122.317 32.0258C122.025 32.0258 121.789 32.2621 121.789 32.5537C121.789 32.8454 122.025 33.0817 122.317 33.0817Z" fill="#B3B3B3"/>
<path d="M116.942 30.3984C117.234 30.3984 117.47 30.162 117.47 29.8704C117.47 29.5788 117.234 29.3424 116.942 29.3424C116.65 29.3424 116.414 29.5788 116.414 29.8704C116.414 30.162 116.65 30.3984 116.942 30.3984Z" fill="#B3B3B3"/>
<path d="M116.942 29.0357C117.234 29.0357 117.47 28.7993 117.47 28.5077C117.47 28.2161 117.234 27.9797 116.942 27.9797C116.65 27.9797 116.414 28.2161 116.414 28.5077C116.414 28.7993 116.65 29.0357 116.942 29.0357Z" fill="#B3B3B3"/>
<path d="M116.942 27.6693C117.234 27.6693 117.47 27.4329 117.47 27.1413C117.47 26.8497 117.234 26.6133 116.942 26.6133C116.65 26.6133 116.414 26.8497 116.414 27.1413C116.414 27.4329 116.65 27.6693 116.942 27.6693Z" fill="#B3B3B3"/>
<path d="M118.262 27.6692C118.554 27.6692 118.79 27.4328 118.79 27.1412C118.79 26.8496 118.554 26.6132 118.262 26.6132C117.971 26.6132 117.734 26.8496 117.734 27.1412C117.734 27.4328 117.971 27.6692 118.262 27.6692Z" fill="#B3B3B3"/>
<path d="M119.637 27.6692C119.929 27.6692 120.165 27.4328 120.165 27.1412C120.165 26.8496 119.929 26.6132 119.637 26.6132C119.346 26.6132 119.109 26.8496 119.109 27.1412C119.109 27.4328 119.346 27.6692 119.637 27.6692Z" fill="#B3B3B3"/>
<path d="M120.989 27.6693C121.281 27.6693 121.517 27.4329 121.517 27.1413C121.517 26.8497 121.281 26.6133 120.989 26.6133C120.697 26.6133 120.461 26.8497 120.461 27.1413C120.461 27.4329 120.697 27.6693 120.989 27.6693Z" fill="#B3B3B3"/>
<path d="M122.317 27.6693C122.609 27.6693 122.845 27.4329 122.845 27.1413C122.845 26.8497 122.609 26.6133 122.317 26.6133C122.025 26.6133 121.789 26.8497 121.789 27.1413C121.789 27.4329 122.025 27.6693 122.317 27.6693Z" fill="#B3B3B3"/>
<path d="M116.942 24.982C117.234 24.982 117.47 24.7456 117.47 24.454C117.47 24.1624 117.234 23.926 116.942 23.926C116.65 23.926 116.414 24.1624 116.414 24.454C116.414 24.7456 116.65 24.982 116.942 24.982Z" fill="#B3B3B3"/>
<path d="M118.262 24.982C118.554 24.982 118.79 24.7456 118.79 24.454C118.79 24.1624 118.554 23.926 118.262 23.926C117.971 23.926 117.734 24.1624 117.734 24.454C117.734 24.7456 117.971 24.982 118.262 24.982Z" fill="#B3B3B3"/>
<path d="M119.637 24.982C119.929 24.982 120.165 24.7456 120.165 24.454C120.165 24.1624 119.929 23.926 119.637 23.926C119.346 23.926 119.109 24.1624 119.109 24.454C119.109 24.7456 119.346 24.982 119.637 24.982Z" fill="#B3B3B3"/>
<path d="M120.989 24.982C121.281 24.982 121.517 24.7456 121.517 24.454C121.517 24.1624 121.281 23.926 120.989 23.926C120.697 23.926 120.461 24.1624 120.461 24.454C120.461 24.7456 120.697 24.982 120.989 24.982Z" fill="#B3B3B3"/>
<path d="M122.317 24.982C122.609 24.982 122.845 24.7456 122.845 24.454C122.845 24.1624 122.609 23.926 122.317 23.926C122.025 23.926 121.789 24.1624 121.789 24.454C121.789 24.7456 122.025 24.982 122.317 24.982Z" fill="#B3B3B3"/>
<path d="M116.942 23.6219C117.234 23.6219 117.47 23.3855 117.47 23.0939C117.47 22.8023 117.234 22.5659 116.942 22.5659C116.65 22.5659 116.414 22.8023 116.414 23.0939C116.414 23.3855 116.65 23.6219 116.942 23.6219Z" fill="#B3B3B3"/>
<path d="M119.637 23.6219C119.929 23.6219 120.165 23.3855 120.165 23.0939C120.165 22.8023 119.929 22.5659 119.637 22.5659C119.346 22.5659 119.109 22.8023 119.109 23.0939C119.109 23.3855 119.346 23.6219 119.637 23.6219Z" fill="#B3B3B3"/>
<path d="M122.317 23.6219C122.609 23.6219 122.845 23.3855 122.845 23.0939C122.845 22.8023 122.609 22.5659 122.317 22.5659C122.025 22.5659 121.789 22.8023 121.789 23.0939C121.789 23.3855 122.025 23.6219 122.317 23.6219Z" fill="#B3B3B3"/>
<path d="M116.942 22.2554C117.234 22.2554 117.47 22.0191 117.47 21.7275C117.47 21.4359 117.234 21.1995 116.942 21.1995C116.65 21.1995 116.414 21.4359 116.414 21.7275C116.414 22.0191 116.65 22.2554 116.942 22.2554Z" fill="#B3B3B3"/>
<path d="M118.262 22.2555C118.554 22.2555 118.79 22.0191 118.79 21.7275C118.79 21.4359 118.554 21.1995 118.262 21.1995C117.971 21.1995 117.734 21.4359 117.734 21.7275C117.734 22.0191 117.971 22.2555 118.262 22.2555Z" fill="#B3B3B3"/>
<path d="M119.637 22.2555C119.929 22.2555 120.165 22.0191 120.165 21.7275C120.165 21.4359 119.929 21.1995 119.637 21.1995C119.346 21.1995 119.109 21.4359 119.109 21.7275C119.109 22.0191 119.346 22.2555 119.637 22.2555Z" fill="#B3B3B3"/>
<path d="M120.989 22.2555C121.281 22.2555 121.517 22.0191 121.517 21.7275C121.517 21.4359 121.281 21.1995 120.989 21.1995C120.697 21.1995 120.461 21.4359 120.461 21.7275C120.461 22.0191 120.697 22.2555 120.989 22.2555Z" fill="#B3B3B3"/>
<path d="M122.317 22.2555C122.609 22.2555 122.845 22.0191 122.845 21.7275C122.845 21.4359 122.609 21.1995 122.317 21.1995C122.025 21.1995 121.789 21.4359 121.789 21.7275C121.789 22.0191 122.025 22.2555 122.317 22.2555Z" fill="#B3B3B3"/>
<path d="M116.942 19.5758C117.234 19.5758 117.47 19.3394 117.47 19.0478C117.47 18.7562 117.234 18.5198 116.942 18.5198C116.65 18.5198 116.414 18.7562 116.414 19.0478C116.414 19.3394 116.65 19.5758 116.942 19.5758Z" fill="#B3B3B3"/>
<path d="M118.262 19.5758C118.554 19.5758 118.79 19.3394 118.79 19.0478C118.79 18.7562 118.554 18.5198 118.262 18.5198C117.971 18.5198 117.734 18.7562 117.734 19.0478C117.734 19.3394 117.971 19.5758 118.262 19.5758Z" fill="#B3B3B3"/>
<path d="M119.637 19.5758C119.929 19.5758 120.165 19.3394 120.165 19.0478C120.165 18.7562 119.929 18.5198 119.637 18.5198C119.346 18.5198 119.109 18.7562 119.109 19.0478C119.109 19.3394 119.346 19.5758 119.637 19.5758Z" fill="#B3B3B3"/>
<path d="M122.317 19.5758C122.609 19.5758 122.845 19.3394 122.845 19.0478C122.845 18.7562 122.609 18.5198 122.317 18.5198C122.025 18.5198 121.789 18.7562 121.789 19.0478C121.789 19.3394 122.025 19.5758 122.317 19.5758Z" fill="#B3B3B3"/>
<path d="M116.942 18.2118C117.234 18.2118 117.47 17.9754 117.47 17.6838C117.47 17.3922 117.234 17.1559 116.942 17.1559C116.65 17.1559 116.414 17.3922 116.414 17.6838C116.414 17.9754 116.65 18.2118 116.942 18.2118Z" fill="#B3B3B3"/>
<path d="M119.637 18.2118C119.929 18.2118 120.165 17.9754 120.165 17.6838C120.165 17.3922 119.929 17.1558 119.637 17.1558C119.346 17.1558 119.109 17.3922 119.109 17.6838C119.109 17.9754 119.346 18.2118 119.637 18.2118Z" fill="#B3B3B3"/>
<path d="M122.317 18.2118C122.609 18.2118 122.845 17.9754 122.845 17.6838C122.845 17.3922 122.609 17.1559 122.317 17.1559C122.025 17.1559 121.789 17.3922 121.789 17.6838C121.789 17.9754 122.025 18.2118 122.317 18.2118Z" fill="#B3B3B3"/>
<path d="M116.942 16.8922C117.234 16.8922 117.47 16.6558 117.47 16.3642C117.47 16.0726 117.234 15.8362 116.942 15.8362C116.65 15.8362 116.414 16.0726 116.414 16.3642C116.414 16.6558 116.65 16.8922 116.942 16.8922Z" fill="#B3B3B3"/>
<path d="M118.262 16.8922C118.554 16.8922 118.79 16.6558 118.79 16.3642C118.79 16.0726 118.554 15.8362 118.262 15.8362C117.971 15.8362 117.734 16.0726 117.734 16.3642C117.734 16.6558 117.971 16.8922 118.262 16.8922Z" fill="#B3B3B3"/>
<path d="M119.637 16.8922C119.929 16.8922 120.165 16.6558 120.165 16.3642C120.165 16.0726 119.929 15.8362 119.637 15.8362C119.346 15.8362 119.109 16.0726 119.109 16.3642C119.109 16.6558 119.346 16.8922 119.637 16.8922Z" fill="#B3B3B3"/>
<path d="M120.989 16.8922C121.281 16.8922 121.517 16.6558 121.517 16.3642C121.517 16.0726 121.281 15.8362 120.989 15.8362C120.697 15.8362 120.461 16.0726 120.461 16.3642C120.461 16.6558 120.697 16.8922 120.989 16.8922Z" fill="#B3B3B3"/>
<path d="M122.317 16.8922C122.609 16.8922 122.845 16.6558 122.845 16.3642C122.845 16.0726 122.609 15.8362 122.317 15.8362C122.025 15.8362 121.789 16.0726 121.789 16.3642C121.789 16.6558 122.025 16.8922 122.317 16.8922Z" fill="#B3B3B3"/>
<path d="M116.942 14.1658C117.234 14.1658 117.47 13.9294 117.47 13.6378C117.47 13.3462 117.234 13.1098 116.942 13.1098C116.65 13.1098 116.414 13.3462 116.414 13.6378C116.414 13.9294 116.65 14.1658 116.942 14.1658Z" fill="#B3B3B3"/>
<path d="M118.262 14.1658C118.554 14.1658 118.79 13.9294 118.79 13.6378C118.79 13.3462 118.554 13.1098 118.262 13.1098C117.971 13.1098 117.734 13.3462 117.734 13.6378C117.734 13.9294 117.971 14.1658 118.262 14.1658Z" fill="#B3B3B3"/>
<path d="M119.637 14.1658C119.929 14.1658 120.165 13.9294 120.165 13.6378C120.165 13.3462 119.929 13.1098 119.637 13.1098C119.346 13.1098 119.109 13.3462 119.109 13.6378C119.109 13.9294 119.346 14.1658 119.637 14.1658Z" fill="#B3B3B3"/>
<path d="M120.989 14.1658C121.281 14.1658 121.517 13.9294 121.517 13.6378C121.517 13.3462 121.281 13.1098 120.989 13.1098C120.697 13.1098 120.461 13.3462 120.461 13.6378C120.461 13.9294 120.697 14.1658 120.989 14.1658Z" fill="#B3B3B3"/>
<path d="M122.317 14.1658C122.609 14.1658 122.845 13.9294 122.845 13.6378C122.845 13.3462 122.609 13.1098 122.317 13.1098C122.025 13.1098 121.789 13.3462 121.789 13.6378C121.789 13.9294 122.025 14.1658 122.317 14.1658Z" fill="#B3B3B3"/>
<path d="M116.942 12.8413C117.234 12.8413 117.47 12.6049 117.47 12.3133C117.47 12.0217 117.234 11.7853 116.942 11.7853C116.65 11.7853 116.414 12.0217 116.414 12.3133C116.414 12.6049 116.65 12.8413 116.942 12.8413Z" fill="#B3B3B3"/>
<path d="M122.317 12.8412C122.609 12.8412 122.845 12.6048 122.845 12.3132C122.845 12.0216 122.609 11.7852 122.317 11.7852C122.025 11.7852 121.789 12.0216 121.789 12.3132C121.789 12.6048 122.025 12.8412 122.317 12.8412Z" fill="#B3B3B3"/>
<path d="M116.942 11.4818C117.234 11.4818 117.47 11.2454 117.47 10.9538C117.47 10.6622 117.234 10.4258 116.942 10.4258C116.65 10.4258 116.414 10.6622 116.414 10.9538C116.414 11.2454 116.65 11.4818 116.942 11.4818Z" fill="#B3B3B3"/>
<path d="M118.262 11.4785C118.554 11.4785 118.79 11.2421 118.79 10.9505C118.79 10.6589 118.554 10.4225 118.262 10.4225C117.971 10.4225 117.734 10.6589 117.734 10.9505C117.734 11.2421 117.971 11.4785 118.262 11.4785Z" fill="#B3B3B3"/>
<path d="M119.637 11.4785C119.929 11.4785 120.165 11.2421 120.165 10.9505C120.165 10.6589 119.929 10.4225 119.637 10.4225C119.346 10.4225 119.109 10.6589 119.109 10.9505C119.109 11.2421 119.346 11.4785 119.637 11.4785Z" fill="#B3B3B3"/>
<path d="M120.989 11.4785C121.281 11.4785 121.517 11.2421 121.517 10.9505C121.517 10.6589 121.281 10.4225 120.989 10.4225C120.697 10.4225 120.461 10.6589 120.461 10.9505C120.461 11.2421 120.697 11.4785 120.989 11.4785Z" fill="#B3B3B3"/>
<path d="M122.317 11.4785C122.609 11.4785 122.845 11.2421 122.845 10.9505C122.845 10.6589 122.609 10.4225 122.317 10.4225C122.025 10.4225 121.789 10.6589 121.789 10.9505C121.789 11.2421 122.025 11.4785 122.317 11.4785Z" fill="#B3B3B3"/>
<path d="M63.7547 104.895H44.5548C43.6314 104.895 42.8828 105.643 42.8828 106.567C42.8828 107.49 43.6314 108.239 44.5548 108.239H63.7547C64.6781 108.239 65.4267 107.49 65.4267 106.567C65.4267 105.643 64.6781 104.895 63.7547 104.895Z" fill="#CECECE"/>
<path d="M69.4788 113.517H44.5548C43.6314 113.517 42.8828 114.266 42.8828 115.189C42.8828 116.113 43.6314 116.861 44.5548 116.861H69.4788C70.4022 116.861 71.1507 116.113 71.1507 115.189C71.1507 114.266 70.4022 113.517 69.4788 113.517Z" fill="#CECECE"/>
<path d="M72.8692 122.143H44.5548C43.6314 122.143 42.8828 122.892 42.8828 123.815C42.8828 124.739 43.6314 125.487 44.5548 125.487H72.8692C73.7926 125.487 74.5411 124.739 74.5411 123.815C74.5411 122.892 73.7926 122.143 72.8692 122.143Z" fill="#CECECE"/>
<path d="M64.2391 130.766H44.5548C43.6314 130.766 42.8828 131.514 42.8828 132.438C42.8828 133.361 43.6314 134.11 44.5548 134.11H64.2391C65.1625 134.11 65.911 133.361 65.911 132.438C65.911 131.514 65.1625 130.766 64.2391 130.766Z" fill="#CECECE"/>
<path d="M64.2391 139.392H44.5548C43.6314 139.392 42.8828 140.14 42.8828 141.064C42.8828 141.987 43.6314 142.736 44.5548 142.736H64.2391C65.1625 142.736 65.911 141.987 65.911 141.064C65.911 140.14 65.1625 139.392 64.2391 139.392Z" fill="#CECECE"/>
<path d="M112.669 130.766H92.9845C92.0611 130.766 91.3125 131.514 91.3125 132.438C91.3125 133.361 92.0611 134.11 92.9845 134.11H112.669C113.592 134.11 114.341 133.361 114.341 132.438C114.341 131.514 113.592 130.766 112.669 130.766Z" fill="#CECECE"/>
<path d="M112.669 139.392H92.9845C92.0611 139.392 91.3125 140.14 91.3125 141.064C91.3125 141.987 92.0611 142.736 92.9845 142.736H112.669C113.592 142.736 114.341 141.987 114.341 141.064C114.341 140.14 113.592 139.392 112.669 139.392Z" fill="#CECECE"/>
<path d="M28.7391 31.1491H9.53916C8.61575 31.1491 7.86719 31.8977 7.86719 32.8211C7.86719 33.7445 8.61576 34.4931 9.53916 34.4931H28.7391C29.6625 34.4931 30.4111 33.7445 30.4111 32.8211C30.4111 31.8977 29.6625 31.1491 28.7391 31.1491Z" fill="#CECECE"/>
<path d="M96.3572 5.23529H33.0766C30.0269 5.23529 27.5547 7.70753 27.5547 10.7572C27.5547 13.8069 30.0269 16.2791 33.0766 16.2791H96.3572C99.4068 16.2791 101.879 13.8069 101.879 10.7572C101.879 7.70753 99.4068 5.23529 96.3572 5.23529Z" fill="#CECECE"/>
<path d="M34.4631 39.7752H9.53916C8.61575 39.7752 7.86719 40.5237 7.86719 41.4471C7.86719 42.3706 8.61575 43.1191 9.53916 43.1191H34.4631C35.3866 43.1191 36.1351 42.3706 36.1351 41.4471C36.1351 40.5237 35.3866 39.7752 34.4631 39.7752Z" fill="#CECECE"/>
<path d="M37.8535 48.3976H9.53916C8.61575 48.3976 7.86719 49.1462 7.86719 50.0696C7.86719 50.993 8.61575 51.7416 9.53916 51.7416H37.8535C38.7769 51.7416 39.5255 50.993 39.5255 50.0696C39.5255 49.1462 38.7769 48.3976 37.8535 48.3976Z" fill="#CECECE"/>
<path d="M29.2235 57.0261H9.53916C8.61575 57.0261 7.86719 57.7747 7.86719 58.6981C7.86719 59.6215 8.61575 60.3701 9.53916 60.3701H29.2235C30.1469 60.3701 30.8954 59.6215 30.8954 58.6981C30.8954 57.7747 30.1469 57.0261 29.2235 57.0261Z" fill="#CECECE"/>
<path d="M29.2235 65.6485H9.53916C8.61575 65.6485 7.86719 66.3971 7.86719 67.3205C7.86719 68.2439 8.61575 68.9925 9.53916 68.9925H29.2235C30.1469 68.9925 30.8954 68.2439 30.8954 67.3205C30.8954 66.3971 30.1469 65.6485 29.2235 65.6485Z" fill="#CECECE"/>
<path d="M34.7397 142.292H9.42188V136.089C9.42188 131.997 12.7242 128.653 16.8631 128.653H27.2985C31.3934 128.653 34.7397 131.953 34.7397 136.089V142.292Z" fill="#424246"/>
<path d="M31.257 122.314C30.8167 122.138 30.2883 122.446 29.848 123.062V118.266C29.848 116.155 28.3069 114.483 26.4136 114.483H17.7395C15.8462 114.483 14.3051 116.199 14.3051 118.266V123.062C13.8648 122.446 13.3364 122.138 12.8961 122.314C12.2356 122.578 12.1035 123.854 12.5879 125.174C13.0282 126.494 13.9528 127.33 14.5693 127.066C14.6133 127.066 14.6133 127.022 14.6573 127.022C15.67 129.794 18.6201 131.818 22.0986 131.818C25.577 131.818 28.5271 129.794 29.5398 127.022C29.5838 127.022 29.5839 127.066 29.6279 127.066C30.2883 127.33 31.169 126.494 31.6093 125.174C32.0496 123.854 31.9175 122.578 31.257 122.314Z" fill="#E8E8E8"/>
<path d="M30.7373 112.723C30.6052 112.591 30.4291 112.503 30.297 112.415C30.341 112.283 30.385 112.107 30.385 111.975C30.297 111.095 29.0641 110.611 28.4477 110.347C25.9819 109.291 23.4281 108.455 20.7863 108.455C18.1444 108.455 15.4145 109.467 13.6532 111.623C12.4204 113.163 11.8039 115.143 11.1875 117.079C11.1875 117.123 12.1122 117.211 13.0808 117.299C12.9928 118.971 13.1689 120.511 13.2129 121.435C13.345 123.151 14.4898 124.515 14.4898 124.515C14.2697 123.239 14.2697 119.587 15.0622 117.475C15.3705 117.519 15.5466 117.519 15.6346 117.519C17.1757 117.519 18.7608 117.387 20.2579 117.079C22.1953 116.683 24.1326 116.067 25.9379 115.187C26.9506 115.231 29.1962 116.375 29.5925 117.783C29.9447 119.147 29.4604 124.427 29.4604 124.427C29.4604 124.427 31.0015 123.063 31.3978 118.971C31.8821 114.879 30.7373 112.723 30.7373 112.723Z" fill="#424246"/>
</svg>
