<svg width="230" height="166" viewBox="0 0 230 166" fill="none" xmlns="http://www.w3.org/2000/svg">
<g clip-path="url(#clip0_565_43883)">
<path d="M230 163.326L230 2.30121C230 1.02949 228.971 -4.50004e-08 227.699 -1.00589e-07L2.4827 -9.9451e-06C1.21098 -1.00007e-05 0.181503 1.02948 0.181503 2.3012L0.181496 163.326C0.181496 164.597 1.21098 165.627 2.48269 165.627L227.699 165.627C228.971 165.627 230 164.597 230 163.326Z" fill="#A6AFA9"/>
<path d="M227.148 162.783L227.148 2.84915L3.08299 2.84914L3.08299 162.783L227.148 162.783Z" fill="white"/>
<path d="M117.363 163.387L117.363 3.45303L116.576 3.45303L116.576 163.387L117.363 163.387Z" fill="#E6E6E6"/>
<path d="M132.988 153.031C132.988 153.399 133.286 153.697 133.654 153.697C134.022 153.697 134.32 153.399 134.32 153.031C134.32 152.663 134.022 152.365 133.654 152.365C133.286 152.365 132.988 152.663 132.988 153.031Z" fill="#B3B3B3"/>
<path d="M132.988 154.725C132.988 155.093 133.286 155.391 133.654 155.391C134.022 155.391 134.32 155.093 134.32 154.725C134.32 154.357 134.022 154.059 133.654 154.059C133.286 154.059 132.988 154.357 132.988 154.725Z" fill="#B3B3B3"/>
<path d="M132.988 156.484C132.988 156.852 133.286 157.15 133.654 157.15C134.022 157.15 134.32 156.852 134.32 156.484C134.32 156.116 134.022 155.818 133.654 155.818C133.286 155.818 132.988 156.116 132.988 156.484Z" fill="#B3B3B3"/>
<path d="M132.988 158.236C132.988 158.604 133.286 158.902 133.654 158.902C134.022 158.902 134.32 158.604 134.32 158.236C134.32 157.868 134.022 157.57 133.654 157.57C133.286 157.57 132.988 157.868 132.988 158.236Z" fill="#B3B3B3"/>
<path d="M134.738 151.274C134.738 151.642 135.036 151.94 135.404 151.94C135.772 151.94 136.07 151.642 136.07 151.274C136.07 150.906 135.772 150.607 135.404 150.607C135.036 150.607 134.738 150.906 134.738 151.274Z" fill="#B3B3B3"/>
<path d="M134.738 154.725C134.738 155.093 135.036 155.391 135.404 155.391C135.772 155.391 136.07 155.093 136.07 154.725C136.07 154.357 135.772 154.059 135.404 154.059C135.036 154.059 134.738 154.357 134.738 154.725Z" fill="#B3B3B3"/>
<path d="M136.5 151.274C136.5 151.642 136.798 151.94 137.166 151.94C137.534 151.94 137.832 151.642 137.832 151.274C137.832 150.906 137.534 150.607 137.166 150.607C136.798 150.607 136.5 150.906 136.5 151.274Z" fill="#B3B3B3"/>
<path d="M136.5 154.725C136.5 155.093 136.798 155.391 137.166 155.391C137.534 155.391 137.832 155.093 137.832 154.725C137.832 154.357 137.534 154.059 137.166 154.059C136.798 154.059 136.5 154.357 136.5 154.725Z" fill="#B3B3B3"/>
<path d="M138.254 153.031C138.254 153.399 138.552 153.697 138.92 153.697C139.288 153.697 139.586 153.399 139.586 153.031C139.586 152.663 139.288 152.365 138.92 152.365C138.552 152.365 138.254 152.663 138.254 153.031Z" fill="#B3B3B3"/>
<path d="M138.254 154.725C138.254 155.093 138.552 155.391 138.92 155.391C139.288 155.391 139.586 155.093 139.586 154.725C139.586 154.357 139.288 154.059 138.92 154.059C138.552 154.059 138.254 154.357 138.254 154.725Z" fill="#B3B3B3"/>
<path d="M138.254 156.484C138.254 156.852 138.552 157.15 138.92 157.15C139.288 157.15 139.586 156.852 139.586 156.484C139.586 156.116 139.288 155.818 138.92 155.818C138.552 155.818 138.254 156.116 138.254 156.484Z" fill="#B3B3B3"/>
<path d="M138.254 158.236C138.254 158.604 138.552 158.902 138.92 158.902C139.288 158.902 139.586 158.604 139.586 158.236C139.586 157.868 139.288 157.57 138.92 157.57C138.552 157.57 138.254 157.868 138.254 158.236Z" fill="#B3B3B3"/>
<path d="M141.773 153.031C141.773 153.399 142.071 153.697 142.439 153.697C142.807 153.697 143.105 153.399 143.105 153.031C143.105 152.663 142.807 152.365 142.439 152.365C142.071 152.365 141.773 152.663 141.773 153.031Z" fill="#B3B3B3"/>
<path d="M141.773 154.725C141.773 155.093 142.071 155.391 142.439 155.391C142.807 155.391 143.105 155.093 143.105 154.725C143.105 154.357 142.807 154.059 142.439 154.059C142.071 154.059 141.773 154.357 141.773 154.725Z" fill="#B3B3B3"/>
<path d="M141.773 156.484C141.773 156.852 142.071 157.15 142.439 157.15C142.807 157.15 143.105 156.852 143.105 156.484C143.105 156.116 142.807 155.818 142.439 155.818C142.071 155.818 141.773 156.116 141.773 156.484Z" fill="#B3B3B3"/>
<path d="M141.773 158.236C141.773 158.604 142.071 158.902 142.439 158.902C142.807 158.902 143.105 158.604 143.105 158.236C143.105 157.868 142.807 157.57 142.439 157.57C142.071 157.57 141.773 157.868 141.773 158.236Z" fill="#B3B3B3"/>
<path d="M143.465 151.274C143.465 151.642 143.763 151.94 144.131 151.94C144.499 151.94 144.797 151.642 144.797 151.274C144.797 150.906 144.499 150.607 144.131 150.607C143.763 150.607 143.465 150.906 143.465 151.274Z" fill="#B3B3B3"/>
<path d="M143.465 154.725C143.465 155.093 143.763 155.391 144.131 155.391C144.499 155.391 144.797 155.093 144.797 154.725C144.797 154.357 144.499 154.059 144.131 154.059C143.763 154.059 143.465 154.357 143.465 154.725Z" fill="#B3B3B3"/>
<path d="M145.219 151.274C145.219 151.642 145.517 151.94 145.885 151.94C146.253 151.94 146.551 151.642 146.551 151.274C146.551 150.906 146.253 150.607 145.885 150.607C145.517 150.607 145.219 150.906 145.219 151.274Z" fill="#B3B3B3"/>
<path d="M145.219 154.725C145.219 155.093 145.517 155.391 145.885 155.391C146.253 155.391 146.551 155.093 146.551 154.725C146.551 154.357 146.253 154.059 145.885 154.059C145.517 154.059 145.219 154.357 145.219 154.725Z" fill="#B3B3B3"/>
<path d="M146.965 153.031C146.965 153.399 147.263 153.697 147.631 153.697C147.999 153.697 148.297 153.399 148.297 153.031C148.297 152.663 147.999 152.365 147.631 152.365C147.263 152.365 146.965 152.663 146.965 153.031Z" fill="#B3B3B3"/>
<path d="M146.965 154.725C146.965 155.093 147.263 155.391 147.631 155.391C147.999 155.391 148.297 155.093 148.297 154.725C148.297 154.357 147.999 154.059 147.631 154.059C147.263 154.059 146.965 154.357 146.965 154.725Z" fill="#B3B3B3"/>
<path d="M146.965 156.484C146.965 156.852 147.263 157.15 147.631 157.15C147.999 157.15 148.297 156.852 148.297 156.484C148.297 156.116 147.999 155.818 147.631 155.818C147.263 155.818 146.965 156.116 146.965 156.484Z" fill="#B3B3B3"/>
<path d="M146.965 158.236C146.965 158.604 147.263 158.902 147.631 158.902C147.999 158.902 148.297 158.604 148.297 158.236C148.297 157.868 147.999 157.57 147.631 157.57C147.263 157.57 146.965 157.868 146.965 158.236Z" fill="#B3B3B3"/>
<path d="M150.484 153.031C150.484 153.399 150.782 153.697 151.15 153.697C151.518 153.697 151.816 153.399 151.816 153.031C151.816 152.663 151.518 152.365 151.15 152.365C150.782 152.365 150.484 152.663 150.484 153.031Z" fill="#B3B3B3"/>
<path d="M152.246 151.274C152.246 151.642 152.544 151.94 152.912 151.94C153.28 151.94 153.578 151.642 153.578 151.274C153.578 150.906 153.28 150.607 152.912 150.607C152.544 150.607 152.246 150.906 152.246 151.274Z" fill="#B3B3B3"/>
<path d="M152.246 153.031C152.246 153.399 152.544 153.697 152.912 153.697C153.28 153.697 153.578 153.399 153.578 153.031C153.578 152.663 153.28 152.365 152.912 152.365C152.544 152.365 152.246 152.663 152.246 153.031Z" fill="#B3B3B3"/>
<path d="M152.246 154.725C152.246 155.093 152.544 155.391 152.912 155.391C153.28 155.391 153.578 155.093 153.578 154.725C153.578 154.357 153.28 154.059 152.912 154.059C152.544 154.059 152.246 154.357 152.246 154.725Z" fill="#B3B3B3"/>
<path d="M152.246 156.484C152.246 156.852 152.544 157.15 152.912 157.15C153.28 157.15 153.578 156.852 153.578 156.484C153.578 156.116 153.28 155.818 152.912 155.818C152.544 155.818 152.246 156.116 152.246 156.484Z" fill="#B3B3B3"/>
<path d="M152.246 158.236C152.246 158.604 152.544 158.902 152.912 158.902C153.28 158.902 153.578 158.604 153.578 158.236C153.578 157.868 153.28 157.57 152.912 157.57C152.544 157.57 152.246 157.868 152.246 158.236Z" fill="#B3B3B3"/>
<path d="M155.695 151.274C155.695 151.642 155.993 151.94 156.361 151.94C156.729 151.94 157.027 151.642 157.027 151.274C157.027 150.906 156.729 150.607 156.361 150.607C155.993 150.607 155.695 150.906 155.695 151.274Z" fill="#B3B3B3"/>
<path d="M155.695 154.725C155.695 155.093 155.993 155.391 156.361 155.391C156.729 155.391 157.027 155.093 157.027 154.725C157.027 154.357 156.729 154.059 156.361 154.059C155.993 154.059 155.695 154.357 155.695 154.725Z" fill="#B3B3B3"/>
<path d="M155.695 156.484C155.695 156.852 155.993 157.15 156.361 157.15C156.729 157.15 157.027 156.852 157.027 156.484C157.027 156.116 156.729 155.818 156.361 155.818C155.993 155.818 155.695 156.116 155.695 156.484Z" fill="#B3B3B3"/>
<path d="M155.695 158.236C155.695 158.604 155.993 158.902 156.361 158.902C156.729 158.902 157.027 158.604 157.027 158.236C157.027 157.868 156.729 157.57 156.361 157.57C155.993 157.57 155.695 157.868 155.695 158.236Z" fill="#B3B3B3"/>
<path d="M157.453 151.274C157.453 151.642 157.751 151.94 158.119 151.94C158.487 151.94 158.785 151.642 158.785 151.274C158.785 150.906 158.487 150.607 158.119 150.607C157.751 150.607 157.453 150.906 157.453 151.274Z" fill="#B3B3B3"/>
<path d="M157.453 154.725C157.453 155.093 157.751 155.391 158.119 155.391C158.487 155.391 158.785 155.093 158.785 154.725C158.785 154.357 158.487 154.059 158.119 154.059C157.751 154.059 157.453 154.357 157.453 154.725Z" fill="#B3B3B3"/>
<path d="M157.453 158.236C157.453 158.604 157.751 158.902 158.119 158.902C158.487 158.902 158.785 158.604 158.785 158.236C158.785 157.868 158.487 157.57 158.119 157.57C157.751 157.57 157.453 157.868 157.453 158.236Z" fill="#B3B3B3"/>
<path d="M159.211 151.274C159.211 151.642 159.509 151.94 159.877 151.94C160.245 151.94 160.543 151.642 160.543 151.274C160.543 150.906 160.245 150.607 159.877 150.607C159.509 150.607 159.211 150.906 159.211 151.274Z" fill="#B3B3B3"/>
<path d="M159.211 153.031C159.211 153.399 159.509 153.697 159.877 153.697C160.245 153.697 160.543 153.399 160.543 153.031C160.543 152.663 160.245 152.365 159.877 152.365C159.509 152.365 159.211 152.663 159.211 153.031Z" fill="#B3B3B3"/>
<path d="M159.211 154.725C159.211 155.093 159.509 155.391 159.877 155.391C160.245 155.391 160.543 155.093 160.543 154.725C160.543 154.357 160.245 154.059 159.877 154.059C159.509 154.059 159.211 154.357 159.211 154.725Z" fill="#B3B3B3"/>
<path d="M159.211 158.236C159.211 158.604 159.509 158.902 159.877 158.902C160.245 158.902 160.543 158.604 160.543 158.236C160.543 157.868 160.245 157.57 159.877 157.57C159.509 157.57 159.211 157.868 159.211 158.236Z" fill="#B3B3B3"/>
<path d="M162.719 151.274C162.719 151.642 163.017 151.94 163.385 151.94C163.753 151.94 164.051 151.642 164.051 151.274C164.051 150.906 163.753 150.607 163.385 150.607C163.017 150.607 162.719 150.906 162.719 151.274Z" fill="#B3B3B3"/>
<path d="M162.719 154.725C162.719 155.093 163.017 155.391 163.385 155.391C163.753 155.391 164.051 155.093 164.051 154.725C164.051 154.357 163.753 154.059 163.385 154.059C163.017 154.059 162.719 154.357 162.719 154.725Z" fill="#B3B3B3"/>
<path d="M162.719 158.236C162.719 158.604 163.017 158.902 163.385 158.902C163.753 158.902 164.051 158.604 164.051 158.236C164.051 157.868 163.753 157.57 163.385 157.57C163.017 157.57 162.719 157.868 162.719 158.236Z" fill="#B3B3B3"/>
<path d="M164.48 151.274C164.48 151.642 164.778 151.94 165.146 151.94C165.514 151.94 165.812 151.642 165.812 151.274C165.812 150.906 165.514 150.607 165.146 150.607C164.778 150.607 164.48 150.906 164.48 151.274Z" fill="#B3B3B3"/>
<path d="M164.48 154.725C164.48 155.093 164.778 155.391 165.146 155.391C165.514 155.391 165.812 155.093 165.812 154.725C165.812 154.357 165.514 154.059 165.146 154.059C164.778 154.059 164.48 154.357 164.48 154.725Z" fill="#B3B3B3"/>
<path d="M164.48 158.236C164.48 158.604 164.778 158.902 165.146 158.902C165.514 158.902 165.812 158.604 165.812 158.236C165.812 157.868 165.514 157.57 165.146 157.57C164.778 157.57 164.48 157.868 164.48 158.236Z" fill="#B3B3B3"/>
<path d="M166.23 151.274C166.23 151.642 166.528 151.94 166.896 151.94C167.264 151.94 167.562 151.642 167.562 151.274C167.562 150.906 167.264 150.607 166.896 150.607C166.528 150.607 166.23 150.906 166.23 151.274Z" fill="#B3B3B3"/>
<path d="M166.23 153.031C166.23 153.399 166.528 153.697 166.896 153.697C167.264 153.697 167.562 153.399 167.562 153.031C167.562 152.663 167.264 152.365 166.896 152.365C166.528 152.365 166.23 152.663 166.23 153.031Z" fill="#B3B3B3"/>
<path d="M166.23 154.725C166.23 155.093 166.528 155.391 166.896 155.391C167.264 155.391 167.562 155.093 167.562 154.725C167.562 154.357 167.264 154.059 166.896 154.059C166.528 154.059 166.23 154.357 166.23 154.725Z" fill="#B3B3B3"/>
<path d="M166.23 156.484C166.23 156.852 166.528 157.15 166.896 157.15C167.264 157.15 167.562 156.852 167.562 156.484C167.562 156.116 167.264 155.818 166.896 155.818C166.528 155.818 166.23 156.116 166.23 156.484Z" fill="#B3B3B3"/>
<path d="M166.23 158.236C166.23 158.604 166.528 158.902 166.896 158.902C167.264 158.902 167.562 158.604 167.562 158.236C167.562 157.868 167.264 157.57 166.896 157.57C166.528 157.57 166.23 157.868 166.23 158.236Z" fill="#B3B3B3"/>
<path d="M169.683 151.274C169.683 151.642 169.982 151.94 170.349 151.94C170.717 151.94 171.016 151.642 171.016 151.274C171.016 150.906 170.717 150.607 170.349 150.607C169.982 150.607 169.683 150.906 169.683 151.274Z" fill="#B3B3B3"/>
<path d="M169.683 153.031C169.683 153.399 169.982 153.697 170.349 153.697C170.717 153.697 171.016 153.399 171.016 153.031C171.016 152.663 170.717 152.365 170.349 152.365C169.982 152.365 169.683 152.663 169.683 153.031Z" fill="#B3B3B3"/>
<path d="M169.683 154.725C169.683 155.093 169.982 155.391 170.349 155.391C170.717 155.391 171.016 155.093 171.016 154.725C171.016 154.357 170.717 154.059 170.349 154.059C169.982 154.059 169.683 154.357 169.683 154.725Z" fill="#B3B3B3"/>
<path d="M171.445 153.031C171.445 153.399 171.743 153.697 172.111 153.697C172.479 153.697 172.777 153.399 172.777 153.031C172.777 152.663 172.479 152.365 172.111 152.365C171.743 152.365 171.445 152.663 171.445 153.031Z" fill="#B3B3B3"/>
<path d="M171.445 154.725C171.445 155.093 171.743 155.391 172.111 155.391C172.479 155.391 172.777 155.093 172.777 154.725C172.777 154.357 172.479 154.059 172.111 154.059C171.743 154.059 171.445 154.357 171.445 154.725Z" fill="#B3B3B3"/>
<path d="M171.445 156.484C171.445 156.852 171.743 157.15 172.111 157.15C172.479 157.15 172.777 156.852 172.777 156.484C172.777 156.116 172.479 155.818 172.111 155.818C171.743 155.818 171.445 156.116 171.445 156.484Z" fill="#B3B3B3"/>
<path d="M171.445 158.236C171.445 158.604 171.743 158.902 172.111 158.902C172.479 158.902 172.777 158.604 172.777 158.236C172.777 157.868 172.479 157.57 172.111 157.57C171.743 157.57 171.445 157.868 171.445 158.236Z" fill="#B3B3B3"/>
<path d="M173.199 154.725C173.199 155.093 173.497 155.391 173.865 155.391C174.233 155.391 174.531 155.093 174.531 154.725C174.531 154.357 174.233 154.059 173.865 154.059C173.497 154.059 173.199 154.357 173.199 154.725Z" fill="#B3B3B3"/>
<path d="M176.707 151.274C176.707 151.642 177.005 151.94 177.373 151.94C177.741 151.94 178.039 151.642 178.039 151.274C178.039 150.906 177.741 150.607 177.373 150.607C177.005 150.607 176.707 150.906 176.707 151.274Z" fill="#B3B3B3"/>
<path d="M176.707 153.031C176.707 153.399 177.005 153.697 177.373 153.697C177.741 153.697 178.039 153.399 178.039 153.031C178.039 152.663 177.741 152.365 177.373 152.365C177.005 152.365 176.707 152.663 176.707 153.031Z" fill="#B3B3B3"/>
<path d="M176.707 154.725C176.707 155.093 177.005 155.391 177.373 155.391C177.741 155.391 178.039 155.093 178.039 154.725C178.039 154.357 177.741 154.059 177.373 154.059C177.005 154.059 176.707 154.357 176.707 154.725Z" fill="#B3B3B3"/>
<path d="M176.707 158.236C176.707 158.604 177.005 158.902 177.373 158.902C177.741 158.902 178.039 158.604 178.039 158.236C178.039 157.868 177.741 157.57 177.373 157.57C177.005 157.57 176.707 157.868 176.707 158.236Z" fill="#B3B3B3"/>
<path d="M178.461 151.274C178.461 151.642 178.759 151.94 179.127 151.94C179.495 151.94 179.793 151.642 179.793 151.274C179.793 150.906 179.495 150.607 179.127 150.607C178.759 150.607 178.461 150.906 178.461 151.274Z" fill="#B3B3B3"/>
<path d="M178.461 154.725C178.461 155.093 178.759 155.391 179.127 155.391C179.495 155.391 179.793 155.093 179.793 154.725C179.793 154.357 179.495 154.059 179.127 154.059C178.759 154.059 178.461 154.357 178.461 154.725Z" fill="#B3B3B3"/>
<path d="M178.461 158.236C178.461 158.604 178.759 158.902 179.127 158.902C179.495 158.902 179.793 158.604 179.793 158.236C179.793 157.868 179.495 157.57 179.127 157.57C178.759 157.57 178.461 157.868 178.461 158.236Z" fill="#B3B3B3"/>
<path d="M180.226 151.274C180.226 151.642 180.525 151.94 180.892 151.94C181.26 151.94 181.559 151.642 181.559 151.274C181.559 150.906 181.26 150.607 180.892 150.607C180.525 150.607 180.226 150.906 180.226 151.274Z" fill="#B3B3B3"/>
<path d="M180.226 154.725C180.226 155.093 180.525 155.391 180.892 155.391C181.26 155.391 181.559 155.093 181.559 154.725C181.559 154.357 181.26 154.059 180.892 154.059C180.525 154.059 180.226 154.357 180.226 154.725Z" fill="#B3B3B3"/>
<path d="M180.226 156.484C180.226 156.852 180.525 157.15 180.892 157.15C181.26 157.15 181.559 156.852 181.559 156.484C181.559 156.116 181.26 155.818 180.892 155.818C180.525 155.818 180.226 156.116 180.226 156.484Z" fill="#B3B3B3"/>
<path d="M180.226 158.236C180.226 158.604 180.525 158.902 180.892 158.902C181.26 158.902 181.559 158.604 181.559 158.236C181.559 157.868 181.26 157.57 180.892 157.57C180.525 157.57 180.226 157.868 180.226 158.236Z" fill="#B3B3B3"/>
<path d="M183.672 151.274C183.672 151.642 183.97 151.94 184.338 151.94C184.706 151.94 185.004 151.642 185.004 151.274C185.004 150.906 184.706 150.607 184.338 150.607C183.97 150.607 183.672 150.906 183.672 151.274Z" fill="#B3B3B3"/>
<path d="M183.672 154.725C183.672 155.093 183.97 155.391 184.338 155.391C184.706 155.391 185.004 155.093 185.004 154.725C185.004 154.357 184.706 154.059 184.338 154.059C183.97 154.059 183.672 154.357 183.672 154.725Z" fill="#B3B3B3"/>
<path d="M183.672 156.484C183.672 156.852 183.97 157.15 184.338 157.15C184.706 157.15 185.004 156.852 185.004 156.484C185.004 156.116 184.706 155.818 184.338 155.818C183.97 155.818 183.672 156.116 183.672 156.484Z" fill="#B3B3B3"/>
<path d="M183.672 158.236C183.672 158.604 183.97 158.902 184.338 158.902C184.706 158.902 185.004 158.604 185.004 158.236C185.004 157.868 184.706 157.57 184.338 157.57C183.97 157.57 183.672 157.868 183.672 158.236Z" fill="#B3B3B3"/>
<path d="M185.418 151.274C185.418 151.642 185.716 151.94 186.084 151.94C186.452 151.94 186.75 151.642 186.75 151.274C186.75 150.906 186.452 150.607 186.084 150.607C185.716 150.607 185.418 150.906 185.418 151.274Z" fill="#B3B3B3"/>
<path d="M185.418 154.725C185.418 155.093 185.716 155.391 186.084 155.391C186.452 155.391 186.75 155.093 186.75 154.725C186.75 154.357 186.452 154.059 186.084 154.059C185.716 154.059 185.418 154.357 185.418 154.725Z" fill="#B3B3B3"/>
<path d="M185.418 158.236C185.418 158.604 185.716 158.902 186.084 158.902C186.452 158.902 186.75 158.604 186.75 158.236C186.75 157.868 186.452 157.57 186.084 157.57C185.716 157.57 185.418 157.868 185.418 158.236Z" fill="#B3B3B3"/>
<path d="M187.183 151.274C187.183 151.642 187.482 151.94 187.849 151.94C188.217 151.94 188.516 151.642 188.516 151.274C188.516 150.906 188.217 150.607 187.849 150.607C187.482 150.607 187.183 150.906 187.183 151.274Z" fill="#B3B3B3"/>
<path d="M187.183 153.031C187.183 153.399 187.482 153.697 187.849 153.697C188.217 153.697 188.516 153.399 188.516 153.031C188.516 152.663 188.217 152.365 187.849 152.365C187.482 152.365 187.183 152.663 187.183 153.031Z" fill="#B3B3B3"/>
<path d="M187.183 154.725C187.183 155.093 187.482 155.391 187.849 155.391C188.217 155.391 188.516 155.093 188.516 154.725C188.516 154.357 188.217 154.059 187.849 154.059C187.482 154.059 187.183 154.357 187.183 154.725Z" fill="#B3B3B3"/>
<path d="M187.183 156.484C187.183 156.852 187.482 157.15 187.849 157.15C188.217 157.15 188.516 156.852 188.516 156.484C188.516 156.116 188.217 155.818 187.849 155.818C187.482 155.818 187.183 156.116 187.183 156.484Z" fill="#B3B3B3"/>
<path d="M187.183 158.236C187.183 158.604 187.482 158.902 187.849 158.902C188.217 158.902 188.516 158.604 188.516 158.236C188.516 157.868 188.217 157.57 187.849 157.57C187.482 157.57 187.183 157.868 187.183 158.236Z" fill="#B3B3B3"/>
<path d="M190.691 151.274C190.691 151.642 190.989 151.94 191.357 151.94C191.725 151.94 192.023 151.642 192.023 151.274C192.023 150.906 191.725 150.607 191.357 150.607C190.989 150.607 190.691 150.906 190.691 151.274Z" fill="#B3B3B3"/>
<path d="M192.457 151.274C192.457 151.642 192.755 151.94 193.123 151.94C193.491 151.94 193.789 151.642 193.789 151.274C193.789 150.906 193.491 150.607 193.123 150.607C192.755 150.607 192.457 150.906 192.457 151.274Z" fill="#B3B3B3"/>
<path d="M194.203 151.274C194.203 151.642 194.501 151.94 194.869 151.94C195.237 151.94 195.535 151.642 195.535 151.274C195.535 150.906 195.237 150.607 194.869 150.607C194.501 150.607 194.203 150.906 194.203 151.274Z" fill="#B3B3B3"/>
<path d="M194.203 153.031C194.203 153.399 194.501 153.697 194.869 153.697C195.237 153.697 195.535 153.399 195.535 153.031C195.535 152.663 195.237 152.365 194.869 152.365C194.501 152.365 194.203 152.663 194.203 153.031Z" fill="#B3B3B3"/>
<path d="M194.203 154.725C194.203 155.093 194.501 155.391 194.869 155.391C195.237 155.391 195.535 155.093 195.535 154.725C195.535 154.357 195.237 154.059 194.869 154.059C194.501 154.059 194.203 154.357 194.203 154.725Z" fill="#B3B3B3"/>
<path d="M194.203 156.484C194.203 156.852 194.501 157.15 194.869 157.15C195.237 157.15 195.535 156.852 195.535 156.484C195.535 156.116 195.237 155.818 194.869 155.818C194.501 155.818 194.203 156.116 194.203 156.484Z" fill="#B3B3B3"/>
<path d="M194.203 158.236C194.203 158.604 194.501 158.902 194.869 158.902C195.237 158.902 195.535 158.604 195.535 158.236C195.535 157.868 195.237 157.57 194.869 157.57C194.501 157.57 194.203 157.868 194.203 158.236Z" fill="#B3B3B3"/>
<path d="M197.668 151.274C197.668 151.642 197.966 151.94 198.334 151.94C198.702 151.94 199 151.642 199 151.274C199 150.906 198.702 150.607 198.334 150.607C197.966 150.607 197.668 150.906 197.668 151.274Z" fill="#B3B3B3"/>
<path d="M197.664 153.031C197.664 153.399 197.962 153.697 198.33 153.697C198.698 153.697 198.996 153.399 198.996 153.031C198.996 152.663 198.698 152.365 198.33 152.365C197.962 152.365 197.664 152.663 197.664 153.031Z" fill="#B3B3B3"/>
<path d="M197.664 154.725C197.664 155.093 197.962 155.391 198.33 155.391C198.698 155.391 198.996 155.093 198.996 154.725C198.996 154.357 198.698 154.059 198.33 154.059C197.962 154.059 197.664 154.357 197.664 154.725Z" fill="#B3B3B3"/>
<path d="M197.664 156.484C197.664 156.852 197.962 157.15 198.33 157.15C198.698 157.15 198.996 156.852 198.996 156.484C198.996 156.116 198.698 155.818 198.33 155.818C197.962 155.818 197.664 156.116 197.664 156.484Z" fill="#B3B3B3"/>
<path d="M197.664 158.236C197.664 158.604 197.962 158.902 198.33 158.902C198.698 158.902 198.996 158.604 198.996 158.236C198.996 157.868 198.698 157.57 198.33 157.57C197.962 157.57 197.664 157.868 197.664 158.236Z" fill="#B3B3B3"/>
<path d="M199.418 151.274C199.418 151.642 199.716 151.94 200.084 151.94C200.452 151.94 200.75 151.642 200.75 151.274C200.75 150.906 200.452 150.607 200.084 150.607C199.716 150.607 199.418 150.906 199.418 151.274Z" fill="#B3B3B3"/>
<path d="M199.418 154.725C199.418 155.093 199.716 155.391 200.084 155.391C200.452 155.391 200.75 155.093 200.75 154.725C200.75 154.357 200.452 154.059 200.084 154.059C199.716 154.059 199.418 154.357 199.418 154.725Z" fill="#B3B3B3"/>
<path d="M199.418 158.236C199.418 158.604 199.716 158.902 200.084 158.902C200.452 158.902 200.75 158.604 200.75 158.236C200.75 157.868 200.452 157.57 200.084 157.57C199.716 157.57 199.418 157.868 199.418 158.236Z" fill="#B3B3B3"/>
<path d="M201.168 151.274C201.168 151.642 201.466 151.94 201.834 151.94C202.202 151.94 202.5 151.642 202.5 151.274C202.5 150.906 202.202 150.607 201.834 150.607C201.466 150.607 201.168 150.906 201.168 151.274Z" fill="#B3B3B3"/>
<path d="M201.168 153.031C201.168 153.399 201.466 153.697 201.834 153.697C202.202 153.697 202.5 153.399 202.5 153.031C202.5 152.663 202.202 152.365 201.834 152.365C201.466 152.365 201.168 152.663 201.168 153.031Z" fill="#B3B3B3"/>
<path d="M201.168 154.725C201.168 155.093 201.466 155.391 201.834 155.391C202.202 155.391 202.5 155.093 202.5 154.725C202.5 154.357 202.202 154.059 201.834 154.059C201.466 154.059 201.168 154.357 201.168 154.725Z" fill="#B3B3B3"/>
<path d="M201.168 156.484C201.168 156.852 201.466 157.15 201.834 157.15C202.202 157.15 202.5 156.852 202.5 156.484C202.5 156.116 202.202 155.818 201.834 155.818C201.466 155.818 201.168 156.116 201.168 156.484Z" fill="#B3B3B3"/>
<path d="M201.168 158.236C201.168 158.604 201.466 158.902 201.834 158.902C202.202 158.902 202.5 158.604 202.5 158.236C202.5 157.868 202.202 157.57 201.834 157.57C201.466 157.57 201.168 157.868 201.168 158.236Z" fill="#B3B3B3"/>
<path d="M204.683 151.274C204.683 151.642 204.982 151.94 205.349 151.94C205.717 151.94 206.016 151.642 206.016 151.274C206.016 150.906 205.717 150.607 205.349 150.607C204.982 150.607 204.683 150.906 204.683 151.274Z" fill="#B3B3B3"/>
<path d="M204.683 153.031C204.683 153.399 204.982 153.697 205.349 153.697C205.717 153.697 206.016 153.399 206.016 153.031C206.016 152.663 205.717 152.365 205.349 152.365C204.982 152.365 204.683 152.663 204.683 153.031Z" fill="#B3B3B3"/>
<path d="M204.683 154.725C204.683 155.093 204.982 155.391 205.349 155.391C205.717 155.391 206.016 155.093 206.016 154.725C206.016 154.357 205.717 154.059 205.349 154.059C204.982 154.059 204.683 154.357 204.683 154.725Z" fill="#B3B3B3"/>
<path d="M204.683 158.236C204.683 158.604 204.982 158.902 205.349 158.902C205.717 158.902 206.016 158.604 206.016 158.236C206.016 157.868 205.717 157.57 205.349 157.57C204.982 157.57 204.683 157.868 204.683 158.236Z" fill="#B3B3B3"/>
<path d="M206.445 151.274C206.445 151.642 206.743 151.94 207.111 151.94C207.479 151.94 207.777 151.642 207.777 151.274C207.777 150.906 207.479 150.607 207.111 150.607C206.743 150.607 206.445 150.906 206.445 151.274Z" fill="#B3B3B3"/>
<path d="M206.445 154.725C206.445 155.093 206.743 155.391 207.111 155.391C207.479 155.391 207.777 155.093 207.777 154.725C207.777 154.357 207.479 154.059 207.111 154.059C206.743 154.059 206.445 154.357 206.445 154.725Z" fill="#B3B3B3"/>
<path d="M206.445 158.236C206.445 158.604 206.743 158.902 207.111 158.902C207.479 158.902 207.777 158.604 207.777 158.236C207.777 157.868 207.479 157.57 207.111 157.57C206.743 157.57 206.445 157.868 206.445 158.236Z" fill="#B3B3B3"/>
<path d="M208.136 151.274C208.136 151.642 208.435 151.94 208.803 151.94C209.171 151.94 209.469 151.642 209.469 151.274C209.469 150.906 209.171 150.607 208.803 150.607C208.435 150.607 208.136 150.906 208.136 151.274Z" fill="#B3B3B3"/>
<path d="M208.136 153.031C208.136 153.399 208.435 153.697 208.803 153.697C209.171 153.697 209.469 153.399 209.469 153.031C209.469 152.663 209.171 152.365 208.803 152.365C208.435 152.365 208.136 152.663 208.136 153.031Z" fill="#B3B3B3"/>
<path d="M208.136 154.725C208.136 155.093 208.435 155.391 208.803 155.391C209.171 155.391 209.469 155.093 209.469 154.725C209.469 154.357 209.171 154.059 208.803 154.059C208.435 154.059 208.136 154.357 208.136 154.725Z" fill="#B3B3B3"/>
<path d="M208.136 156.484C208.136 156.852 208.435 157.15 208.803 157.15C209.171 157.15 209.469 156.852 209.469 156.484C209.469 156.116 209.171 155.818 208.803 155.818C208.435 155.818 208.136 156.116 208.136 156.484Z" fill="#B3B3B3"/>
<path d="M208.136 158.236C208.136 158.604 208.435 158.902 208.803 158.902C209.171 158.902 209.469 158.604 209.469 158.236C209.469 157.868 209.171 157.57 208.803 157.57C208.435 157.57 208.136 157.868 208.136 158.236Z" fill="#B3B3B3"/>
<path d="M211.656 151.274C211.656 151.642 211.954 151.94 212.322 151.94C212.69 151.94 212.988 151.642 212.988 151.274C212.988 150.906 212.69 150.607 212.322 150.607C211.954 150.607 211.656 150.906 211.656 151.274Z" fill="#B3B3B3"/>
<path d="M211.656 153.031C211.656 153.399 211.954 153.697 212.322 153.697C212.69 153.697 212.988 153.399 212.988 153.031C212.988 152.663 212.69 152.365 212.322 152.365C211.954 152.365 211.656 152.663 211.656 153.031Z" fill="#B3B3B3"/>
<path d="M211.656 154.725C211.656 155.093 211.954 155.391 212.322 155.391C212.69 155.391 212.988 155.093 212.988 154.725C212.988 154.357 212.69 154.059 212.322 154.059C211.954 154.059 211.656 154.357 211.656 154.725Z" fill="#B3B3B3"/>
<path d="M211.656 156.484C211.656 156.852 211.954 157.15 212.322 157.15C212.69 157.15 212.988 156.852 212.988 156.484C212.988 156.116 212.69 155.818 212.322 155.818C211.954 155.818 211.656 156.116 211.656 156.484Z" fill="#B3B3B3"/>
<path d="M211.656 158.236C211.656 158.604 211.954 158.902 212.322 158.902C212.69 158.902 212.988 158.604 212.988 158.236C212.988 157.868 212.69 157.57 212.322 157.57C211.954 157.57 211.656 157.868 211.656 158.236Z" fill="#B3B3B3"/>
<path d="M213.406 151.274C213.406 151.642 213.704 151.94 214.072 151.94C214.44 151.94 214.738 151.642 214.738 151.274C214.738 150.906 214.44 150.607 214.072 150.607C213.704 150.607 213.406 150.906 213.406 151.274Z" fill="#B3B3B3"/>
<path d="M213.406 158.236C213.406 158.604 213.704 158.902 214.072 158.902C214.44 158.902 214.738 158.604 214.738 158.236C214.738 157.868 214.44 157.57 214.072 157.57C213.704 157.57 213.406 157.868 213.406 158.236Z" fill="#B3B3B3"/>
<path d="M215.164 151.274C215.164 151.642 215.462 151.94 215.83 151.94C216.198 151.94 216.496 151.642 216.496 151.274C216.496 150.906 216.198 150.608 215.83 150.608C215.462 150.608 215.164 150.906 215.164 151.274Z" fill="#B3B3B3"/>
<path d="M215.164 153.031C215.164 153.399 215.462 153.697 215.83 153.697C216.198 153.697 216.496 153.399 216.496 153.031C216.496 152.663 216.198 152.365 215.83 152.365C215.462 152.365 215.164 152.663 215.164 153.031Z" fill="#B3B3B3"/>
<path d="M215.164 154.725C215.164 155.093 215.462 155.391 215.83 155.391C216.198 155.391 216.496 155.093 216.496 154.725C216.496 154.357 216.198 154.059 215.83 154.059C215.462 154.059 215.164 154.357 215.164 154.725Z" fill="#B3B3B3"/>
<path d="M215.164 156.484C215.164 156.852 215.462 157.15 215.83 157.15C216.198 157.15 216.496 156.852 216.496 156.484C216.496 156.116 216.198 155.818 215.83 155.818C215.462 155.818 215.164 156.116 215.164 156.484Z" fill="#B3B3B3"/>
<path d="M215.164 158.236C215.164 158.604 215.462 158.902 215.83 158.902C216.198 158.902 216.496 158.604 216.496 158.236C216.496 157.868 216.198 157.57 215.83 157.57C215.462 157.57 215.164 157.868 215.164 158.236Z" fill="#B3B3B3"/>
<path d="M102.285 153.031C102.285 153.399 102.583 153.697 102.951 153.697C103.319 153.697 103.617 153.399 103.617 153.031C103.617 152.663 103.319 152.365 102.951 152.365C102.583 152.365 102.285 152.663 102.285 153.031Z" fill="#B3B3B3"/>
<path d="M102.285 154.725C102.285 155.093 102.583 155.391 102.951 155.391C103.319 155.391 103.617 155.093 103.617 154.725C103.617 154.357 103.319 154.059 102.951 154.059C102.583 154.059 102.285 154.357 102.285 154.725Z" fill="#B3B3B3"/>
<path d="M102.285 156.484C102.285 156.852 102.583 157.15 102.951 157.15C103.319 157.15 103.617 156.852 103.617 156.484C103.617 156.116 103.319 155.818 102.951 155.818C102.583 155.818 102.285 156.116 102.285 156.484Z" fill="#B3B3B3"/>
<path d="M102.285 158.236C102.285 158.604 102.583 158.902 102.951 158.902C103.319 158.902 103.617 158.604 103.617 158.236C103.617 157.868 103.319 157.57 102.951 157.57C102.583 157.57 102.285 157.868 102.285 158.236Z" fill="#B3B3B3"/>
<path d="M100.527 151.274C100.527 151.642 100.825 151.94 101.193 151.94C101.561 151.94 101.859 151.642 101.859 151.274C101.859 150.906 101.561 150.607 101.193 150.607C100.825 150.607 100.527 150.906 100.527 151.274Z" fill="#B3B3B3"/>
<path d="M100.527 154.725C100.527 155.093 100.825 155.391 101.193 155.391C101.561 155.391 101.859 155.093 101.859 154.725C101.859 154.357 101.561 154.059 101.193 154.059C100.825 154.059 100.527 154.357 100.527 154.725Z" fill="#B3B3B3"/>
<path d="M98.8396 151.274C98.8396 151.642 99.1378 151.94 99.5057 151.94C99.8736 151.94 100.172 151.642 100.172 151.274C100.172 150.906 99.8736 150.607 99.5057 150.607C99.1378 150.607 98.8396 150.906 98.8396 151.274Z" fill="#B3B3B3"/>
<path d="M98.8396 154.725C98.8396 155.093 99.1378 155.391 99.5057 155.391C99.8736 155.391 100.172 155.093 100.172 154.725C100.172 154.357 99.8736 154.059 99.5057 154.059C99.1378 154.059 98.8396 154.357 98.8396 154.725Z" fill="#B3B3B3"/>
<path d="M97.0701 153.031C97.0701 153.399 97.3683 153.697 97.7362 153.697C98.1041 153.697 98.4023 153.399 98.4023 153.031C98.4023 152.663 98.1041 152.365 97.7362 152.365C97.3683 152.365 97.0701 152.663 97.0701 153.031Z" fill="#B3B3B3"/>
<path d="M97.0701 154.725C97.0701 155.093 97.3683 155.391 97.7362 155.391C98.1041 155.391 98.4023 155.093 98.4023 154.725C98.4023 154.357 98.1041 154.059 97.7362 154.059C97.3683 154.059 97.0701 154.357 97.0701 154.725Z" fill="#B3B3B3"/>
<path d="M97.0701 156.484C97.0701 156.852 97.3683 157.15 97.7362 157.15C98.1041 157.15 98.4023 156.852 98.4023 156.484C98.4023 156.116 98.1041 155.818 97.7362 155.818C97.3683 155.818 97.0701 156.116 97.0701 156.484Z" fill="#B3B3B3"/>
<path d="M97.0701 158.236C97.0701 158.604 97.3683 158.902 97.7362 158.902C98.1041 158.902 98.4023 158.604 98.4023 158.236C98.4023 157.868 98.1041 157.57 97.7362 157.57C97.3683 157.57 97.0701 157.868 97.0701 158.236Z" fill="#B3B3B3"/>
<path d="M93.5662 153.031C93.5662 153.399 93.8644 153.697 94.2323 153.697C94.6002 153.697 94.8984 153.399 94.8984 153.031C94.8984 152.663 94.6002 152.365 94.2323 152.365C93.8644 152.365 93.5662 152.663 93.5662 153.031Z" fill="#B3B3B3"/>
<path d="M93.5662 154.725C93.5662 155.093 93.8644 155.391 94.2323 155.391C94.6002 155.391 94.8984 155.093 94.8984 154.725C94.8984 154.357 94.6002 154.059 94.2323 154.059C93.8644 154.059 93.5662 154.357 93.5662 154.725Z" fill="#B3B3B3"/>
<path d="M93.5662 156.484C93.5662 156.852 93.8644 157.15 94.2323 157.15C94.6002 157.15 94.8984 156.852 94.8984 156.484C94.8984 156.116 94.6002 155.818 94.2323 155.818C93.8644 155.818 93.5662 156.116 93.5662 156.484Z" fill="#B3B3B3"/>
<path d="M93.5662 158.236C93.5662 158.604 93.8644 158.902 94.2323 158.902C94.6002 158.902 94.8984 158.604 94.8984 158.236C94.8984 157.868 94.6002 157.57 94.2323 157.57C93.8644 157.57 93.5662 157.868 93.5662 158.236Z" fill="#B3B3B3"/>
<path d="M91.8123 151.274C91.8123 151.642 92.1105 151.94 92.4784 151.94C92.8463 151.94 93.1445 151.642 93.1445 151.274C93.1445 150.906 92.8463 150.607 92.4784 150.607C92.1105 150.607 91.8123 150.906 91.8123 151.274Z" fill="#B3B3B3"/>
<path d="M91.8123 154.725C91.8123 155.093 92.1105 155.391 92.4784 155.391C92.8463 155.391 93.1445 155.093 93.1445 154.725C93.1445 154.357 92.8463 154.059 92.4784 154.059C92.1105 154.059 91.8123 154.357 91.8123 154.725Z" fill="#B3B3B3"/>
<path d="M90.0505 151.274C90.0505 151.642 90.3488 151.94 90.7167 151.94C91.0846 151.94 91.3828 151.642 91.3828 151.274C91.3828 150.906 91.0846 150.607 90.7167 150.607C90.3488 150.607 90.0505 150.906 90.0505 151.274Z" fill="#B3B3B3"/>
<path d="M90.0505 154.725C90.0505 155.093 90.3488 155.391 90.7167 155.391C91.0846 155.391 91.3828 155.093 91.3828 154.725C91.3828 154.357 91.0846 154.059 90.7167 154.059C90.3488 154.059 90.0505 154.357 90.0505 154.725Z" fill="#B3B3B3"/>
<path d="M88.2927 153.031C88.2927 153.399 88.591 153.697 88.9589 153.697C89.3268 153.697 89.625 153.399 89.625 153.031C89.625 152.663 89.3268 152.365 88.9589 152.365C88.591 152.365 88.2927 152.663 88.2927 153.031Z" fill="#B3B3B3"/>
<path d="M88.2927 154.725C88.2927 155.093 88.591 155.391 88.9589 155.391C89.3268 155.391 89.625 155.093 89.625 154.725C89.625 154.357 89.3268 154.059 88.9589 154.059C88.591 154.059 88.2927 154.357 88.2927 154.725Z" fill="#B3B3B3"/>
<path d="M88.2927 156.484C88.2927 156.852 88.591 157.15 88.9589 157.15C89.3268 157.15 89.625 156.852 89.625 156.484C89.625 156.116 89.3268 155.818 88.9589 155.818C88.591 155.818 88.2927 156.116 88.2927 156.484Z" fill="#B3B3B3"/>
<path d="M88.2927 158.236C88.2927 158.604 88.591 158.902 88.9589 158.902C89.3268 158.902 89.625 158.604 89.625 158.236C89.625 157.868 89.3268 157.57 88.9589 157.57C88.591 157.57 88.2927 157.868 88.2927 158.236Z" fill="#B3B3B3"/>
<path d="M84.8474 153.031C84.8474 153.399 85.1456 153.697 85.5135 153.697C85.8814 153.697 86.1797 153.399 86.1797 153.031C86.1797 152.663 85.8814 152.365 85.5135 152.365C85.1456 152.365 84.8474 152.663 84.8474 153.031Z" fill="#B3B3B3"/>
<path d="M83.0896 151.274C83.0896 151.642 83.3878 151.94 83.7557 151.94C84.1236 151.94 84.4219 151.642 84.4219 151.274C84.4219 150.906 84.1236 150.607 83.7557 150.607C83.3878 150.607 83.0896 150.906 83.0896 151.274Z" fill="#B3B3B3"/>
<path d="M83.0896 153.031C83.0896 153.399 83.3878 153.697 83.7557 153.697C84.1236 153.697 84.4219 153.399 84.4219 153.031C84.4219 152.663 84.1236 152.365 83.7557 152.365C83.3878 152.365 83.0896 152.663 83.0896 153.031Z" fill="#B3B3B3"/>
<path d="M83.0896 154.725C83.0896 155.093 83.3878 155.391 83.7557 155.391C84.1236 155.391 84.4219 155.093 84.4219 154.725C84.4219 154.357 84.1236 154.059 83.7557 154.059C83.3878 154.059 83.0896 154.357 83.0896 154.725Z" fill="#B3B3B3"/>
<path d="M83.0896 156.484C83.0896 156.852 83.3878 157.15 83.7557 157.15C84.1236 157.15 84.4219 156.852 84.4219 156.484C84.4219 156.116 84.1236 155.818 83.7557 155.818C83.3878 155.818 83.0896 156.116 83.0896 156.484Z" fill="#B3B3B3"/>
<path d="M83.0896 158.236C83.0896 158.604 83.3878 158.902 83.7557 158.902C84.1236 158.902 84.4219 158.604 84.4219 158.236C84.4219 157.868 84.1236 157.57 83.7557 157.57C83.3878 157.57 83.0896 157.868 83.0896 158.236Z" fill="#B3B3B3"/>
<path d="M79.5779 151.274C79.5779 151.642 79.8761 151.94 80.244 151.94C80.6119 151.94 80.9102 151.642 80.9102 151.274C80.9102 150.906 80.6119 150.607 80.244 150.607C79.8761 150.607 79.5779 150.906 79.5779 151.274Z" fill="#B3B3B3"/>
<path d="M79.5779 154.725C79.5779 155.093 79.8761 155.391 80.244 155.391C80.6119 155.391 80.9102 155.093 80.9102 154.725C80.9102 154.357 80.6119 154.059 80.244 154.059C79.8761 154.059 79.5779 154.357 79.5779 154.725Z" fill="#B3B3B3"/>
<path d="M79.5779 156.484C79.5779 156.852 79.8761 157.15 80.244 157.15C80.6119 157.15 80.9102 156.852 80.9102 156.484C80.9102 156.116 80.6119 155.818 80.244 155.818C79.8761 155.818 79.5779 156.116 79.5779 156.484Z" fill="#B3B3B3"/>
<path d="M79.5779 158.236C79.5779 158.604 79.8761 158.902 80.244 158.902C80.6119 158.902 80.9102 158.604 80.9102 158.236C80.9102 157.868 80.6119 157.57 80.244 157.57C79.8761 157.57 79.5779 157.868 79.5779 158.236Z" fill="#B3B3B3"/>
<path d="M77.8123 151.274C77.8123 151.642 78.1105 151.94 78.4784 151.94C78.8463 151.94 79.1445 151.642 79.1445 151.274C79.1445 150.906 78.8463 150.607 78.4784 150.607C78.1105 150.607 77.8123 150.906 77.8123 151.274Z" fill="#B3B3B3"/>
<path d="M77.8123 154.725C77.8123 155.093 78.1105 155.391 78.4784 155.391C78.8463 155.391 79.1445 155.093 79.1445 154.725C79.1445 154.357 78.8463 154.059 78.4784 154.059C78.1105 154.059 77.8123 154.357 77.8123 154.725Z" fill="#B3B3B3"/>
<path d="M77.8123 158.236C77.8123 158.604 78.1105 158.902 78.4784 158.902C78.8463 158.902 79.1445 158.604 79.1445 158.236C79.1445 157.868 78.8463 157.57 78.4784 157.57C78.1105 157.57 77.8123 157.868 77.8123 158.236Z" fill="#B3B3B3"/>
<path d="M76.0623 151.274C76.0623 151.642 76.3605 151.94 76.7284 151.94C77.0963 151.94 77.3945 151.642 77.3945 151.274C77.3945 150.906 77.0963 150.607 76.7284 150.607C76.3605 150.607 76.0623 150.906 76.0623 151.274Z" fill="#B3B3B3"/>
<path d="M76.0623 153.031C76.0623 153.399 76.3605 153.697 76.7284 153.697C77.0963 153.697 77.3945 153.399 77.3945 153.031C77.3945 152.663 77.0963 152.365 76.7284 152.365C76.3605 152.365 76.0623 152.663 76.0623 153.031Z" fill="#B3B3B3"/>
<path d="M76.0623 154.725C76.0623 155.093 76.3605 155.391 76.7284 155.391C77.0963 155.391 77.3945 155.093 77.3945 154.725C77.3945 154.357 77.0963 154.059 76.7284 154.059C76.3605 154.059 76.0623 154.357 76.0623 154.725Z" fill="#B3B3B3"/>
<path d="M76.0623 158.236C76.0623 158.604 76.3605 158.902 76.7284 158.902C77.0963 158.902 77.3945 158.604 77.3945 158.236C77.3945 157.868 77.0963 157.57 76.7284 157.57C76.3605 157.57 76.0623 157.868 76.0623 158.236Z" fill="#B3B3B3"/>
<path d="M72.613 151.274C72.613 151.642 72.9113 151.94 73.2792 151.94C73.6471 151.94 73.9453 151.642 73.9453 151.274C73.9453 150.906 73.6471 150.607 73.2792 150.607C72.9113 150.607 72.613 150.906 72.613 151.274Z" fill="#B3B3B3"/>
<path d="M72.613 154.725C72.613 155.093 72.9113 155.391 73.2792 155.391C73.6471 155.391 73.9453 155.093 73.9453 154.725C73.9453 154.357 73.6471 154.059 73.2792 154.059C72.9113 154.059 72.613 154.357 72.613 154.725Z" fill="#B3B3B3"/>
<path d="M72.613 158.236C72.613 158.604 72.9113 158.902 73.2792 158.902C73.6471 158.902 73.9453 158.604 73.9453 158.236C73.9453 157.868 73.6471 157.57 73.2792 157.57C72.9113 157.57 72.613 157.868 72.613 158.236Z" fill="#B3B3B3"/>
<path d="M70.8474 151.274C70.8474 151.642 71.1456 151.94 71.5135 151.94C71.8814 151.94 72.1797 151.642 72.1797 151.274C72.1797 150.906 71.8814 150.607 71.5135 150.607C71.1456 150.607 70.8474 150.906 70.8474 151.274Z" fill="#B3B3B3"/>
<path d="M70.8474 154.725C70.8474 155.093 71.1456 155.391 71.5135 155.391C71.8814 155.391 72.1797 155.093 72.1797 154.725C72.1797 154.357 71.8814 154.059 71.5135 154.059C71.1456 154.059 70.8474 154.357 70.8474 154.725Z" fill="#B3B3B3"/>
<path d="M70.8474 158.236C70.8474 158.604 71.1456 158.902 71.5135 158.902C71.8814 158.902 72.1797 158.604 72.1797 158.236C72.1797 157.868 71.8814 157.57 71.5135 157.57C71.1456 157.57 70.8474 157.868 70.8474 158.236Z" fill="#B3B3B3"/>
<path d="M69.1052 151.274C69.1052 151.642 69.4035 151.94 69.7714 151.94C70.1393 151.94 70.4375 151.642 70.4375 151.274C70.4375 150.906 70.1393 150.607 69.7714 150.607C69.4035 150.607 69.1052 150.906 69.1052 151.274Z" fill="#B3B3B3"/>
<path d="M69.1052 153.031C69.1052 153.399 69.4035 153.697 69.7714 153.697C70.1393 153.697 70.4375 153.399 70.4375 153.031C70.4375 152.663 70.1393 152.365 69.7714 152.365C69.4035 152.365 69.1052 152.663 69.1052 153.031Z" fill="#B3B3B3"/>
<path d="M69.1052 154.725C69.1052 155.093 69.4035 155.391 69.7714 155.391C70.1393 155.391 70.4375 155.093 70.4375 154.725C70.4375 154.357 70.1393 154.059 69.7714 154.059C69.4035 154.059 69.1052 154.357 69.1052 154.725Z" fill="#B3B3B3"/>
<path d="M69.1052 156.484C69.1052 156.852 69.4035 157.15 69.7714 157.15C70.1393 157.15 70.4375 156.852 70.4375 156.484C70.4375 156.116 70.1393 155.818 69.7714 155.818C69.4035 155.818 69.1052 156.116 69.1052 156.484Z" fill="#B3B3B3"/>
<path d="M69.1052 158.236C69.1052 158.604 69.4035 158.902 69.7714 158.902C70.1393 158.902 70.4375 158.604 70.4375 158.236C70.4375 157.868 70.1393 157.57 69.7714 157.57C69.4035 157.57 69.1052 157.868 69.1052 158.236Z" fill="#B3B3B3"/>
<path d="M65.5857 151.274C65.5857 151.642 65.8839 151.94 66.2518 151.94C66.6197 151.94 66.918 151.642 66.918 151.274C66.918 150.906 66.6197 150.607 66.2518 150.607C65.8839 150.607 65.5857 150.906 65.5857 151.274Z" fill="#B3B3B3"/>
<path d="M65.5857 153.031C65.5857 153.399 65.8839 153.697 66.2518 153.697C66.6197 153.697 66.918 153.399 66.918 153.031C66.918 152.663 66.6197 152.365 66.2518 152.365C65.8839 152.365 65.5857 152.663 65.5857 153.031Z" fill="#B3B3B3"/>
<path d="M65.5857 154.725C65.5857 155.093 65.8839 155.391 66.2518 155.391C66.6197 155.391 66.918 155.093 66.918 154.725C66.918 154.357 66.6197 154.059 66.2518 154.059C65.8839 154.059 65.5857 154.357 65.5857 154.725Z" fill="#B3B3B3"/>
<path d="M63.8279 153.031C63.8279 153.399 64.1261 153.697 64.494 153.697C64.8619 153.697 65.1602 153.399 65.1602 153.031C65.1602 152.663 64.8619 152.365 64.494 152.365C64.1261 152.365 63.8279 152.663 63.8279 153.031Z" fill="#B3B3B3"/>
<path d="M63.8279 154.725C63.8279 155.093 64.1261 155.391 64.494 155.391C64.8619 155.391 65.1602 155.093 65.1602 154.725C65.1602 154.357 64.8619 154.059 64.494 154.059C64.1261 154.059 63.8279 154.357 63.8279 154.725Z" fill="#B3B3B3"/>
<path d="M63.8279 156.484C63.8279 156.852 64.1261 157.15 64.494 157.15C64.8619 157.15 65.1602 156.852 65.1602 156.484C65.1602 156.116 64.8619 155.818 64.494 155.818C64.1261 155.818 63.8279 156.116 63.8279 156.484Z" fill="#B3B3B3"/>
<path d="M63.8279 158.236C63.8279 158.604 64.1261 158.902 64.494 158.902C64.8619 158.902 65.1602 158.604 65.1602 158.236C65.1602 157.868 64.8619 157.57 64.494 157.57C64.1261 157.57 63.8279 157.868 63.8279 158.236Z" fill="#B3B3B3"/>
<path d="M62.074 154.725C62.074 155.093 62.3722 155.391 62.7401 155.391C63.108 155.391 63.4062 155.093 63.4062 154.725C63.4062 154.357 63.108 154.059 62.7401 154.059C62.3722 154.059 62.074 154.357 62.074 154.725Z" fill="#B3B3B3"/>
<path d="M58.6169 151.274C58.6169 151.642 58.9152 151.94 59.2831 151.94C59.651 151.94 59.9492 151.642 59.9492 151.274C59.9492 150.906 59.651 150.607 59.2831 150.607C58.9152 150.607 58.6169 150.906 58.6169 151.274Z" fill="#B3B3B3"/>
<path d="M58.6169 153.031C58.6169 153.399 58.9152 153.697 59.2831 153.697C59.651 153.697 59.9492 153.399 59.9492 153.031C59.9492 152.663 59.651 152.365 59.2831 152.365C58.9152 152.365 58.6169 152.663 58.6169 153.031Z" fill="#B3B3B3"/>
<path d="M58.6169 154.725C58.6169 155.093 58.9152 155.391 59.2831 155.391C59.651 155.391 59.9492 155.093 59.9492 154.725C59.9492 154.357 59.651 154.059 59.2831 154.059C58.9152 154.059 58.6169 154.357 58.6169 154.725Z" fill="#B3B3B3"/>
<path d="M58.6169 158.236C58.6169 158.604 58.9152 158.902 59.2831 158.902C59.651 158.902 59.9492 158.604 59.9492 158.236C59.9492 157.868 59.651 157.57 59.2831 157.57C58.9152 157.57 58.6169 157.868 58.6169 158.236Z" fill="#B3B3B3"/>
<path d="M56.8669 151.274C56.8669 151.642 57.1652 151.94 57.5331 151.94C57.901 151.94 58.1992 151.642 58.1992 151.274C58.1992 150.906 57.901 150.607 57.5331 150.607C57.1652 150.607 56.8669 150.906 56.8669 151.274Z" fill="#B3B3B3"/>
<path d="M56.8669 154.725C56.8669 155.093 57.1652 155.391 57.5331 155.391C57.901 155.391 58.1992 155.093 58.1992 154.725C58.1992 154.357 57.901 154.059 57.5331 154.059C57.1652 154.059 56.8669 154.357 56.8669 154.725Z" fill="#B3B3B3"/>
<path d="M56.8669 158.236C56.8669 158.604 57.1652 158.902 57.5331 158.902C57.901 158.902 58.1992 158.604 58.1992 158.236C58.1992 157.868 57.901 157.57 57.5331 157.57C57.1652 157.57 56.8669 157.868 56.8669 158.236Z" fill="#B3B3B3"/>
<path d="M55.1091 151.274C55.1091 151.642 55.4074 151.94 55.7753 151.94C56.1432 151.94 56.4414 151.642 56.4414 151.274C56.4414 150.906 56.1432 150.607 55.7753 150.607C55.4074 150.607 55.1091 150.906 55.1091 151.274Z" fill="#B3B3B3"/>
<path d="M55.1091 154.725C55.1091 155.093 55.4074 155.391 55.7753 155.391C56.1432 155.391 56.4414 155.093 56.4414 154.725C56.4414 154.357 56.1432 154.059 55.7753 154.059C55.4074 154.059 55.1091 154.357 55.1091 154.725Z" fill="#B3B3B3"/>
<path d="M55.1091 156.484C55.1091 156.852 55.4074 157.15 55.7753 157.15C56.1432 157.15 56.4414 156.852 56.4414 156.484C56.4414 156.116 56.1432 155.818 55.7753 155.818C55.4074 155.818 55.1091 156.116 55.1091 156.484Z" fill="#B3B3B3"/>
<path d="M55.1091 158.236C55.1091 158.604 55.4074 158.902 55.7753 158.902C56.1432 158.902 56.4414 158.604 56.4414 158.236C56.4414 157.868 56.1432 157.57 55.7753 157.57C55.4074 157.57 55.1091 157.868 55.1091 158.236Z" fill="#B3B3B3"/>
<path d="M51.6013 151.274C51.6013 151.642 51.8996 151.94 52.2674 151.94C52.6353 151.94 52.9336 151.642 52.9336 151.274C52.9336 150.906 52.6353 150.607 52.2674 150.607C51.8996 150.607 51.6013 150.906 51.6013 151.274Z" fill="#B3B3B3"/>
<path d="M51.6013 154.725C51.6013 155.093 51.8996 155.391 52.2674 155.391C52.6353 155.391 52.9336 155.093 52.9336 154.725C52.9336 154.357 52.6353 154.059 52.2674 154.059C51.8996 154.059 51.6013 154.357 51.6013 154.725Z" fill="#B3B3B3"/>
<path d="M51.6013 156.484C51.6013 156.852 51.8996 157.15 52.2674 157.15C52.6353 157.15 52.9336 156.852 52.9336 156.484C52.9336 156.116 52.6353 155.818 52.2674 155.818C51.8996 155.818 51.6013 156.116 51.6013 156.484Z" fill="#B3B3B3"/>
<path d="M51.6013 158.236C51.6013 158.604 51.8996 158.902 52.2674 158.902C52.6353 158.902 52.9336 158.604 52.9336 158.236C52.9336 157.868 52.6353 157.57 52.2674 157.57C51.8996 157.57 51.6013 157.868 51.6013 158.236Z" fill="#B3B3B3"/>
<path d="M49.8396 151.274C49.8396 151.642 50.1378 151.94 50.5057 151.94C50.8736 151.94 51.1719 151.642 51.1719 151.274C51.1719 150.906 50.8736 150.607 50.5057 150.607C50.1378 150.607 49.8396 150.906 49.8396 151.274Z" fill="#B3B3B3"/>
<path d="M49.8396 154.725C49.8396 155.093 50.1378 155.391 50.5057 155.391C50.8736 155.391 51.1719 155.093 51.1719 154.725C51.1719 154.357 50.8736 154.059 50.5057 154.059C50.1378 154.059 49.8396 154.357 49.8396 154.725Z" fill="#B3B3B3"/>
<path d="M49.8396 158.236C49.8396 158.604 50.1378 158.902 50.5057 158.902C50.8736 158.902 51.1719 158.604 51.1719 158.236C51.1719 157.868 50.8736 157.57 50.5057 157.57C50.1378 157.57 49.8396 157.868 49.8396 158.236Z" fill="#B3B3B3"/>
<path d="M48.0818 151.274C48.0818 151.642 48.38 151.94 48.7479 151.94C49.1158 151.94 49.4141 151.642 49.4141 151.274C49.4141 150.906 49.1158 150.607 48.7479 150.607C48.38 150.607 48.0818 150.906 48.0818 151.274Z" fill="#B3B3B3"/>
<path d="M48.0818 153.031C48.0818 153.399 48.38 153.697 48.7479 153.697C49.1158 153.697 49.4141 153.399 49.4141 153.031C49.4141 152.663 49.1158 152.365 48.7479 152.365C48.38 152.365 48.0818 152.663 48.0818 153.031Z" fill="#B3B3B3"/>
<path d="M48.0818 154.725C48.0818 155.093 48.38 155.391 48.7479 155.391C49.1158 155.391 49.4141 155.093 49.4141 154.725C49.4141 154.357 49.1158 154.059 48.7479 154.059C48.38 154.059 48.0818 154.357 48.0818 154.725Z" fill="#B3B3B3"/>
<path d="M48.0818 156.484C48.0818 156.852 48.38 157.15 48.7479 157.15C49.1158 157.15 49.4141 156.852 49.4141 156.484C49.4141 156.116 49.1158 155.818 48.7479 155.818C48.38 155.818 48.0818 156.116 48.0818 156.484Z" fill="#B3B3B3"/>
<path d="M48.0818 158.236C48.0818 158.604 48.38 158.902 48.7479 158.902C49.1158 158.902 49.4141 158.604 49.4141 158.236C49.4141 157.868 49.1158 157.57 48.7479 157.57C48.38 157.57 48.0818 157.868 48.0818 158.236Z" fill="#B3B3B3"/>
<path d="M44.6365 151.274C44.6365 151.642 44.9347 151.94 45.3026 151.94C45.6705 151.94 45.9687 151.642 45.9687 151.274C45.9687 150.906 45.6705 150.607 45.3026 150.607C44.9347 150.607 44.6365 150.906 44.6365 151.274Z" fill="#B3B3B3"/>
<path d="M42.8669 151.274C42.8669 151.642 43.1652 151.94 43.5331 151.94C43.901 151.94 44.1992 151.642 44.1992 151.274C44.1992 150.906 43.901 150.607 43.5331 150.607C43.1652 150.607 42.8669 150.906 42.8669 151.274Z" fill="#B3B3B3"/>
<path d="M41.1169 151.274C41.1169 151.642 41.4152 151.94 41.7831 151.94C42.151 151.94 42.4492 151.642 42.4492 151.274C42.4492 150.906 42.151 150.607 41.7831 150.607C41.4152 150.607 41.1169 150.906 41.1169 151.274Z" fill="#B3B3B3"/>
<path d="M41.1169 153.031C41.1169 153.399 41.4152 153.697 41.7831 153.697C42.151 153.697 42.4492 153.399 42.4492 153.031C42.4492 152.663 42.151 152.365 41.7831 152.365C41.4152 152.365 41.1169 152.663 41.1169 153.031Z" fill="#B3B3B3"/>
<path d="M41.1169 154.725C41.1169 155.093 41.4152 155.391 41.7831 155.391C42.151 155.391 42.4492 155.093 42.4492 154.725C42.4492 154.357 42.151 154.059 41.7831 154.059C41.4152 154.059 41.1169 154.357 41.1169 154.725Z" fill="#B3B3B3"/>
<path d="M41.1169 156.484C41.1169 156.852 41.4152 157.15 41.7831 157.15C42.151 157.15 42.4492 156.852 42.4492 156.484C42.4492 156.116 42.151 155.818 41.7831 155.818C41.4152 155.818 41.1169 156.116 41.1169 156.484Z" fill="#B3B3B3"/>
<path d="M41.1169 158.236C41.1169 158.604 41.4152 158.902 41.7831 158.902C42.151 158.902 42.4492 158.604 42.4492 158.236C42.4492 157.868 42.151 157.57 41.7831 157.57C41.4152 157.57 41.1169 157.868 41.1169 158.236Z" fill="#B3B3B3"/>
<path d="M37.6091 151.274C37.6091 151.642 37.9074 151.94 38.2753 151.94C38.6432 151.94 38.9414 151.642 38.9414 151.274C38.9414 150.906 38.6432 150.607 38.2753 150.607C37.9074 150.607 37.6091 150.906 37.6091 151.274Z" fill="#B3B3B3"/>
<path d="M37.6091 153.031C37.6091 153.399 37.9074 153.697 38.2753 153.697C38.6432 153.697 38.9414 153.399 38.9414 153.031C38.9414 152.663 38.6432 152.365 38.2753 152.365C37.9074 152.365 37.6091 152.663 37.6091 153.031Z" fill="#B3B3B3"/>
<path d="M37.6091 154.725C37.6091 155.093 37.9074 155.391 38.2753 155.391C38.6432 155.391 38.9414 155.093 38.9414 154.725C38.9414 154.357 38.6432 154.059 38.2753 154.059C37.9074 154.059 37.6091 154.357 37.6091 154.725Z" fill="#B3B3B3"/>
<path d="M37.6091 156.484C37.6091 156.852 37.9074 157.15 38.2753 157.15C38.6432 157.15 38.9414 156.852 38.9414 156.484C38.9414 156.116 38.6432 155.818 38.2753 155.818C37.9074 155.818 37.6091 156.116 37.6091 156.484Z" fill="#B3B3B3"/>
<path d="M37.6091 158.236C37.6091 158.604 37.9074 158.902 38.2753 158.902C38.6432 158.902 38.9414 158.604 38.9414 158.236C38.9414 157.868 38.6432 157.57 38.2753 157.57C37.9074 157.57 37.6091 157.868 37.6091 158.236Z" fill="#B3B3B3"/>
<path d="M35.8591 151.274C35.8591 151.642 36.1574 151.94 36.5253 151.94C36.8932 151.94 37.1914 151.642 37.1914 151.274C37.1914 150.906 36.8932 150.607 36.5253 150.607C36.1574 150.607 35.8591 150.906 35.8591 151.274Z" fill="#B3B3B3"/>
<path d="M35.8591 154.725C35.8591 155.093 36.1574 155.391 36.5253 155.391C36.8932 155.391 37.1914 155.093 37.1914 154.725C37.1914 154.357 36.8932 154.059 36.5253 154.059C36.1574 154.059 35.8591 154.357 35.8591 154.725Z" fill="#B3B3B3"/>
<path d="M35.8591 158.236C35.8591 158.604 36.1574 158.902 36.5253 158.902C36.8932 158.902 37.1914 158.604 37.1914 158.236C37.1914 157.868 36.8932 157.57 36.5253 157.57C36.1574 157.57 35.8591 157.868 35.8591 158.236Z" fill="#B3B3B3"/>
<path d="M34.0896 151.274C34.0896 151.642 34.3878 151.94 34.7557 151.94C35.1236 151.94 35.4219 151.642 35.4219 151.274C35.4219 150.906 35.1236 150.607 34.7557 150.607C34.3878 150.607 34.0896 150.906 34.0896 151.274Z" fill="#B3B3B3"/>
<path d="M34.0896 153.031C34.0896 153.399 34.3878 153.697 34.7557 153.697C35.1236 153.697 35.4219 153.399 35.4219 153.031C35.4219 152.663 35.1236 152.365 34.7557 152.365C34.3878 152.365 34.0896 152.663 34.0896 153.031Z" fill="#B3B3B3"/>
<path d="M34.0896 154.725C34.0896 155.093 34.3878 155.391 34.7557 155.391C35.1236 155.391 35.4219 155.093 35.4219 154.725C35.4219 154.357 35.1236 154.059 34.7557 154.059C34.3878 154.059 34.0896 154.357 34.0896 154.725Z" fill="#B3B3B3"/>
<path d="M34.0896 156.484C34.0896 156.852 34.3878 157.15 34.7557 157.15C35.1236 157.15 35.4219 156.852 35.4219 156.484C35.4219 156.116 35.1236 155.818 34.7557 155.818C34.3878 155.818 34.0896 156.116 34.0896 156.484Z" fill="#B3B3B3"/>
<path d="M34.0896 158.236C34.0896 158.604 34.3878 158.902 34.7557 158.902C35.1236 158.902 35.4219 158.604 35.4219 158.236C35.4219 157.868 35.1236 157.57 34.7557 157.57C34.3878 157.57 34.0896 157.868 34.0896 158.236Z" fill="#B3B3B3"/>
<path d="M30.6443 151.274C30.6443 151.642 30.9425 151.94 31.3104 151.94C31.6783 151.94 31.9766 151.642 31.9766 151.274C31.9766 150.906 31.6783 150.607 31.3104 150.607C30.9425 150.607 30.6443 150.906 30.6443 151.274Z" fill="#B3B3B3"/>
<path d="M30.6443 153.031C30.6443 153.399 30.9425 153.697 31.3104 153.697C31.6783 153.697 31.9766 153.399 31.9766 153.031C31.9766 152.663 31.6783 152.365 31.3104 152.365C30.9425 152.365 30.6443 152.663 30.6443 153.031Z" fill="#B3B3B3"/>
<path d="M30.6443 154.725C30.6443 155.093 30.9425 155.391 31.3104 155.391C31.6783 155.391 31.9766 155.093 31.9766 154.725C31.9766 154.357 31.6783 154.059 31.3104 154.059C30.9425 154.059 30.6443 154.357 30.6443 154.725Z" fill="#B3B3B3"/>
<path d="M30.6443 158.236C30.6443 158.604 30.9425 158.902 31.3104 158.902C31.6783 158.902 31.9766 158.604 31.9766 158.236C31.9766 157.868 31.6783 157.57 31.3104 157.57C30.9425 157.57 30.6443 157.868 30.6443 158.236Z" fill="#B3B3B3"/>
<path d="M28.8943 151.274C28.8943 151.642 29.1925 151.94 29.5604 151.94C29.9283 151.94 30.2266 151.642 30.2266 151.274C30.2266 150.906 29.9283 150.607 29.5604 150.607C29.1925 150.607 28.8943 150.906 28.8943 151.274Z" fill="#B3B3B3"/>
<path d="M28.8943 154.725C28.8943 155.093 29.1925 155.391 29.5604 155.391C29.9283 155.391 30.2266 155.093 30.2266 154.725C30.2266 154.357 29.9283 154.059 29.5604 154.059C29.1925 154.059 28.8943 154.357 28.8943 154.725Z" fill="#B3B3B3"/>
<path d="M28.8943 158.236C28.8943 158.604 29.1925 158.902 29.5604 158.902C29.9283 158.902 30.2266 158.604 30.2266 158.236C30.2266 157.868 29.9283 157.57 29.5604 157.57C29.1925 157.57 28.8943 157.868 28.8943 158.236Z" fill="#B3B3B3"/>
<path d="M27.1286 151.274C27.1286 151.642 27.4269 151.94 27.7948 151.94C28.1627 151.94 28.4609 151.642 28.4609 151.274C28.4609 150.906 28.1627 150.607 27.7948 150.607C27.4269 150.607 27.1286 150.906 27.1286 151.274Z" fill="#B3B3B3"/>
<path d="M27.1286 153.031C27.1286 153.399 27.4269 153.697 27.7948 153.697C28.1627 153.697 28.4609 153.399 28.4609 153.031C28.4609 152.663 28.1627 152.365 27.7948 152.365C27.4269 152.365 27.1286 152.663 27.1286 153.031Z" fill="#B3B3B3"/>
<path d="M27.1286 154.725C27.1286 155.093 27.4269 155.391 27.7948 155.391C28.1627 155.391 28.4609 155.093 28.4609 154.725C28.4609 154.357 28.1627 154.059 27.7948 154.059C27.4269 154.059 27.1286 154.357 27.1286 154.725Z" fill="#B3B3B3"/>
<path d="M27.1286 156.484C27.1286 156.852 27.4269 157.15 27.7948 157.15C28.1627 157.15 28.4609 156.852 28.4609 156.484C28.4609 156.116 28.1627 155.818 27.7948 155.818C27.4269 155.818 27.1286 156.116 27.1286 156.484Z" fill="#B3B3B3"/>
<path d="M27.1286 158.236C27.1286 158.604 27.4269 158.902 27.7948 158.902C28.1627 158.902 28.4609 158.604 28.4609 158.236C28.4609 157.868 28.1627 157.57 27.7948 157.57C27.4269 157.57 27.1286 157.868 27.1286 158.236Z" fill="#B3B3B3"/>
<path d="M23.6209 151.274C23.6209 151.642 23.9191 151.94 24.287 151.94C24.6549 151.94 24.9531 151.642 24.9531 151.274C24.9531 150.906 24.6549 150.607 24.287 150.607C23.9191 150.607 23.6209 150.906 23.6209 151.274Z" fill="#B3B3B3"/>
<path d="M23.6209 153.031C23.6209 153.399 23.9191 153.697 24.287 153.697C24.6549 153.697 24.9531 153.399 24.9531 153.031C24.9531 152.663 24.6549 152.365 24.287 152.365C23.9191 152.365 23.6209 152.663 23.6209 153.031Z" fill="#B3B3B3"/>
<path d="M23.6209 154.725C23.6209 155.093 23.9191 155.391 24.287 155.391C24.6549 155.391 24.9531 155.093 24.9531 154.725C24.9531 154.357 24.6549 154.059 24.287 154.059C23.9191 154.059 23.6209 154.357 23.6209 154.725Z" fill="#B3B3B3"/>
<path d="M23.6209 156.484C23.6209 156.852 23.9191 157.15 24.287 157.15C24.6549 157.15 24.9531 156.852 24.9531 156.484C24.9531 156.116 24.6549 155.818 24.287 155.818C23.9191 155.818 23.6209 156.116 23.6209 156.484Z" fill="#B3B3B3"/>
<path d="M23.6209 158.236C23.6209 158.604 23.9191 158.902 24.287 158.902C24.6549 158.902 24.9531 158.604 24.9531 158.236C24.9531 157.868 24.6549 157.57 24.287 157.57C23.9191 157.57 23.6209 157.868 23.6209 158.236Z" fill="#B3B3B3"/>
<path d="M21.863 151.274C21.863 151.642 22.1613 151.94 22.5292 151.94C22.8971 151.94 23.1953 151.642 23.1953 151.274C23.1953 150.906 22.8971 150.607 22.5292 150.607C22.1613 150.607 21.863 150.906 21.863 151.274Z" fill="#B3B3B3"/>
<path d="M21.863 158.236C21.863 158.604 22.1613 158.902 22.5292 158.902C22.8971 158.902 23.1953 158.604 23.1953 158.236C23.1953 157.868 22.8971 157.57 22.5292 157.57C22.1613 157.57 21.863 157.868 21.863 158.236Z" fill="#B3B3B3"/>
<path d="M20.1716 151.274C20.1716 151.642 20.4699 151.94 20.8378 151.94C21.2057 151.94 21.5039 151.642 21.5039 151.274C21.5039 150.906 21.2057 150.607 20.8378 150.607C20.4699 150.607 20.1716 150.906 20.1716 151.274Z" fill="#B3B3B3"/>
<path d="M20.1716 153.031C20.1716 153.399 20.4699 153.697 20.8378 153.697C21.2057 153.697 21.5039 153.399 21.5039 153.031C21.5039 152.663 21.2057 152.365 20.8378 152.365C20.4699 152.365 20.1716 152.663 20.1716 153.031Z" fill="#B3B3B3"/>
<path d="M20.1716 154.725C20.1716 155.093 20.4699 155.391 20.8378 155.391C21.2057 155.391 21.5039 155.093 21.5039 154.725C21.5039 154.357 21.2057 154.059 20.8378 154.059C20.4699 154.059 20.1716 154.357 20.1716 154.725Z" fill="#B3B3B3"/>
<path d="M20.1716 156.484C20.1716 156.852 20.4699 157.15 20.8378 157.15C21.2057 157.15 21.5039 156.852 21.5039 156.484C21.5039 156.116 21.2057 155.818 20.8378 155.818C20.4699 155.818 20.1716 156.116 20.1716 156.484Z" fill="#B3B3B3"/>
<path d="M20.1716 158.236C20.1716 158.604 20.4699 158.902 20.8378 158.902C21.2057 158.902 21.5039 158.604 21.5039 158.236C21.5039 157.868 21.2057 157.57 20.8378 157.57C20.4699 157.57 20.1716 157.868 20.1716 158.236Z" fill="#B3B3B3"/>
<path d="M33.97 9.20467C34.3334 8.78077 34.8178 8.59909 35.5445 8.59909C36.2107 8.59909 36.7557 8.78077 37.119 9.20467C37.4824 9.62858 37.6641 10.1736 37.6641 10.9003L37.6641 15.6238C37.6641 16.3505 37.4824 16.8956 37.119 17.3195C36.7557 17.7434 36.2712 17.9251 35.5445 17.9251C34.8784 17.9251 34.3334 17.7434 33.97 17.3195C33.6067 16.8956 33.425 16.3505 33.425 15.6238L33.425 10.9003C33.425 10.1736 33.6067 9.62858 33.97 9.20467ZM34.6967 16.5928C34.8784 16.835 35.1206 16.9561 35.484 16.9561C36.2107 16.9561 36.574 16.5322 36.574 15.6238L36.574 10.8397C36.574 10.4158 36.5135 10.113 36.3318 9.87081C36.1501 9.62858 35.9079 9.50746 35.5445 9.50746C35.1812 9.50746 34.9389 9.62858 34.7573 9.87081C34.5756 10.113 34.4545 10.4158 34.4545 10.8397L34.4545 15.6238C34.3939 16.0478 34.515 16.4111 34.6967 16.5928Z" fill="#4C4C4C"/>
<path d="M42.0936 9.20288C42.3964 9.50567 42.5781 10.0507 42.5781 10.7168L42.5781 11.1407C42.5781 11.6252 42.5175 12.0491 42.3359 12.3519C42.1542 12.6547 41.912 12.8364 41.4881 12.9575C42.2753 13.1997 42.6992 13.8053 42.6992 14.8954L42.6992 15.6826C42.6992 16.3488 42.5175 16.8938 42.2147 17.2571C41.8514 17.6205 41.3669 17.8022 40.6402 17.8022L38.5207 17.8022L38.5207 8.71842L40.5797 8.71842C41.3064 8.65786 41.7908 8.83953 42.0936 9.20288ZM41.3064 12.2914C41.488 12.1097 41.6092 11.8069 41.6092 11.3224L41.6092 10.7774C41.6092 10.3535 41.5486 10.0507 41.3669 9.86902C41.1853 9.68735 40.943 9.56623 40.5797 9.56623L39.5502 9.56623L39.5502 12.473L40.3374 12.473C40.7613 12.5336 41.0641 12.473 41.3064 12.2914ZM41.4881 16.5304C41.6697 16.3488 41.7303 16.046 41.7303 15.6221L41.7303 14.8348C41.7303 14.3503 41.6092 13.987 41.4275 13.8053C41.2458 13.6236 40.8825 13.5025 40.4586 13.5025L39.5502 13.5025L39.5502 16.8938L40.6402 16.8938C41.0036 16.8332 41.3064 16.7727 41.4881 16.5304Z" fill="#4C4C4C"/>
<path d="M47.0546 9.20321C47.4179 9.62712 47.5391 10.1721 47.5391 10.8988L47.5391 11.1411L46.5701 11.1411L46.5701 10.8383C46.5701 9.99047 46.2068 9.56656 45.5406 9.56656C44.8745 9.56656 44.5112 9.99047 44.5112 10.8383C44.5112 11.2622 44.6323 11.6255 44.8745 11.9283C45.1167 12.2311 45.4801 12.5339 45.904 12.8973C46.2673 13.2001 46.5701 13.5028 46.7518 13.6845C46.994 13.9268 47.1757 14.169 47.2968 14.4718C47.4179 14.7746 47.5391 15.1379 47.5391 15.5618C47.5391 16.2885 47.3574 16.8335 46.994 17.2575C46.6307 17.6814 46.1462 17.863 45.4801 17.863C44.8139 17.863 44.2689 17.6814 43.9661 17.2575C43.6028 16.8335 43.4817 16.2885 43.4817 15.5618L43.4817 15.0168L44.4506 15.0168L44.4506 15.5618C44.4506 15.9857 44.5111 16.2885 44.6928 16.5308C44.8745 16.773 45.1167 16.8941 45.4801 16.8941C45.8434 16.8941 46.0857 16.773 46.2673 16.5308C46.449 16.2885 46.5096 15.9857 46.5096 15.5618C46.5096 15.1379 46.3884 14.7746 46.1462 14.4718C45.904 14.169 45.5406 13.8662 45.1167 13.4423C44.7534 13.1395 44.4506 12.8973 44.2689 12.655C44.0872 12.4128 43.845 12.1706 43.7239 11.8072C43.6028 11.4439 43.4817 11.1411 43.4817 10.7172C43.4817 9.99047 43.6633 9.44544 43.9661 9.02154C44.3295 8.59763 44.8139 8.41595 45.4801 8.41595C46.2068 8.59763 46.7518 8.7793 47.0546 9.20321Z" fill="#4C4C4C"/>
<path d="M51.7226 13.6228L49.4819 13.6228L49.4819 16.8323L52.207 16.8323L52.207 17.7407L48.4524 17.7407L48.4524 8.65698L52.207 8.65698L52.207 9.56536L49.4819 9.56536L49.4819 12.7144L51.7226 12.7144L51.7226 13.6228Z" fill="#4C4C4C"/>
<path d="M56.7479 9.20201C57.0507 9.56536 57.2324 10.0498 57.2324 10.7765L57.2324 11.5032C57.2324 11.9877 57.1718 12.4116 56.9296 12.7144C56.7479 13.0172 56.4451 13.2594 56.0818 13.3805C56.5057 13.5016 56.7479 13.7439 56.9296 14.0467C57.1113 14.3495 57.2324 14.7734 57.2324 15.2578L57.2324 16.6507C57.2324 16.8929 57.2324 17.1351 57.2929 17.2563C57.2929 17.4379 57.3535 17.559 57.4141 17.7407L56.3846 17.7407C56.324 17.6196 56.2635 17.4379 56.2635 17.3168C56.2635 17.1957 56.2029 16.9535 56.2029 16.6507L56.2029 15.1973C56.2029 14.7128 56.0818 14.3495 55.9001 14.1678C55.6579 13.9861 55.3551 13.865 54.9312 13.865L54.2045 13.865L54.2045 17.7407L53.175 17.7407L53.175 8.65698L55.1734 8.65698C55.9001 8.65698 56.3846 8.83866 56.7479 9.20201ZM55.9001 12.7144C56.1423 12.5327 56.2029 12.2299 56.2029 11.7455L56.2029 10.8976C56.2029 10.4737 56.1423 10.1709 55.9607 9.98926C55.779 9.80759 55.5367 9.68647 55.1734 9.68647L54.2045 9.68647L54.2045 13.0777L54.9312 13.0777C55.3551 12.9566 55.6579 12.8961 55.9001 12.7144Z" fill="#4C4C4C"/>
<path d="M60.5015 16.5901L61.9549 8.65698L62.8633 8.65698L61.1677 17.7407L59.6537 17.7407L57.9581 8.65698L58.9876 8.65698L60.5015 16.5901Z" fill="#4C4C4C"/>
<path d="M64.0168 17.8049L63.1084 17.8049L64.8646 8.72119L66.318 8.72119L68.0742 17.8049L67.0447 17.8049L66.6814 15.9882L64.3802 15.9882L64.0168 17.8049ZM66.5603 15.0798L65.5308 9.81124L64.5013 15.0798L66.5603 15.0798Z" fill="#4C4C4C"/>
<path d="M70.1323 9.62932L68.4367 9.62932L68.4367 8.72095L72.7969 8.72095L72.7969 9.62932L71.1013 9.62932L71.1013 17.8047L70.0718 17.8047L70.0718 9.62932L70.1323 9.62932Z" fill="#4C4C4C"/>
<path d="M74.5508 17.8049L73.5213 17.8049L73.5213 8.72119L74.5508 8.72119L74.5508 17.8049Z" fill="#4C4C4C"/>
<path d="M76.0716 9.20443C76.4349 8.78052 76.9194 8.59885 77.6461 8.59885C78.3122 8.59885 78.8573 8.78052 79.2206 9.20443C79.584 9.62834 79.7656 10.1734 79.7656 10.9001L79.7656 15.6236C79.7656 16.3503 79.584 16.8953 79.2206 17.3192C78.8573 17.7431 78.3728 17.9248 77.6461 17.9248C76.9799 17.9248 76.4349 17.7431 76.0716 17.3192C75.7082 16.8953 75.5265 16.3503 75.5265 15.6236L75.5265 10.9001C75.5265 10.1734 75.7082 9.62834 76.0716 9.20443ZM76.7983 16.5925C76.9799 16.8348 77.2222 16.9559 77.5855 16.9559C78.3122 16.9559 78.6756 16.532 78.6756 15.6236L78.6756 10.8395C78.6756 10.4156 78.615 10.1128 78.4333 9.87057C78.2517 9.62834 78.0094 9.50722 77.6461 9.50722C77.2827 9.50722 77.0405 9.62834 76.8588 9.87057C76.6772 10.1128 76.556 10.4156 76.556 10.8395L76.556 15.6236C76.4955 16.0475 76.6166 16.4109 76.7983 16.5925Z" fill="#4C4C4C"/>
<path d="M80.6027 17.8013L80.6027 8.71754L81.8744 8.71754L83.994 15.3184L83.994 8.65698L84.9023 8.65698L84.9023 17.7407L83.8729 17.7407L81.5716 10.4132L81.5716 17.7407L80.6027 17.7407L80.6027 17.8013Z" fill="#4C4C4C"/>
<path d="M89.3866 9.20468C89.75 9.62858 89.8711 10.1736 89.8711 10.9003L89.8711 11.1425L88.9022 11.1425L88.9022 10.8397C88.9022 9.99193 88.5388 9.56803 87.8727 9.56803C87.2065 9.56803 86.8432 9.99193 86.8432 10.8397C86.8432 11.2637 86.9643 11.627 87.2065 11.9298C87.4488 12.2326 87.8121 12.5354 88.236 12.8987C88.5994 13.2015 88.9022 13.5043 89.0838 13.686C89.3261 13.9282 89.5077 14.1705 89.6289 14.4732C89.75 14.776 89.8711 15.1394 89.8711 15.5633C89.8711 16.29 89.6894 16.835 89.3261 17.2589C88.9627 17.6828 88.4782 17.8645 87.8121 17.8645C87.146 17.8645 86.6009 17.6828 86.2982 17.2589C85.9348 16.835 85.8137 16.29 85.8137 15.5633L85.8137 15.0183L86.7826 15.0183L86.7826 15.5633C86.7826 15.9872 86.8432 16.29 87.0248 16.5322C87.2065 16.7745 87.4488 16.8956 87.8121 16.8956C88.1755 16.8956 88.4177 16.7745 88.5994 16.5322C88.781 16.29 88.8416 15.9872 88.8416 15.5633C88.8416 15.1394 88.7205 14.776 88.4783 14.4732C88.236 14.1705 87.8727 13.8677 87.4488 13.4438C87.0854 13.141 86.7826 12.8987 86.6009 12.6565C86.3587 12.4143 86.177 12.172 86.0559 11.8087C85.9348 11.4453 85.8137 11.1425 85.8137 10.7186C85.8137 9.99193 85.9954 9.44691 86.2982 9.023C86.6615 8.59909 87.146 8.41742 87.8121 8.41742C88.4782 8.41742 89.0233 8.78077 89.3866 9.20468Z" fill="#4C4C4C"/>
<path d="M152.974 17.9878L152.126 17.9878L153.761 9.50967L155.154 9.50967L156.789 17.9878L155.82 17.9878L155.517 16.2922L153.398 16.2922L152.974 17.9878ZM155.336 15.5049L154.367 10.5997L153.458 15.5049L155.336 15.5049Z" fill="#4C4C4C"/>
<path d="M160.906 10.0508C161.209 10.4142 161.391 10.9592 161.391 11.6253L161.391 15.925C161.391 16.5911 161.209 17.0756 160.906 17.4995C160.603 17.8628 160.119 18.0445 159.453 18.0445L157.454 18.0445L157.454 9.56635L159.453 9.56635C160.058 9.50579 160.543 9.68746 160.906 10.0508ZM160.422 15.925L160.422 11.5648C160.422 10.7775 160.058 10.3536 159.392 10.3536L158.363 10.3536L158.363 17.1361L159.392 17.1361C160.119 17.1361 160.422 16.7728 160.422 15.925Z" fill="#4C4C4C"/>
<path d="M165.687 10.0508C165.99 10.4142 166.172 10.9592 166.172 11.6253L166.172 15.925C166.172 16.5911 165.99 17.0756 165.687 17.4995C165.385 17.8628 164.9 18.0445 164.234 18.0445L162.236 18.0445L162.236 9.56635L164.234 9.56635C164.9 9.50579 165.385 9.68746 165.687 10.0508ZM165.264 15.925L165.264 11.5648C165.264 10.7775 164.9 10.3536 164.234 10.3536L163.205 10.3536L163.205 17.1361L164.234 17.1361C164.9 17.1361 165.264 16.7728 165.264 15.925Z" fill="#4C4C4C"/>
<path d="M170.416 9.99414C170.719 10.2969 170.9 10.7814 170.9 11.4475L170.9 12.1137C170.9 12.5981 170.84 12.9615 170.658 13.2643C170.476 13.5671 170.234 13.7488 169.871 13.8699C170.234 13.991 170.537 14.1727 170.658 14.4754C170.84 14.7782 170.9 15.1416 170.9 15.6261L170.9 16.9583C170.9 17.2006 170.9 17.3822 170.961 17.5639C170.961 17.7456 171.021 17.8667 171.082 17.9878L170.053 17.9878C169.992 17.8667 169.931 17.7456 169.931 17.5639C169.931 17.4428 169.871 17.2006 169.871 16.9583L169.871 15.6261C169.871 15.1416 169.75 14.8388 169.568 14.6571C169.386 14.4754 169.023 14.3543 168.66 14.3543L167.994 14.3543L167.994 17.9878L167.025 17.9878L167.025 9.50967L168.902 9.50967C169.629 9.50967 170.113 9.69135 170.416 9.99414ZM169.629 13.2643C169.81 13.0826 169.931 12.7798 169.931 12.3559L169.931 11.5687C169.931 11.2053 169.871 10.9025 169.689 10.7208C169.508 10.5392 169.265 10.418 168.962 10.418L168.054 10.418L168.054 13.5671L168.781 13.5671C169.084 13.5065 169.386 13.446 169.629 13.2643Z" fill="#4C4C4C"/>
<path d="M174.836 14.1121L172.777 14.1121L172.777 17.14L175.32 17.14L175.32 17.9878L171.808 17.9878L171.808 9.50967L175.32 9.50967L175.32 10.3575L172.777 10.3575L172.777 13.2643L174.836 13.2643L174.836 14.1121Z" fill="#4C4C4C"/>
<path d="M179.371 9.99316C179.674 10.3565 179.855 10.9015 179.855 11.5677L179.855 11.8099L178.947 11.8099L178.947 11.5071C178.947 10.7199 178.644 10.2959 177.978 10.2959C177.312 10.2959 177.009 10.7199 177.009 11.5071C177.009 11.931 177.13 12.2338 177.312 12.5366C177.554 12.8394 177.857 13.1422 178.281 13.445C178.644 13.7478 178.887 13.99 179.129 14.1717C179.31 14.3533 179.492 14.5956 179.613 14.8984C179.734 15.2012 179.795 15.5645 179.795 15.9279C179.795 16.594 179.613 17.139 179.31 17.5024C179.008 17.8657 178.523 18.0474 177.857 18.0474C177.251 18.0474 176.767 17.8657 176.404 17.5024C176.101 17.139 175.919 16.594 175.919 15.9279L175.919 15.4434L176.828 15.4434L176.828 15.9884C176.828 16.3518 176.888 16.6546 177.07 16.8968C177.251 17.0785 177.494 17.1996 177.796 17.1996C178.099 17.1996 178.402 17.0785 178.523 16.8968C178.705 16.7151 178.765 16.4123 178.765 15.9884C178.765 15.5645 178.644 15.2617 178.463 14.9589C178.22 14.6561 177.918 14.3533 177.494 14.0506C177.191 13.7478 176.888 13.5055 176.706 13.3239C176.525 13.1422 176.343 12.8394 176.161 12.5366C176.04 12.2338 175.98 11.8705 175.98 11.5071C175.98 10.841 176.161 10.2959 176.464 9.9326C176.767 9.56925 177.251 9.38757 177.857 9.38757C178.463 9.38757 179.068 9.62981 179.371 9.99316Z" fill="#4C4C4C"/>
<path d="M183.918 9.99349C184.221 10.3568 184.402 10.9019 184.402 11.568L184.402 11.8102L183.494 11.8102L183.494 11.5074C183.494 10.7202 183.191 10.2963 182.525 10.2963C181.859 10.2963 181.556 10.7202 181.556 11.5074C181.556 11.9314 181.677 12.2341 181.859 12.5369C182.101 12.8397 182.404 13.1425 182.828 13.4453C183.191 13.7481 183.433 13.9903 183.676 14.172C183.857 14.3537 184.039 14.5959 184.16 14.8987C184.281 15.2015 184.342 15.5648 184.342 15.9282C184.342 16.5943 184.16 17.1394 183.857 17.5027C183.555 17.8661 183.07 18.0477 182.404 18.0477C181.798 18.0477 181.314 17.8661 180.951 17.5027C180.648 17.1394 180.466 16.5943 180.466 15.9282L180.466 15.4437L181.374 15.4437L181.374 15.9888C181.374 16.3521 181.435 16.6549 181.617 16.8971C181.798 17.0788 182.041 17.1999 182.343 17.1999C182.646 17.1999 182.949 17.0788 183.07 16.8971C183.252 16.7155 183.312 16.4127 183.312 15.9888C183.312 15.5648 183.191 15.2621 183.01 14.9593C182.767 14.6565 182.464 14.3537 182.041 14.0509C181.738 13.7481 181.435 13.5059 181.253 13.3242C181.072 13.1425 180.89 12.8397 180.708 12.5369C180.587 12.2341 180.527 11.8708 180.527 11.5074C180.527 10.8413 180.708 10.2963 181.011 9.93293C181.314 9.56958 181.798 9.38791 182.404 9.38791C183.01 9.38791 183.555 9.63014 183.918 9.99349Z" fill="#4C4C4C"/>
<path d="M164.294 83.8714C162.174 70.7302 171.137 58.2552 184.278 56.1357C197.419 54.0162 209.894 62.9788 212.014 76.1199C214.133 89.2611 205.171 101.736 192.03 103.856C178.889 105.975 166.414 97.0125 164.294 83.8714ZM209.228 76.5438C207.351 64.9167 196.39 57.0441 184.763 58.9214C173.135 60.7987 165.263 71.7597 167.14 83.3869C169.018 95.0141 179.979 102.887 191.606 101.009C203.172 99.1321 211.105 88.171 209.228 76.5438Z" fill="#AFC1E8"/>
<path d="M167.989 83.2689C166.172 72.1262 173.742 61.6496 184.885 59.8329C196.027 58.0161 206.504 65.5859 208.321 76.7286C210.137 87.8713 202.568 98.3479 191.425 100.165C180.343 101.981 169.806 94.3511 167.989 83.2689ZM207.17 76.9103C205.474 66.4337 195.543 59.2878 185.066 60.9835C174.59 62.6791 167.444 72.6107 169.139 83.0872C170.835 93.5638 180.767 100.71 191.243 99.014C201.72 97.3184 208.866 87.3869 207.17 76.9103Z" fill="#AFC1E8"/>
<path d="M201.115 50.9912L143.463 45.7227L145.099 27.6158L202.75 32.8843L201.115 50.9912ZM145.159 44.2693L199.662 49.235L201.054 34.2772L146.552 29.3114L145.159 44.2693Z" fill="#AFC1E8"/>
<path d="M202.203 52.0205L142.19 46.5097L144.006 26.5255L204.02 32.0363L202.203 52.0205ZM142.613 46.1463L201.779 51.536L203.535 32.3996L144.37 27.0099L142.613 46.1463Z" fill="#AFC1E8"/>
</g>
<defs>
<clipPath id="clip0_565_43883">
<rect width="165.627" height="229.758" fill="white" transform="translate(230) rotate(90)"/>
</clipPath>
</defs>
</svg>
