<svg width="184" height="161" viewBox="0 0 184 161" fill="none" xmlns="http://www.w3.org/2000/svg">
<path d="M134.782 78.4646C140.571 78.4646 145.264 75.5004 145.264 71.8438C145.264 68.1872 140.571 65.223 134.782 65.223C128.994 65.223 124.301 68.1872 124.301 71.8438C124.301 75.5004 128.994 78.4646 134.782 78.4646Z" fill="#D8D8D8"/>
<path d="M130.732 150.421H14.5938V116.407C14.5938 96.5449 30.7362 80.4657 50.6768 80.4657H94.6485C114.589 80.4657 130.732 96.5449 130.732 116.407V150.421Z" fill="#424246"/>
<path d="M108.711 55.618C107.068 54.9268 104.986 56.1273 103.233 58.4919V39.7571C103.233 31.5357 97.1703 24.8785 89.6835 24.8785H55.609C48.1222 24.8785 42.0596 31.5357 42.0596 39.7571V58.4919C40.3066 56.1273 38.2614 54.9268 36.5814 55.618C34.0615 56.673 33.4771 61.7296 35.3032 66.8953C37.0927 72.061 40.5988 75.4077 43.1188 74.3528C43.2283 74.3164 43.3379 74.2436 43.484 74.1709C47.3917 85.0843 58.969 93.0148 72.6645 93.0148C86.36 93.0148 97.9738 85.0843 101.845 74.1709C101.955 74.2436 102.064 74.3164 102.21 74.3528C104.73 75.4077 108.236 72.061 110.026 66.8953C111.815 61.7296 111.231 56.673 108.711 55.618Z" fill="#E8E8E8"/>
<path d="M106.551 18.1489C106.003 17.7123 105.419 17.2758 104.834 16.8756C105.09 16.33 105.199 15.7479 105.163 15.0931C104.871 11.6008 100.05 9.67277 97.603 8.65418C87.8883 4.6162 77.8085 1.19666 67.4364 1.19666C57.0643 1.19666 46.3271 5.08912 39.4976 13.6016C34.6768 19.6404 32.1568 27.3889 29.7464 34.9556C29.7098 35.0647 33.2889 35.4649 37.2698 35.9014C37.0141 42.3767 37.5254 48.4155 37.8541 52.1625C38.4384 58.856 42.9671 64.2036 42.9671 64.2036C42.1636 59.2198 42.0906 44.996 45.1949 36.6654C46.3636 36.7745 47.167 36.8109 47.4592 36.8473C53.5583 36.8836 59.6573 36.3016 65.6834 35.1375C73.3528 33.646 80.8763 31.1723 88.0344 27.7891H88.0709C92.0518 27.971 100.89 32.5183 102.351 37.8658C103.812 43.2134 101.876 63.8399 101.876 63.8399C101.876 63.8399 107.866 58.4559 109.509 42.5222C111.152 26.5886 106.551 18.1489 106.551 18.1489Z" fill="#424246"/>
<path d="M181.032 69.4759H122.598C122.123 69.4759 121.758 69.8397 121.758 70.3126V151.727C121.758 152.2 122.123 152.564 122.598 152.564H181.032C181.507 152.564 181.872 152.2 181.872 151.727V70.3126C181.872 69.8397 181.507 69.4759 181.032 69.4759Z" fill="#A6AFA9"/>
<path d="M180.821 70.4962H122.789V151.51H180.821V70.4962Z" fill="white"/>
<path d="M181.064 109.311H123.031V109.603H181.064V109.311Z" fill="#E6E6E6"/>
<path d="M145.273 113.02H123.031V113.384H145.273V113.02Z" fill="#8F9992"/>
<path d="M181.066 113.02H158.824V113.384H181.066V113.02Z" fill="#A6AFA9"/>
<path d="M146.227 111.606C146.629 111.606 146.775 111.642 146.885 111.824C147.031 112.006 147.067 112.152 147.067 112.552C147.067 112.988 147.031 113.134 146.885 113.279C146.775 113.425 146.556 113.498 146.3 113.498H146.227V114.807H145.789V111.606H146.227ZM146.337 113.097C146.593 113.097 146.666 113.025 146.666 112.552C146.666 112.115 146.629 112.006 146.337 112.006H146.264V113.061H146.337V113.097Z" fill="#4C4C4C"/>
<path d="M147.692 114.808H147.254L147.692 111.606H148.277L148.678 114.808H148.24L148.167 114.08H147.765L147.692 114.808ZM147.984 112.188L147.838 113.68H148.13L147.984 112.188Z" fill="#4C4C4C"/>
<path d="M149.402 113.86V114.006C149.402 114.333 149.475 114.442 149.621 114.442C149.767 114.442 149.84 114.333 149.84 114.115C149.84 113.897 149.803 113.788 149.584 113.497L149.365 113.169C149.11 112.769 149 112.551 149 112.26C149 111.823 149.256 111.569 149.657 111.569C149.95 111.569 150.169 111.751 150.242 112.042C150.278 112.151 150.278 112.187 150.278 112.442L149.84 112.478C149.84 112.333 149.84 112.26 149.84 112.187C149.84 112.042 149.767 111.969 149.657 111.969C149.548 111.969 149.475 112.078 149.475 112.26C149.475 112.442 149.511 112.514 149.803 112.951L150.023 113.278C150.242 113.569 150.351 113.897 150.351 114.188C150.351 114.624 150.132 114.843 149.694 114.843C149.438 114.843 149.292 114.77 149.146 114.588C149.037 114.442 149 114.297 149 114.042C149 113.97 149 113.933 149 113.86H149.402Z" fill="#4C4C4C"/>
<path d="M151.015 113.86V114.006C151.015 114.333 151.088 114.442 151.234 114.442C151.38 114.442 151.453 114.333 151.453 114.115C151.453 113.897 151.417 113.788 151.198 113.497L150.978 113.169C150.723 112.769 150.613 112.551 150.613 112.26C150.613 111.823 150.869 111.569 151.271 111.569C151.563 111.569 151.782 111.751 151.855 112.042C151.892 112.151 151.892 112.187 151.892 112.442L151.453 112.478C151.453 112.333 151.453 112.26 151.453 112.187C151.453 112.042 151.38 111.969 151.271 111.969C151.161 111.969 151.088 112.078 151.088 112.26C151.088 112.442 151.125 112.514 151.417 112.951L151.636 113.278C151.855 113.569 151.965 113.897 151.965 114.188C151.965 114.624 151.745 114.843 151.307 114.843C151.052 114.843 150.905 114.77 150.759 114.588C150.65 114.442 150.613 114.297 150.613 114.042C150.613 113.97 150.613 113.933 150.613 113.86H151.015Z" fill="#4C4C4C"/>
<path d="M152.624 111.606C153.026 111.606 153.172 111.643 153.282 111.825C153.428 112.006 153.464 112.152 153.464 112.552C153.464 112.989 153.428 113.134 153.282 113.28C153.172 113.425 152.953 113.498 152.697 113.498H152.661V114.808H152.223V111.606H152.624ZM152.697 113.098C152.953 113.098 153.026 113.025 153.026 112.552C153.026 112.116 152.99 112.006 152.697 112.006H152.661V113.061H152.697V113.098Z" fill="#4C4C4C"/>
<path d="M155.065 113.97C155.065 114.333 155.065 114.442 154.955 114.552C154.846 114.697 154.663 114.806 154.407 114.806C154.188 114.806 153.969 114.697 153.86 114.552C153.787 114.406 153.75 114.333 153.75 113.97V112.405C153.75 112.042 153.75 111.932 153.86 111.823C153.969 111.678 154.152 111.569 154.407 111.569C154.627 111.569 154.846 111.678 154.955 111.823C155.028 111.969 155.065 112.042 155.065 112.405V113.97ZM154.59 112.223C154.59 112.042 154.553 111.969 154.407 111.969C154.261 111.969 154.225 112.042 154.225 112.223V114.151C154.225 114.333 154.261 114.406 154.407 114.406C154.553 114.406 154.59 114.333 154.59 114.151V112.223Z" fill="#4C4C4C"/>
<path d="M155.869 111.605C156.234 111.605 156.38 111.678 156.527 111.823C156.636 111.969 156.709 112.187 156.709 112.478C156.709 112.878 156.673 113.024 156.49 113.242L156.819 114.77H156.344L156.088 113.388C156.015 113.388 156.015 113.388 155.942 113.424V114.77H155.504V111.569H155.869V111.605ZM155.942 112.987C156.088 112.987 156.161 112.951 156.198 112.878C156.234 112.805 156.234 112.733 156.234 112.442C156.234 112.114 156.161 112.005 155.906 112.005H155.833V112.987H155.942Z" fill="#4C4C4C"/>
<path d="M157.37 112.006H156.969V111.606H158.284V112.006H157.845V114.771H157.407V112.006H157.37Z" fill="#4C4C4C"/>
<path d="M180.854 144.051H122.785V150.599H180.854V144.051Z" fill="#E6E6E6"/>
<path d="M139.037 118.479H124.867V136.05H139.037V118.479Z" fill="#F4F4F4"/>
<path d="M137.502 146.816L136.625 146.416V146.198L137.502 145.834V146.089L136.881 146.307L137.502 146.562V146.816Z" fill="#4C4C4C"/>
<path d="M138.548 146.816L137.672 146.416V146.198L138.548 145.834V146.089L137.928 146.307L138.548 146.562V146.816Z" fill="#4C4C4C"/>
<path d="M139.642 146.816L138.766 146.416V146.198L139.642 145.834V146.089L139.021 146.307L139.642 146.562V146.816Z" fill="#4C4C4C"/>
<path d="M140.712 146.816L139.836 146.416V146.198L140.712 145.834V146.089L140.092 146.307L140.712 146.562V146.816Z" fill="#4C4C4C"/>
<path d="M141.728 146.816L140.852 146.416V146.198L141.728 145.834V146.089L141.107 146.307L141.728 146.562V146.816Z" fill="#4C4C4C"/>
<path d="M142.791 146.816L141.914 146.416V146.198L142.791 145.834V146.089L142.17 146.307L142.791 146.562V146.816Z" fill="#4C4C4C"/>
<path d="M143.849 146.816L142.973 146.416V146.198L143.849 145.834V146.089L143.228 146.307L143.849 146.562V146.816Z" fill="#4C4C4C"/>
<path d="M144.873 146.816L143.996 146.416V146.198L144.873 145.834V146.089L144.252 146.307L144.873 146.562V146.816Z" fill="#4C4C4C"/>
<path d="M145.927 146.816L145.051 146.416V146.198L145.927 145.834V146.089L145.306 146.307L145.927 146.562V146.816Z" fill="#4C4C4C"/>
<path d="M146.986 146.816L146.109 146.416V146.198L146.986 145.834V146.089L146.365 146.307L146.986 146.562V146.816Z" fill="#4C4C4C"/>
<path d="M127.158 146.816L126.281 146.416V146.198L127.158 145.834V146.089L126.537 146.307L127.158 146.562V146.816Z" fill="#4C4C4C"/>
<path d="M128.177 146.817L127.301 146.417V146.198L128.177 145.835V146.089L127.556 146.307L128.177 146.562V146.817Z" fill="#4C4C4C"/>
<path d="M129.279 146.817L128.402 146.417V146.198L129.279 145.835V146.089L128.658 146.307L129.279 146.562V146.817Z" fill="#4C4C4C"/>
<path d="M123.978 146.816L123.102 146.416V146.198L123.978 145.834V146.088L123.357 146.307L123.978 146.561V146.816Z" fill="#4C4C4C"/>
<path d="M125.041 146.816L124.164 146.416V146.198L125.041 145.834V146.089L124.42 146.307L125.041 146.562V146.816Z" fill="#4C4C4C"/>
<path d="M126.134 146.816L125.258 146.416V146.198L126.134 145.834V146.089L125.513 146.307L126.134 146.562V146.816Z" fill="#4C4C4C"/>
<path d="M130.334 146.817L129.457 146.417V146.198L130.334 145.835V146.089L129.713 146.307L130.334 146.562V146.817Z" fill="#4C4C4C"/>
<path d="M131.392 146.816L130.516 146.416V146.198L131.392 145.834V146.089L130.771 146.307L131.392 146.562V146.816Z" fill="#4C4C4C"/>
<path d="M132.451 146.816L131.574 146.416V146.198L132.451 145.834V146.089L131.83 146.307L132.451 146.562V146.816Z" fill="#4C4C4C"/>
<path d="M133.478 146.816L132.602 146.416V146.198L133.478 145.834V146.089L132.857 146.307L133.478 146.562V146.816Z" fill="#4C4C4C"/>
<path d="M134.537 146.816L133.66 146.416V146.198L134.537 145.834V146.089L133.916 146.307L134.537 146.562V146.816Z" fill="#4C4C4C"/>
<path d="M135.591 146.817L134.715 146.417V146.198L135.591 145.835V146.089L134.97 146.307L135.591 146.562V146.817Z" fill="#4C4C4C"/>
<path d="M136.615 146.816L135.738 146.416V146.198L136.615 145.834V146.089L135.994 146.307L136.615 146.562V146.816Z" fill="#4C4C4C"/>
<path d="M148.048 146.816L147.172 146.416V146.198L148.048 145.834V146.089L147.428 146.307L148.048 146.562V146.816Z" fill="#4C4C4C"/>
<path d="M149.072 146.817L148.195 146.417V146.198L149.072 145.835V146.089L148.451 146.307L149.072 146.562V146.817Z" fill="#4C4C4C"/>
<path d="M150.13 146.817L149.254 146.417V146.198L150.13 145.835V146.089L149.51 146.307L150.13 146.562V146.817Z" fill="#4C4C4C"/>
<path d="M151.193 146.817L150.316 146.417V146.198L151.193 145.835V146.089L150.572 146.307L151.193 146.562V146.817Z" fill="#4C4C4C"/>
<path d="M152.244 146.816L151.367 146.416V146.198L152.244 145.834V146.089L151.623 146.307L152.244 146.562V146.816Z" fill="#4C4C4C"/>
<path d="M153.267 146.816L152.391 146.416V146.198L153.267 145.834V146.089L152.646 146.307L153.267 146.562V146.816Z" fill="#4C4C4C"/>
<path d="M154.33 146.816L153.453 146.416V146.198L154.33 145.834V146.089L153.709 146.307L154.33 146.562V146.816Z" fill="#4C4C4C"/>
<path d="M155.38 146.816L154.504 146.416V146.198L155.38 145.834V146.089L154.76 146.307L155.38 146.562V146.816Z" fill="#4C4C4C"/>
<path d="M156.451 146.816L155.574 146.416V146.198L156.451 145.834V146.089L155.83 146.307L156.451 146.562V146.816Z" fill="#4C4C4C"/>
<path d="M157.466 146.816L156.59 146.416V146.198L157.466 145.834V146.089L156.845 146.307L157.466 146.562V146.816Z" fill="#4C4C4C"/>
<path d="M158.533 146.817L157.656 146.417V146.198L158.533 145.835V146.089L157.912 146.307L158.533 146.562V146.817Z" fill="#4C4C4C"/>
<path d="M159.587 146.817L158.711 146.417V146.198L159.587 145.835V146.089L158.967 146.307L159.587 146.562V146.817Z" fill="#4C4C4C"/>
<path d="M160.646 146.816L159.77 146.416V146.198L160.646 145.834V146.089L160.025 146.307L160.646 146.562V146.816Z" fill="#4C4C4C"/>
<path d="M161.669 146.816L160.793 146.416V146.198L161.669 145.834V146.089L161.049 146.307L161.669 146.562V146.816Z" fill="#4C4C4C"/>
<path d="M162.732 146.816L161.855 146.416V146.198L162.732 145.834V146.089L162.111 146.307L162.732 146.562V146.816Z" fill="#4C4C4C"/>
<path d="M163.791 146.816L162.914 146.416V146.198L163.791 145.834V146.089L163.17 146.307L163.791 146.562V146.816Z" fill="#4C4C4C"/>
<path d="M164.814 146.816L163.938 146.416V146.198L164.814 145.834V146.089L164.193 146.307L164.814 146.562V146.816Z" fill="#4C4C4C"/>
<path d="M165.869 146.817L164.992 146.417V146.198L165.869 145.835V146.089L165.248 146.307L165.869 146.562V146.817Z" fill="#4C4C4C"/>
<path d="M166.927 146.816L166.051 146.416V146.198L166.927 145.834V146.089L166.306 146.307L166.927 146.562V146.816Z" fill="#4C4C4C"/>
<path d="M167.99 146.817L167.113 146.417V146.198L167.99 145.835V146.089L167.369 146.307L167.99 146.562V146.817Z" fill="#4C4C4C"/>
<path d="M169.013 146.816L168.137 146.416V146.198L169.013 145.834V146.089L168.392 146.307L169.013 146.562V146.816Z" fill="#4C4C4C"/>
<path d="M170.064 146.816L169.188 146.416V146.198L170.064 145.834V146.089L169.443 146.307L170.064 146.562V146.816Z" fill="#4C4C4C"/>
<path d="M171.127 146.816L170.25 146.416V146.198L171.127 145.834V146.089L170.506 146.307L171.127 146.562V146.816Z" fill="#4C4C4C"/>
<path d="M172.185 146.817L171.309 146.417V146.198L172.185 145.835V146.089L171.564 146.307L172.185 146.562V146.817Z" fill="#4C4C4C"/>
<path d="M173.209 146.817L172.332 146.417V146.198L173.209 145.835V146.089L172.588 146.307L173.209 146.562V146.817Z" fill="#4C4C4C"/>
<path d="M174.271 146.816L173.395 146.416V146.198L174.271 145.834V146.089L173.65 146.307L174.271 146.562V146.816Z" fill="#4C4C4C"/>
<path d="M175.322 146.817L174.445 146.417V146.198L175.322 145.835V146.089L174.701 146.307L175.322 146.562V146.817Z" fill="#4C4C4C"/>
<path d="M176.384 146.816L175.508 146.416V146.198L176.384 145.834V146.089L175.763 146.307L176.384 146.562V146.816Z" fill="#4C4C4C"/>
<path d="M177.416 146.816L176.539 146.416V146.198L177.416 145.834V146.089L176.795 146.307L177.416 146.562V146.816Z" fill="#4C4C4C"/>
<path d="M178.47 146.816L177.594 146.416V146.198L178.47 145.834V146.089L177.849 146.307L178.47 146.562V146.816Z" fill="#4C4C4C"/>
<path d="M179.529 146.816L178.652 146.416V146.198L179.529 145.834V146.089L178.908 146.307L179.529 146.562V146.816Z" fill="#4C4C4C"/>
<path d="M125.817 149.072H125.525L125.416 148.781H124.904L124.795 149.072H124.539L125.05 147.799H125.343L125.817 149.072ZM125.343 148.563L125.16 148.09L124.977 148.563H125.343Z" fill="#4C4C4C"/>
<path d="M127.209 149.072H126.917L126.808 148.781H126.296L126.187 149.072H125.895L126.406 147.799H126.698L127.209 149.072ZM126.735 148.563L126.552 148.09L126.369 148.563H126.735Z" fill="#4C4C4C"/>
<path d="M127.827 149.072H127.571V148.163C127.498 148.235 127.388 148.308 127.242 148.344V148.126C127.315 148.09 127.388 148.053 127.461 148.017C127.534 147.944 127.571 147.908 127.607 147.799H127.79V149.072H127.827Z" fill="#4C4C4C"/>
<path d="M129.021 148.854V149.072H128.145C128.145 148.999 128.181 148.89 128.218 148.817C128.254 148.745 128.364 148.635 128.51 148.526C128.619 148.417 128.692 148.344 128.729 148.308C128.765 148.272 128.765 148.199 128.765 148.163C128.765 148.09 128.765 148.053 128.729 148.053C128.692 148.017 128.656 148.017 128.619 148.017C128.583 148.017 128.51 148.017 128.51 148.053C128.473 148.09 128.473 148.126 128.473 148.199L128.181 148.163C128.181 148.017 128.254 147.944 128.327 147.872C128.4 147.799 128.51 147.799 128.619 147.799C128.729 147.799 128.838 147.835 128.911 147.908C128.985 147.981 129.021 148.053 129.021 148.163C129.021 148.235 129.021 148.272 128.985 148.344C128.948 148.381 128.948 148.454 128.875 148.526C128.838 148.563 128.802 148.635 128.729 148.672C128.656 148.745 128.619 148.781 128.583 148.817C128.546 148.854 128.546 148.854 128.546 148.89H129.021V148.854Z" fill="#4C4C4C"/>
<path d="M129.168 148.744L129.424 148.708C129.424 148.781 129.46 148.817 129.497 148.854C129.533 148.89 129.57 148.89 129.606 148.89C129.643 148.89 129.716 148.854 129.752 148.817C129.789 148.781 129.789 148.744 129.789 148.672C129.789 148.599 129.789 148.563 129.752 148.526C129.716 148.49 129.679 148.49 129.643 148.49C129.606 148.49 129.57 148.49 129.533 148.526L129.57 148.308C129.643 148.308 129.679 148.308 129.716 148.271C129.752 148.235 129.752 148.199 129.752 148.162C129.752 148.126 129.752 148.09 129.716 148.053C129.679 148.017 129.643 148.017 129.606 148.017C129.57 148.017 129.533 148.017 129.497 148.053C129.46 148.09 129.46 148.126 129.46 148.199L129.241 148.162C129.241 148.09 129.278 148.017 129.314 147.98C129.351 147.944 129.387 147.908 129.46 147.871C129.533 147.835 129.57 147.835 129.643 147.835C129.752 147.835 129.862 147.871 129.935 147.944C130.008 148.017 130.008 148.09 130.008 148.162C130.008 148.271 129.935 148.381 129.825 148.417C129.898 148.417 129.971 148.453 130.008 148.526C130.044 148.599 130.081 148.635 130.081 148.708C130.081 148.817 130.044 148.926 129.971 148.999C129.898 149.072 129.789 149.108 129.679 149.108C129.57 149.108 129.46 149.072 129.387 148.999C129.241 148.926 129.204 148.854 129.168 148.744Z" fill="#4C4C4C"/>
<path d="M130.66 149.072V148.817H130.148V148.599L130.696 147.799H130.915V148.599H131.061V148.817H130.915V149.072H130.66ZM130.66 148.599V148.163L130.368 148.599H130.66Z" fill="#4C4C4C"/>
<path d="M131.219 148.745L131.474 148.708C131.474 148.781 131.511 148.817 131.547 148.854C131.584 148.89 131.62 148.89 131.657 148.89C131.694 148.89 131.767 148.854 131.803 148.817C131.84 148.781 131.84 148.708 131.84 148.635C131.84 148.563 131.84 148.49 131.803 148.454C131.767 148.417 131.73 148.381 131.657 148.381C131.584 148.381 131.511 148.417 131.474 148.49L131.292 148.454L131.401 147.799H132.059V148.017H131.584L131.547 148.235C131.62 148.199 131.657 148.199 131.73 148.199C131.84 148.199 131.949 148.235 132.022 148.308C132.095 148.381 132.132 148.49 132.132 148.599C132.132 148.708 132.095 148.781 132.022 148.89C131.949 148.999 131.84 149.072 131.657 149.072C131.547 149.072 131.438 149.036 131.365 148.963C131.255 148.927 131.219 148.854 131.219 148.745Z" fill="#4C4C4C"/>
<path d="M133.048 148.09L132.793 148.126C132.793 148.09 132.756 148.054 132.756 148.017C132.72 147.981 132.683 147.981 132.647 147.981C132.61 147.981 132.537 148.017 132.501 148.054C132.464 148.09 132.428 148.199 132.428 148.345C132.501 148.272 132.574 148.236 132.647 148.236C132.756 148.236 132.829 148.272 132.902 148.345C132.975 148.417 133.012 148.527 133.012 148.636C133.012 148.781 132.975 148.854 132.902 148.963C132.829 149.072 132.72 149.072 132.61 149.072C132.464 149.072 132.391 149.036 132.281 148.927C132.208 148.818 132.172 148.672 132.172 148.417C132.172 148.199 132.208 148.017 132.318 147.908C132.391 147.799 132.501 147.763 132.647 147.763C132.756 147.763 132.829 147.799 132.902 147.835C132.975 147.908 133.012 148.017 133.048 148.09ZM132.464 148.636C132.464 148.708 132.501 148.781 132.537 148.818C132.574 148.854 132.61 148.89 132.647 148.89C132.683 148.89 132.72 148.89 132.756 148.854C132.793 148.818 132.793 148.745 132.793 148.672C132.793 148.599 132.793 148.527 132.756 148.49C132.72 148.454 132.683 148.417 132.647 148.417C132.61 148.417 132.574 148.454 132.537 148.49C132.501 148.527 132.464 148.563 132.464 148.636Z" fill="#4C4C4C"/>
<path d="M133.188 148.053V147.799H134.027V147.981C133.954 148.053 133.881 148.163 133.808 148.272C133.735 148.417 133.699 148.526 133.626 148.672C133.589 148.817 133.553 148.926 133.553 149.072H133.297C133.297 148.89 133.334 148.708 133.407 148.526C133.48 148.344 133.553 148.163 133.699 148.017H133.188V148.053Z" fill="#4C4C4C"/>
<path d="M134.394 148.381C134.321 148.345 134.284 148.308 134.247 148.272C134.211 148.236 134.211 148.163 134.211 148.126C134.211 148.017 134.247 147.945 134.32 147.872C134.394 147.799 134.467 147.763 134.613 147.763C134.722 147.763 134.832 147.799 134.905 147.872C134.978 147.945 135.014 148.017 135.014 148.126C135.014 148.199 135.014 148.236 134.978 148.272C134.941 148.308 134.905 148.345 134.832 148.381C134.905 148.417 134.941 148.454 134.978 148.49C135.014 148.563 135.051 148.599 135.051 148.672C135.051 148.781 135.014 148.89 134.941 148.963C134.868 149.036 134.759 149.072 134.649 149.072C134.54 149.072 134.43 149.036 134.357 148.963C134.247 148.89 134.211 148.781 134.211 148.672C134.211 148.599 134.211 148.527 134.247 148.49C134.284 148.454 134.321 148.417 134.394 148.381ZM134.43 148.672C134.43 148.745 134.43 148.781 134.467 148.818C134.503 148.854 134.54 148.89 134.613 148.89C134.649 148.89 134.722 148.854 134.722 148.818C134.759 148.781 134.759 148.745 134.759 148.672C134.759 148.599 134.759 148.563 134.722 148.527C134.686 148.49 134.649 148.454 134.576 148.454C134.503 148.454 134.467 148.49 134.43 148.527C134.467 148.599 134.43 148.636 134.43 148.672ZM134.467 148.126C134.467 148.163 134.467 148.199 134.503 148.236C134.54 148.272 134.576 148.272 134.613 148.272C134.649 148.272 134.686 148.272 134.722 148.236C134.759 148.199 134.759 148.163 134.759 148.126C134.759 148.09 134.759 148.054 134.722 148.017C134.686 147.981 134.649 147.981 134.613 147.981C134.576 147.981 134.54 147.981 134.503 148.017C134.467 148.054 134.467 148.09 134.467 148.126Z" fill="#4C4C4C"/>
<path d="M135.199 148.781L135.455 148.745C135.455 148.781 135.491 148.817 135.491 148.854C135.528 148.89 135.564 148.89 135.601 148.89C135.637 148.89 135.711 148.854 135.747 148.817C135.784 148.781 135.82 148.672 135.82 148.526C135.747 148.599 135.674 148.635 135.601 148.635C135.491 148.635 135.418 148.599 135.345 148.526C135.272 148.454 135.236 148.344 135.236 148.235C135.236 148.09 135.272 148.017 135.345 147.908C135.418 147.835 135.528 147.799 135.637 147.799C135.784 147.799 135.893 147.835 135.966 147.944C136.039 148.053 136.076 148.199 136.076 148.454C136.076 148.672 136.039 148.854 135.93 148.963C135.857 149.072 135.747 149.108 135.601 149.108C135.491 149.108 135.418 149.072 135.345 149.036C135.272 148.963 135.236 148.89 135.199 148.781ZM135.747 148.235C135.747 148.163 135.711 148.09 135.674 148.053C135.637 148.017 135.601 147.981 135.564 147.981C135.528 147.981 135.491 147.981 135.455 148.017C135.418 148.053 135.418 148.126 135.418 148.199C135.418 148.272 135.418 148.344 135.455 148.381C135.491 148.417 135.528 148.454 135.564 148.454C135.601 148.454 135.637 148.417 135.674 148.381C135.747 148.381 135.747 148.308 135.747 148.235Z" fill="#4C4C4C"/>
<path d="M136.617 147.799C136.726 147.799 136.836 147.835 136.909 147.944C136.982 148.053 137.018 148.235 137.018 148.454C137.018 148.708 136.982 148.854 136.909 148.963C136.836 149.036 136.726 149.108 136.617 149.108C136.507 149.108 136.397 149.072 136.324 148.963C136.251 148.854 136.215 148.708 136.215 148.454C136.215 148.199 136.251 148.053 136.324 147.944C136.397 147.835 136.47 147.799 136.617 147.799ZM136.617 147.981C136.58 147.981 136.544 147.981 136.544 148.017C136.507 148.053 136.507 148.053 136.507 148.126C136.507 148.199 136.47 148.308 136.47 148.454C136.47 148.599 136.47 148.708 136.507 148.781C136.507 148.854 136.544 148.89 136.58 148.89C136.617 148.926 136.617 148.927 136.653 148.927C136.69 148.927 136.726 148.926 136.726 148.89C136.763 148.854 136.763 148.854 136.763 148.781C136.763 148.708 136.799 148.599 136.799 148.454C136.799 148.308 136.799 148.199 136.763 148.126C136.763 148.053 136.726 148.017 136.69 148.017C136.653 148.017 136.653 147.981 136.617 147.981Z" fill="#4C4C4C"/>
<path d="M138.189 148.926L137.312 148.526V148.308L138.189 147.944V148.199L137.568 148.417L138.189 148.672V148.926Z" fill="#4C4C4C"/>
<path d="M138.917 147.799C139.027 147.799 139.136 147.835 139.21 147.944C139.283 148.053 139.319 148.235 139.319 148.454C139.319 148.708 139.283 148.854 139.21 148.963C139.136 149.036 139.027 149.108 138.917 149.108C138.808 149.108 138.698 149.072 138.625 148.963C138.552 148.854 138.516 148.708 138.516 148.454C138.516 148.199 138.552 148.053 138.625 147.944C138.662 147.835 138.771 147.799 138.917 147.799ZM138.917 147.981C138.881 147.981 138.844 147.981 138.844 148.017C138.808 148.053 138.808 148.053 138.808 148.126C138.808 148.199 138.771 148.308 138.771 148.454C138.771 148.599 138.771 148.708 138.808 148.781C138.808 148.854 138.844 148.89 138.881 148.89C138.917 148.926 138.917 148.927 138.954 148.927C138.99 148.927 139.027 148.926 139.027 148.89C139.063 148.854 139.063 148.854 139.063 148.781C139.063 148.708 139.1 148.599 139.1 148.454C139.1 148.308 139.1 148.199 139.063 148.126C139.063 148.053 139.027 148.017 138.99 148.017C138.954 148.017 138.917 147.981 138.917 147.981Z" fill="#4C4C4C"/>
<path d="M140.135 149.072H139.879V148.163C139.806 148.235 139.697 148.308 139.551 148.344V148.126C139.624 148.09 139.697 148.053 139.77 148.017C139.843 147.944 139.879 147.908 139.916 147.799H140.099V149.072H140.135Z" fill="#4C4C4C"/>
<path d="M141.334 148.854V149.072H140.457C140.457 148.999 140.494 148.89 140.53 148.817C140.567 148.745 140.676 148.635 140.822 148.526C140.932 148.417 141.005 148.344 141.041 148.308C141.078 148.272 141.078 148.199 141.078 148.163C141.078 148.09 141.078 148.053 141.041 148.053C141.005 148.017 140.968 148.017 140.932 148.017C140.895 148.017 140.822 148.017 140.822 148.053C140.786 148.09 140.786 148.126 140.786 148.199L140.53 148.163C140.53 148.017 140.603 147.944 140.676 147.872C140.749 147.799 140.859 147.799 140.968 147.799C141.078 147.799 141.187 147.835 141.26 147.908C141.334 147.981 141.37 148.053 141.37 148.163C141.37 148.235 141.37 148.272 141.334 148.344C141.297 148.381 141.297 148.454 141.224 148.526C141.187 148.563 141.151 148.635 141.078 148.672C141.005 148.745 140.968 148.781 140.932 148.817C140.895 148.854 140.895 148.854 140.895 148.89H141.334V148.854Z" fill="#4C4C4C"/>
<path d="M141.48 148.744L141.736 148.708C141.736 148.781 141.773 148.817 141.809 148.854C141.846 148.89 141.882 148.89 141.919 148.89C141.955 148.89 142.028 148.854 142.065 148.817C142.101 148.781 142.101 148.744 142.101 148.672C142.101 148.599 142.101 148.563 142.065 148.526C142.028 148.49 141.992 148.49 141.955 148.49C141.919 148.49 141.882 148.49 141.846 148.526L141.882 148.308C141.955 148.308 141.992 148.308 142.028 148.271C142.065 148.235 142.065 148.199 142.065 148.162C142.065 148.126 142.065 148.09 142.028 148.053C141.992 148.017 141.955 148.017 141.919 148.017C141.882 148.017 141.846 148.017 141.809 148.053C141.773 148.09 141.773 148.126 141.773 148.199L141.554 148.162C141.554 148.09 141.59 148.017 141.627 147.98C141.663 147.944 141.7 147.908 141.773 147.871C141.846 147.835 141.882 147.835 141.955 147.835C142.065 147.835 142.174 147.871 142.247 147.944C142.32 148.017 142.32 148.09 142.32 148.162C142.32 148.271 142.247 148.381 142.138 148.417C142.211 148.417 142.284 148.453 142.32 148.526C142.357 148.599 142.394 148.635 142.394 148.708C142.394 148.817 142.357 148.926 142.284 148.999C142.211 149.072 142.101 149.108 141.992 149.108C141.882 149.108 141.773 149.072 141.7 148.999C141.554 148.926 141.48 148.854 141.48 148.744Z" fill="#4C4C4C"/>
<path d="M142.981 149.072V148.817H142.434V148.599L142.981 147.799H143.201V148.599H143.347V148.817H143.201V149.072H142.981ZM142.981 148.599V148.163L142.689 148.599H142.981Z" fill="#4C4C4C"/>
<path d="M143.484 148.745L143.74 148.708C143.74 148.781 143.777 148.817 143.813 148.854C143.85 148.89 143.886 148.89 143.923 148.89C143.959 148.89 144.032 148.854 144.069 148.817C144.105 148.781 144.105 148.708 144.105 148.635C144.105 148.563 144.105 148.49 144.069 148.454C144.032 148.417 143.996 148.381 143.923 148.381C143.85 148.381 143.777 148.417 143.74 148.49L143.557 148.454L143.667 147.799H144.324V148.017H143.85L143.813 148.235C143.886 148.199 143.923 148.199 143.996 148.199C144.105 148.199 144.215 148.235 144.288 148.308C144.361 148.381 144.397 148.49 144.397 148.599C144.397 148.708 144.361 148.781 144.288 148.89C144.215 148.999 144.105 149.072 143.923 149.072C143.813 149.072 143.704 149.036 143.63 148.963C143.557 148.927 143.484 148.854 143.484 148.745Z" fill="#4C4C4C"/>
<path d="M145.314 148.09L145.058 148.126C145.058 148.09 145.022 148.054 145.022 148.017C144.985 147.981 144.949 147.981 144.912 147.981C144.876 147.981 144.803 148.017 144.766 148.054C144.73 148.09 144.693 148.199 144.693 148.345C144.766 148.272 144.839 148.236 144.912 148.236C145.022 148.236 145.095 148.272 145.168 148.345C145.241 148.417 145.277 148.527 145.277 148.636C145.277 148.781 145.241 148.854 145.168 148.963C145.095 149.036 144.985 149.072 144.876 149.072C144.73 149.072 144.657 149.036 144.547 148.927C144.474 148.818 144.438 148.672 144.438 148.417C144.438 148.199 144.474 148.017 144.584 147.908C144.657 147.799 144.766 147.763 144.912 147.763C145.022 147.763 145.095 147.799 145.168 147.835C145.277 147.908 145.314 148.017 145.314 148.09ZM144.766 148.636C144.766 148.708 144.803 148.781 144.839 148.818C144.876 148.854 144.912 148.89 144.949 148.89C144.985 148.89 145.022 148.89 145.058 148.854C145.095 148.818 145.095 148.745 145.095 148.672C145.095 148.599 145.095 148.527 145.058 148.49C145.022 148.454 144.985 148.417 144.949 148.417C144.912 148.417 144.876 148.454 144.839 148.49C144.766 148.527 144.766 148.563 144.766 148.636Z" fill="#4C4C4C"/>
<path d="M145.5 148.053V147.799H146.34V147.981C146.267 148.053 146.194 148.163 146.121 148.272C146.048 148.417 146.011 148.526 145.938 148.672C145.902 148.817 145.865 148.926 145.865 149.072H145.61C145.61 148.89 145.646 148.708 145.719 148.526C145.792 148.344 145.865 148.163 146.011 148.017H145.5V148.053Z" fill="#4C4C4C"/>
<path d="M146.706 148.381C146.633 148.345 146.596 148.308 146.56 148.272C146.523 148.236 146.523 148.163 146.523 148.126C146.523 148.017 146.56 147.945 146.633 147.872C146.706 147.799 146.779 147.763 146.925 147.763C147.035 147.763 147.144 147.799 147.217 147.872C147.29 147.945 147.327 148.017 147.327 148.126C147.327 148.199 147.327 148.236 147.29 148.272C147.254 148.308 147.217 148.345 147.144 148.381C147.217 148.417 147.254 148.454 147.29 148.49C147.327 148.563 147.363 148.599 147.363 148.672C147.363 148.781 147.327 148.89 147.254 148.963C147.181 149.036 147.071 149.072 146.962 149.072C146.852 149.072 146.743 149.036 146.67 148.963C146.56 148.89 146.523 148.781 146.523 148.672C146.523 148.599 146.523 148.527 146.56 148.49C146.56 148.454 146.633 148.417 146.706 148.381ZM146.743 148.672C146.743 148.745 146.743 148.781 146.779 148.818C146.816 148.854 146.852 148.89 146.925 148.89C146.962 148.89 147.035 148.854 147.035 148.818C147.071 148.781 147.071 148.745 147.071 148.672C147.071 148.599 147.071 148.563 147.035 148.527C146.998 148.49 146.962 148.454 146.889 148.454C146.816 148.454 146.779 148.49 146.743 148.527C146.743 148.599 146.743 148.636 146.743 148.672ZM146.743 148.126C146.743 148.163 146.743 148.199 146.779 148.236C146.816 148.272 146.852 148.272 146.889 148.272C146.925 148.272 146.962 148.272 146.998 148.236C147.035 148.199 147.035 148.163 147.035 148.126C147.035 148.09 147.035 148.054 146.998 148.017C146.962 147.981 146.925 147.981 146.889 147.981C146.852 147.981 146.816 147.981 146.779 148.017C146.779 148.054 146.743 148.09 146.743 148.126Z" fill="#4C4C4C"/>
<path d="M147.512 148.781L147.767 148.745C147.767 148.781 147.804 148.817 147.804 148.854C147.84 148.89 147.877 148.89 147.913 148.89C147.95 148.89 148.023 148.854 148.06 148.817C148.096 148.781 148.133 148.672 148.133 148.526C148.06 148.599 147.986 148.635 147.913 148.635C147.804 148.635 147.731 148.599 147.658 148.526C147.585 148.454 147.548 148.344 147.548 148.235C147.548 148.09 147.585 148.017 147.658 147.908C147.731 147.835 147.84 147.799 147.95 147.799C148.096 147.799 148.206 147.835 148.279 147.944C148.352 148.053 148.388 148.199 148.388 148.454C148.388 148.672 148.352 148.854 148.242 148.963C148.169 149.072 148.06 149.108 147.913 149.108C147.804 149.108 147.731 149.072 147.658 149.036C147.548 148.963 147.512 148.89 147.512 148.781ZM148.06 148.235C148.06 148.163 148.023 148.09 147.987 148.053C147.95 148.017 147.913 147.981 147.877 147.981C147.84 147.981 147.804 147.981 147.767 148.017C147.731 148.053 147.731 148.126 147.731 148.199C147.731 148.272 147.731 148.344 147.767 148.381C147.804 148.417 147.84 148.454 147.877 148.454C147.913 148.454 147.95 148.417 147.987 148.381C148.023 148.381 148.06 148.308 148.06 148.235Z" fill="#4C4C4C"/>
<path d="M149.369 148.926L148.492 148.526V148.308L149.369 147.944V148.199L148.748 148.417L149.369 148.672V148.926Z" fill="#4C4C4C"/>
<path d="M150.427 148.926L149.551 148.526V148.308L150.427 147.944V148.199L149.806 148.417L150.427 148.672V148.926Z" fill="#4C4C4C"/>
<path d="M151.486 148.926L150.609 148.526V148.308L151.486 147.944V148.199L150.865 148.417L151.486 148.672V148.926Z" fill="#4C4C4C"/>
<path d="M152.505 148.926L151.629 148.526V148.308L152.505 147.944V148.199L151.885 148.417L152.505 148.672V148.926Z" fill="#4C4C4C"/>
<path d="M153.564 148.926L152.688 148.526V148.308L153.564 147.944V148.199L152.943 148.417L153.564 148.672V148.926Z" fill="#4C4C4C"/>
<path d="M154.623 148.926L153.746 148.526V148.308L154.623 147.944V148.199L154.002 148.417L154.623 148.672V148.926Z" fill="#4C4C4C"/>
<path d="M155.685 148.926L154.809 148.526V148.308L155.685 147.944V148.199L155.064 148.417L155.685 148.672V148.926Z" fill="#4C4C4C"/>
<path d="M156.709 148.926L155.832 148.526V148.308L156.709 147.944V148.199L156.088 148.417L156.709 148.672V148.926Z" fill="#4C4C4C"/>
<path d="M156.93 147.799H157.404C157.514 147.799 157.587 147.799 157.66 147.835C157.733 147.872 157.806 147.908 157.843 147.944C157.879 148.017 157.952 148.053 157.952 148.163C157.989 148.235 157.989 148.344 157.989 148.454C157.989 148.563 157.989 148.635 157.952 148.708C157.916 148.817 157.879 148.89 157.806 148.926C157.77 148.963 157.697 148.999 157.624 149.036C157.551 149.036 157.478 149.072 157.404 149.072H156.93V147.799ZM157.185 148.017V148.854H157.368C157.441 148.854 157.478 148.854 157.514 148.854C157.551 148.854 157.587 148.817 157.624 148.817C157.66 148.781 157.66 148.745 157.697 148.708C157.697 148.635 157.733 148.563 157.733 148.49C157.733 148.417 157.733 148.308 157.697 148.272C157.66 148.235 157.66 148.163 157.624 148.163C157.587 148.126 157.551 148.126 157.514 148.09C157.478 148.09 157.404 148.09 157.295 148.09H157.185V148.017Z" fill="#4C4C4C"/>
<path d="M158.242 147.799H158.717C158.827 147.799 158.9 147.799 158.973 147.835C159.046 147.872 159.119 147.908 159.155 147.944C159.192 148.017 159.265 148.053 159.265 148.163C159.301 148.235 159.301 148.344 159.301 148.454C159.301 148.563 159.301 148.635 159.265 148.708C159.228 148.817 159.192 148.89 159.119 148.926C159.082 148.963 159.009 148.999 158.936 149.036C158.863 149.036 158.79 149.072 158.717 149.072H158.242V147.799ZM158.498 148.017V148.854H158.68C158.753 148.854 158.79 148.854 158.827 148.854C158.863 148.854 158.9 148.817 158.936 148.817C158.973 148.781 158.973 148.745 159.009 148.708C159.009 148.635 159.046 148.563 159.046 148.49C159.046 148.417 159.046 148.308 159.009 148.272C158.973 148.235 158.973 148.163 158.936 148.163C158.9 148.126 158.863 148.126 158.827 148.09C158.79 148.09 158.717 148.09 158.607 148.09H158.498V148.017Z" fill="#4C4C4C"/>
<path d="M159.48 148.745V148.489H159.955V148.745H159.48Z" fill="#4C4C4C"/>
<path d="M160.137 149.072V147.799H160.538L160.758 148.672L160.977 147.799H161.378V149.072H161.123V148.053L160.867 149.072H160.611L160.356 148.053V149.072H160.137Z" fill="#4C4C4C"/>
<path d="M161.641 149.072V147.799H162.042L162.261 148.672L162.481 147.799H162.882V149.072H162.627V148.053L162.371 149.072H162.115L161.86 148.053V149.072H161.641Z" fill="#4C4C4C"/>
<path d="M163.102 148.745V148.489H163.576V148.745H163.102Z" fill="#4C4C4C"/>
<path d="M164.045 149.072V148.526L163.57 147.799H163.862L164.155 148.308L164.447 147.799H164.739L164.264 148.526V149.072H164.045Z" fill="#4C4C4C"/>
<path d="M165.252 149.072V148.526L164.777 147.799H165.07L165.362 148.308L165.654 147.799H165.946L165.471 148.526V149.072H165.252Z" fill="#4C4C4C"/>
<path d="M166.974 148.926L166.098 148.526V148.308L166.974 147.944V148.199L166.353 148.417L166.974 148.672V148.926Z" fill="#4C4C4C"/>
<path d="M167.998 148.926L167.121 148.526V148.308L167.998 147.944V148.199L167.377 148.417L167.998 148.672V148.926Z" fill="#4C4C4C"/>
<path d="M169.056 148.926L168.18 148.526V148.308L169.056 147.944V148.199L168.435 148.417L169.056 148.672V148.926Z" fill="#4C4C4C"/>
<path d="M170.119 148.926L169.242 148.526V148.308L170.119 147.944V148.199L169.498 148.417L170.119 148.672V148.926Z" fill="#4C4C4C"/>
<path d="M171.142 148.926L170.266 148.526V148.308L171.142 147.944V148.199L170.521 148.417L171.142 148.672V148.926Z" fill="#4C4C4C"/>
<path d="M172.193 148.926L171.316 148.526V148.308L172.193 147.944V148.199L171.572 148.417L172.193 148.672V148.926Z" fill="#4C4C4C"/>
<path d="M173.255 148.926L172.379 148.526V148.308L173.255 147.944V148.199L172.635 148.417L173.255 148.672V148.926Z" fill="#4C4C4C"/>
<path d="M174.314 148.926L173.438 148.526V148.308L174.314 147.944V148.199L173.693 148.417L174.314 148.672V148.926Z" fill="#4C4C4C"/>
<path d="M175.33 148.926L174.453 148.526V148.308L175.33 147.944V148.199L174.709 148.417L175.33 148.672V148.926Z" fill="#4C4C4C"/>
<path d="M176.4 148.926L175.523 148.526V148.308L176.4 147.944V148.199L175.779 148.417L176.4 148.672V148.926Z" fill="#4C4C4C"/>
<path d="M177.455 148.926L176.578 148.526V148.308L177.455 147.944V148.199L176.834 148.417L177.455 148.672V148.926Z" fill="#4C4C4C"/>
<path d="M178.513 148.926L177.637 148.526V148.308L178.513 147.944V148.199L177.892 148.417L178.513 148.672V148.926Z" fill="#4C4C4C"/>
<path d="M179.537 148.926L178.66 148.526V148.308L179.537 147.944V148.199L178.916 148.417L179.537 148.672V148.926Z" fill="#4C4C4C"/>
<path d="M162.08 118.113H161.642L161.459 117.676H160.692L160.546 118.113H160.145L160.875 116.185H161.277L162.08 118.113ZM161.386 117.385L161.131 116.694L160.875 117.385H161.386Z" fill="#4C4C4C"/>
<path d="M164.127 118.116H163.689L163.506 117.679H162.739L162.593 118.116H162.191L162.922 116.188H163.324L164.127 118.116ZM163.433 117.388L163.177 116.697L162.922 117.388H163.433Z" fill="#4C4C4C"/>
<path d="M165.117 118.113H164.752V116.731C164.606 116.84 164.46 116.949 164.277 117.022V116.694C164.387 116.658 164.46 116.622 164.606 116.513C164.716 116.44 164.789 116.331 164.825 116.221H165.117V118.113Z" fill="#4C4C4C"/>
<path d="M166.903 117.787V118.115H165.625C165.625 117.969 165.698 117.86 165.735 117.751C165.808 117.642 165.954 117.496 166.136 117.278C166.319 117.133 166.392 117.023 166.428 116.951C166.465 116.878 166.502 116.805 166.502 116.732C166.502 116.66 166.465 116.587 166.428 116.55C166.392 116.514 166.319 116.478 166.246 116.478C166.173 116.478 166.1 116.514 166.063 116.55C166.027 116.587 165.99 116.66 165.99 116.769L165.625 116.732C165.662 116.514 165.698 116.369 165.844 116.296C165.954 116.223 166.1 116.15 166.282 116.15C166.465 116.15 166.611 116.187 166.721 116.296C166.83 116.405 166.867 116.514 166.867 116.66C166.867 116.732 166.867 116.842 166.83 116.914C166.794 116.987 166.757 117.06 166.684 117.169C166.648 117.242 166.575 117.314 166.428 117.424C166.319 117.533 166.246 117.605 166.209 117.642C166.173 117.678 166.136 117.715 166.136 117.751H166.903V117.787Z" fill="#4C4C4C"/>
<path d="M167.121 117.604L167.486 117.567C167.486 117.64 167.523 117.713 167.596 117.786C167.632 117.822 167.705 117.859 167.778 117.859C167.852 117.859 167.925 117.822 167.961 117.786C167.998 117.713 168.034 117.64 168.034 117.567C168.034 117.458 167.998 117.386 167.961 117.349C167.925 117.313 167.852 117.276 167.778 117.276C167.742 117.276 167.669 117.276 167.596 117.313L167.632 117.022C167.742 117.022 167.815 116.985 167.852 116.949C167.888 116.913 167.925 116.84 167.925 116.767C167.925 116.694 167.888 116.658 167.852 116.622C167.815 116.585 167.778 116.549 167.705 116.549C167.632 116.549 167.596 116.585 167.559 116.622C167.523 116.658 167.486 116.731 167.486 116.804L167.158 116.731C167.194 116.622 167.231 116.513 167.267 116.44C167.304 116.367 167.377 116.331 167.45 116.294C167.523 116.258 167.632 116.221 167.742 116.221C167.925 116.221 168.071 116.294 168.18 116.403C168.253 116.513 168.326 116.585 168.326 116.731C168.326 116.913 168.217 117.022 168.034 117.131C168.144 117.167 168.217 117.204 168.29 117.276C168.363 117.349 168.399 117.458 168.399 117.567C168.399 117.749 168.326 117.895 168.217 118.004C168.107 118.113 167.925 118.186 167.742 118.186C167.559 118.186 167.413 118.15 167.304 118.04C167.194 117.931 167.158 117.786 167.121 117.604Z" fill="#4C4C4C"/>
<path d="M169.349 118.116V117.716H168.582V117.388L169.422 116.188H169.714V117.388H169.97V117.716H169.714V118.116H169.349ZM169.349 117.425V116.77L168.911 117.425H169.349Z" fill="#4C4C4C"/>
<path d="M170.113 117.644L170.478 117.608C170.478 117.68 170.515 117.753 170.588 117.79C170.661 117.826 170.698 117.862 170.771 117.862C170.844 117.862 170.917 117.826 170.953 117.753C170.99 117.68 171.026 117.608 171.026 117.462C171.026 117.353 170.99 117.244 170.953 117.207C170.917 117.135 170.844 117.135 170.734 117.135C170.625 117.135 170.552 117.171 170.442 117.28L170.15 117.244L170.332 116.262H171.318V116.589H170.625L170.552 116.916C170.625 116.88 170.734 116.844 170.807 116.844C170.953 116.844 171.099 116.916 171.209 117.026C171.318 117.135 171.392 117.28 171.392 117.499C171.392 117.644 171.355 117.79 171.245 117.935C171.136 118.117 170.953 118.19 170.734 118.19C170.552 118.19 170.405 118.153 170.296 118.044C170.223 117.935 170.15 117.79 170.113 117.644Z" fill="#4C4C4C"/>
<path d="M172.856 116.698L172.491 116.735C172.491 116.662 172.455 116.626 172.418 116.589C172.382 116.553 172.345 116.553 172.272 116.553C172.199 116.553 172.126 116.589 172.089 116.662C172.053 116.735 172.016 116.88 171.98 117.098C172.089 116.989 172.199 116.953 172.309 116.953C172.455 116.953 172.601 117.026 172.71 117.135C172.82 117.244 172.856 117.389 172.856 117.571C172.856 117.753 172.783 117.935 172.674 118.044C172.564 118.153 172.418 118.226 172.236 118.226C172.053 118.226 171.87 118.153 171.761 118.008C171.651 117.862 171.578 117.608 171.578 117.28C171.578 116.917 171.651 116.662 171.761 116.516C171.907 116.371 172.053 116.298 172.272 116.298C172.418 116.298 172.528 116.334 172.637 116.407C172.747 116.407 172.82 116.516 172.856 116.698ZM172.016 117.499C172.016 117.608 172.053 117.717 172.089 117.79C172.162 117.862 172.199 117.899 172.272 117.899C172.345 117.899 172.382 117.862 172.455 117.826C172.491 117.79 172.528 117.68 172.528 117.571C172.528 117.462 172.491 117.353 172.455 117.28C172.418 117.208 172.345 117.208 172.272 117.208C172.199 117.208 172.126 117.244 172.089 117.28C172.053 117.28 172.016 117.389 172.016 117.499Z" fill="#4C4C4C"/>
<path d="M173.113 116.589V116.262H174.355V116.516C174.245 116.625 174.136 116.771 174.026 116.953C173.917 117.135 173.844 117.353 173.771 117.571C173.698 117.79 173.698 117.971 173.698 118.153H173.332C173.332 117.899 173.405 117.608 173.478 117.353C173.588 117.062 173.734 116.844 173.88 116.625H173.113V116.589Z" fill="#4C4C4C"/>
<path d="M174.899 117.097C174.789 117.061 174.753 116.988 174.68 116.916C174.643 116.843 174.607 116.77 174.607 116.697C174.607 116.552 174.643 116.443 174.753 116.333C174.862 116.224 175.009 116.188 175.191 116.188C175.374 116.188 175.52 116.224 175.629 116.333C175.739 116.443 175.776 116.552 175.776 116.697C175.776 116.77 175.739 116.879 175.702 116.952C175.666 117.025 175.593 117.061 175.52 117.097C175.629 117.134 175.702 117.207 175.776 117.279C175.849 117.352 175.849 117.461 175.849 117.57C175.849 117.752 175.776 117.898 175.666 118.007C175.556 118.116 175.41 118.189 175.228 118.189C175.045 118.189 174.899 118.152 174.789 118.043C174.643 117.934 174.57 117.789 174.57 117.607C174.57 117.498 174.607 117.425 174.643 117.316C174.716 117.207 174.789 117.134 174.899 117.097ZM174.936 117.534C174.936 117.643 174.972 117.716 175.009 117.752C175.045 117.825 175.118 117.825 175.191 117.825C175.264 117.825 175.337 117.789 175.374 117.752C175.41 117.716 175.447 117.607 175.447 117.534C175.447 117.461 175.41 117.388 175.374 117.316C175.337 117.279 175.264 117.243 175.191 117.243C175.118 117.243 175.045 117.279 175.009 117.352C174.972 117.425 174.936 117.461 174.936 117.534ZM174.972 116.734C174.972 116.806 175.009 116.879 175.045 116.916C175.082 116.952 175.155 116.988 175.228 116.988C175.301 116.988 175.337 116.952 175.41 116.916C175.447 116.879 175.483 116.806 175.483 116.734C175.483 116.661 175.447 116.625 175.41 116.552C175.374 116.479 175.301 116.479 175.264 116.479C175.191 116.479 175.155 116.515 175.082 116.552C175.009 116.588 174.972 116.661 174.972 116.734Z" fill="#4C4C4C"/>
<path d="M176.07 117.678L176.436 117.642C176.436 117.715 176.472 117.751 176.509 117.787C176.545 117.824 176.582 117.824 176.655 117.824C176.728 117.824 176.801 117.787 176.837 117.715C176.874 117.642 176.91 117.496 176.947 117.278C176.837 117.387 176.728 117.424 176.618 117.424C176.472 117.424 176.326 117.351 176.216 117.242C176.107 117.133 176.07 116.987 176.07 116.805C176.07 116.623 176.143 116.441 176.253 116.332C176.362 116.223 176.509 116.15 176.691 116.15C176.874 116.15 177.056 116.223 177.166 116.369C177.276 116.514 177.349 116.769 177.349 117.096C177.349 117.46 177.276 117.715 177.166 117.86C177.02 118.006 176.874 118.078 176.655 118.078C176.509 118.078 176.399 118.042 176.289 117.969C176.18 117.969 176.107 117.86 176.07 117.678ZM176.91 116.878C176.91 116.769 176.874 116.66 176.837 116.587C176.801 116.514 176.728 116.478 176.655 116.478C176.582 116.478 176.545 116.514 176.472 116.55C176.436 116.587 176.399 116.696 176.399 116.805C176.399 116.914 176.436 117.023 176.472 117.06C176.509 117.133 176.582 117.133 176.655 117.133C176.728 117.133 176.801 117.096 176.837 117.06C176.91 117.06 176.91 116.987 176.91 116.878Z" fill="#4C4C4C"/>
<path d="M178.191 116.221C178.374 116.221 178.52 116.294 178.629 116.403C178.739 116.549 178.812 116.804 178.812 117.167C178.812 117.531 178.739 117.786 178.629 117.931C178.52 118.077 178.374 118.113 178.191 118.113C178.009 118.113 177.862 118.04 177.753 117.895C177.643 117.749 177.57 117.495 177.57 117.131C177.57 116.767 177.643 116.513 177.753 116.367C177.862 116.258 178.009 116.221 178.191 116.221ZM178.191 116.513C178.155 116.513 178.118 116.513 178.082 116.549C178.045 116.585 178.009 116.622 178.009 116.694C177.972 116.804 177.972 116.949 177.972 117.167C177.972 117.386 177.972 117.531 178.009 117.64C178.045 117.713 178.045 117.786 178.082 117.822C178.118 117.859 178.155 117.859 178.191 117.859C178.228 117.859 178.264 117.859 178.301 117.822C178.337 117.786 178.374 117.749 178.374 117.677C178.41 117.567 178.41 117.422 178.41 117.204C178.41 116.985 178.41 116.84 178.374 116.731C178.337 116.658 178.337 116.585 178.301 116.549C178.264 116.513 178.228 116.513 178.191 116.513Z" fill="#4C4C4C"/>
<path d="M177.303 104.542C177.444 104.542 177.558 104.428 177.558 104.287C177.558 104.146 177.444 104.032 177.303 104.032C177.161 104.032 177.047 104.146 177.047 104.287C177.047 104.428 177.161 104.542 177.303 104.542Z" fill="#B3B3B3"/>
<path d="M177.924 104.542C178.065 104.542 178.179 104.428 178.179 104.287C178.179 104.146 178.065 104.032 177.924 104.032C177.782 104.032 177.668 104.146 177.668 104.287C177.668 104.428 177.782 104.542 177.924 104.542Z" fill="#B3B3B3"/>
<path d="M178.545 104.542C178.686 104.542 178.8 104.428 178.8 104.287C178.8 104.146 178.686 104.032 178.545 104.032C178.404 104.032 178.289 104.146 178.289 104.287C178.289 104.428 178.404 104.542 178.545 104.542Z" fill="#B3B3B3"/>
<path d="M179.201 104.542C179.342 104.542 179.457 104.428 179.457 104.287C179.457 104.146 179.342 104.032 179.201 104.032C179.06 104.032 178.945 104.146 178.945 104.287C178.945 104.428 179.06 104.542 179.201 104.542Z" fill="#B3B3B3"/>
<path d="M176.646 103.921C176.787 103.921 176.902 103.807 176.902 103.666C176.902 103.526 176.787 103.412 176.646 103.412C176.505 103.412 176.391 103.526 176.391 103.666C176.391 103.807 176.505 103.921 176.646 103.921Z" fill="#B3B3B3"/>
<path d="M177.924 103.921C178.065 103.921 178.179 103.807 178.179 103.666C178.179 103.526 178.065 103.412 177.924 103.412C177.782 103.412 177.668 103.526 177.668 103.666C177.668 103.807 177.782 103.921 177.924 103.921Z" fill="#B3B3B3"/>
<path d="M176.646 103.303C176.787 103.303 176.902 103.189 176.902 103.048C176.902 102.908 176.787 102.794 176.646 102.794C176.505 102.794 176.391 102.908 176.391 103.048C176.391 103.189 176.505 103.303 176.646 103.303Z" fill="#B3B3B3"/>
<path d="M177.924 103.303C178.065 103.303 178.179 103.189 178.179 103.048C178.179 102.908 178.065 102.794 177.924 102.794C177.782 102.794 177.668 102.908 177.668 103.048C177.668 103.189 177.782 103.303 177.924 103.303Z" fill="#B3B3B3"/>
<path d="M177.303 102.65C177.444 102.65 177.558 102.536 177.558 102.395C177.558 102.255 177.444 102.141 177.303 102.141C177.161 102.141 177.047 102.255 177.047 102.395C177.047 102.536 177.161 102.65 177.303 102.65Z" fill="#B3B3B3"/>
<path d="M177.924 102.65C178.065 102.65 178.179 102.536 178.179 102.395C178.179 102.255 178.065 102.141 177.924 102.141C177.782 102.141 177.668 102.255 177.668 102.395C177.668 102.536 177.782 102.65 177.924 102.65Z" fill="#B3B3B3"/>
<path d="M178.545 102.65C178.686 102.65 178.8 102.536 178.8 102.395C178.8 102.255 178.686 102.141 178.545 102.141C178.404 102.141 178.289 102.255 178.289 102.395C178.289 102.536 178.404 102.65 178.545 102.65Z" fill="#B3B3B3"/>
<path d="M179.201 102.65C179.342 102.65 179.457 102.536 179.457 102.395C179.457 102.255 179.342 102.141 179.201 102.141C179.06 102.141 178.945 102.255 178.945 102.395C178.945 102.536 179.06 102.65 179.201 102.65Z" fill="#B3B3B3"/>
<path d="M177.303 101.41C177.444 101.41 177.558 101.296 177.558 101.156C177.558 101.015 177.444 100.901 177.303 100.901C177.161 100.901 177.047 101.015 177.047 101.156C177.047 101.296 177.161 101.41 177.303 101.41Z" fill="#B3B3B3"/>
<path d="M177.924 101.41C178.065 101.41 178.179 101.296 178.179 101.156C178.179 101.015 178.065 100.901 177.924 100.901C177.782 100.901 177.668 101.015 177.668 101.156C177.668 101.296 177.782 101.41 177.924 101.41Z" fill="#B3B3B3"/>
<path d="M178.545 101.41C178.686 101.41 178.8 101.296 178.8 101.156C178.8 101.015 178.686 100.901 178.545 100.901C178.404 100.901 178.289 101.015 178.289 101.156C178.289 101.296 178.404 101.41 178.545 101.41Z" fill="#B3B3B3"/>
<path d="M179.201 101.41C179.342 101.41 179.457 101.296 179.457 101.156C179.457 101.015 179.342 100.901 179.201 100.901C179.06 100.901 178.945 101.015 178.945 101.156C178.945 101.296 179.06 101.41 179.201 101.41Z" fill="#B3B3B3"/>
<path d="M176.646 100.757C176.787 100.757 176.902 100.643 176.902 100.503C176.902 100.362 176.787 100.248 176.646 100.248C176.505 100.248 176.391 100.362 176.391 100.503C176.391 100.643 176.505 100.757 176.646 100.757Z" fill="#B3B3B3"/>
<path d="M177.924 100.757C178.065 100.757 178.179 100.643 178.179 100.503C178.179 100.362 178.065 100.248 177.924 100.248C177.782 100.248 177.668 100.362 177.668 100.503C177.668 100.643 177.782 100.757 177.924 100.757Z" fill="#B3B3B3"/>
<path d="M176.646 100.139C176.787 100.139 176.902 100.025 176.902 99.8846C176.902 99.744 176.787 99.63 176.646 99.63C176.505 99.63 176.391 99.744 176.391 99.8846C176.391 100.025 176.505 100.139 176.646 100.139Z" fill="#B3B3B3"/>
<path d="M177.924 100.139C178.065 100.139 178.179 100.025 178.179 99.8846C178.179 99.744 178.065 99.63 177.924 99.63C177.782 99.63 177.668 99.744 177.668 99.8846C177.668 100.025 177.782 100.139 177.924 100.139Z" fill="#B3B3B3"/>
<path d="M177.303 99.4865C177.444 99.4865 177.558 99.3725 177.558 99.2318C177.558 99.0912 177.444 98.9772 177.303 98.9772C177.161 98.9772 177.047 99.0912 177.047 99.2318C177.047 99.3725 177.161 99.4865 177.303 99.4865Z" fill="#B3B3B3"/>
<path d="M177.924 99.4865C178.065 99.4865 178.179 99.3725 178.179 99.2318C178.179 99.0912 178.065 98.9772 177.924 98.9772C177.782 98.9772 177.668 99.0912 177.668 99.2318C177.668 99.3725 177.782 99.4865 177.924 99.4865Z" fill="#B3B3B3"/>
<path d="M178.545 99.4865C178.686 99.4865 178.8 99.3725 178.8 99.2318C178.8 99.0912 178.686 98.9772 178.545 98.9772C178.404 98.9772 178.289 99.0912 178.289 99.2318C178.289 99.3725 178.404 99.4865 178.545 99.4865Z" fill="#B3B3B3"/>
<path d="M179.201 99.4865C179.342 99.4865 179.457 99.3725 179.457 99.2318C179.457 99.0912 179.342 98.9772 179.201 98.9772C179.06 98.9772 178.945 99.0912 178.945 99.2318C178.945 99.3725 179.06 99.4865 179.201 99.4865Z" fill="#B3B3B3"/>
<path d="M177.303 98.2478C177.444 98.2478 177.558 98.1338 177.558 97.9932C177.558 97.8526 177.444 97.7386 177.303 97.7386C177.161 97.7386 177.047 97.8526 177.047 97.9932C177.047 98.1338 177.161 98.2478 177.303 98.2478Z" fill="#B3B3B3"/>
<path d="M176.646 97.5938C176.787 97.5938 176.902 97.4798 176.902 97.3392C176.902 97.1985 176.787 97.0845 176.646 97.0845C176.505 97.0845 176.391 97.1985 176.391 97.3392C176.391 97.4798 176.505 97.5938 176.646 97.5938Z" fill="#B3B3B3"/>
<path d="M177.303 97.5935C177.444 97.5935 177.558 97.4795 177.558 97.3389C177.558 97.1982 177.444 97.0842 177.303 97.0842C177.161 97.0842 177.047 97.1982 177.047 97.3389C177.047 97.4795 177.161 97.5935 177.303 97.5935Z" fill="#B3B3B3"/>
<path d="M177.924 97.5935C178.065 97.5935 178.179 97.4795 178.179 97.3389C178.179 97.1982 178.065 97.0842 177.924 97.0842C177.782 97.0842 177.668 97.1982 177.668 97.3389C177.668 97.4795 177.782 97.5935 177.924 97.5935Z" fill="#B3B3B3"/>
<path d="M178.545 97.5935C178.686 97.5935 178.8 97.4795 178.8 97.3389C178.8 97.1982 178.686 97.0842 178.545 97.0842C178.404 97.0842 178.289 97.1982 178.289 97.3389C178.289 97.4795 178.404 97.5935 178.545 97.5935Z" fill="#B3B3B3"/>
<path d="M179.201 97.5935C179.342 97.5935 179.457 97.4795 179.457 97.3389C179.457 97.1982 179.342 97.0842 179.201 97.0842C179.06 97.0842 178.945 97.1982 178.945 97.3389C178.945 97.4795 179.06 97.5935 179.201 97.5935Z" fill="#B3B3B3"/>
<path d="M176.646 96.3551C176.787 96.3551 176.902 96.2411 176.902 96.1005C176.902 95.9598 176.787 95.8458 176.646 95.8458C176.505 95.8458 176.391 95.9598 176.391 96.1005C176.391 96.2411 176.505 96.3551 176.646 96.3551Z" fill="#B3B3B3"/>
<path d="M177.924 96.3551C178.065 96.3551 178.179 96.2411 178.179 96.1005C178.179 95.9598 178.065 95.8458 177.924 95.8458C177.782 95.8458 177.668 95.9598 177.668 96.1005C177.668 96.2411 177.782 96.3551 177.924 96.3551Z" fill="#B3B3B3"/>
<path d="M178.545 96.3551C178.686 96.3551 178.8 96.2411 178.8 96.1005C178.8 95.9598 178.686 95.8458 178.545 95.8458C178.404 95.8458 178.289 95.9598 178.289 96.1005C178.289 96.2411 178.404 96.3551 178.545 96.3551Z" fill="#B3B3B3"/>
<path d="M179.201 96.3551C179.342 96.3551 179.457 96.2411 179.457 96.1005C179.457 95.9598 179.342 95.8458 179.201 95.8458C179.06 95.8458 178.945 95.9598 178.945 96.1005C178.945 96.2411 179.06 96.3551 179.201 96.3551Z" fill="#B3B3B3"/>
<path d="M176.646 95.7011C176.787 95.7011 176.902 95.5871 176.902 95.4465C176.902 95.3058 176.787 95.1918 176.646 95.1918C176.505 95.1918 176.391 95.3058 176.391 95.4465C176.391 95.5871 176.505 95.7011 176.646 95.7011Z" fill="#B3B3B3"/>
<path d="M177.924 95.7011C178.065 95.7011 178.179 95.5871 178.179 95.4465C178.179 95.3058 178.065 95.1918 177.924 95.1918C177.782 95.1918 177.668 95.3058 177.668 95.4465C177.668 95.5871 177.782 95.7011 177.924 95.7011Z" fill="#B3B3B3"/>
<path d="M179.201 95.7011C179.342 95.7011 179.457 95.5871 179.457 95.4465C179.457 95.3058 179.342 95.1918 179.201 95.1918C179.06 95.1918 178.945 95.3058 178.945 95.4465C178.945 95.5871 179.06 95.7011 179.201 95.7011Z" fill="#B3B3B3"/>
<path d="M176.646 95.0818C176.787 95.0818 176.902 94.9678 176.902 94.8271C176.902 94.6865 176.787 94.5725 176.646 94.5725C176.505 94.5725 176.391 94.6865 176.391 94.8271C176.391 94.9678 176.505 95.0818 176.646 95.0818Z" fill="#B3B3B3"/>
<path d="M177.303 95.0818C177.444 95.0818 177.558 94.9678 177.558 94.8271C177.558 94.6865 177.444 94.5725 177.303 94.5725C177.161 94.5725 177.047 94.6865 177.047 94.8271C177.047 94.9678 177.161 95.0818 177.303 95.0818Z" fill="#B3B3B3"/>
<path d="M177.924 95.0818C178.065 95.0818 178.179 94.9678 178.179 94.8271C178.179 94.6865 178.065 94.5725 177.924 94.5725C177.782 94.5725 177.668 94.6865 177.668 94.8271C177.668 94.9678 177.782 95.0818 177.924 95.0818Z" fill="#B3B3B3"/>
<path d="M179.201 95.0818C179.342 95.0818 179.457 94.9678 179.457 94.8271C179.457 94.6865 179.342 94.5725 179.201 94.5725C179.06 94.5725 178.945 94.6865 178.945 94.8271C178.945 94.9678 179.06 95.0818 179.201 95.0818Z" fill="#B3B3B3"/>
<path d="M176.646 93.8081C176.787 93.8081 176.902 93.6941 176.902 93.5535C176.902 93.4128 176.787 93.2988 176.646 93.2988C176.505 93.2988 176.391 93.4128 176.391 93.5535C176.391 93.6941 176.505 93.8081 176.646 93.8081Z" fill="#B3B3B3"/>
<path d="M177.924 93.8081C178.065 93.8081 178.179 93.6941 178.179 93.5535C178.179 93.4128 178.065 93.2988 177.924 93.2988C177.782 93.2988 177.668 93.4128 177.668 93.5535C177.668 93.6941 177.782 93.8081 177.924 93.8081Z" fill="#B3B3B3"/>
<path d="M179.201 93.8081C179.342 93.8081 179.457 93.6941 179.457 93.5535C179.457 93.4128 179.342 93.2988 179.201 93.2988C179.06 93.2988 178.945 93.4128 178.945 93.5535C178.945 93.6941 179.06 93.8081 179.201 93.8081Z" fill="#B3B3B3"/>
<path d="M176.646 93.1915C176.787 93.1915 176.902 93.0775 176.902 92.9369C176.902 92.7963 176.787 92.6823 176.646 92.6823C176.505 92.6823 176.391 92.7963 176.391 92.9369C176.391 93.0775 176.505 93.1915 176.646 93.1915Z" fill="#B3B3B3"/>
<path d="M177.924 93.1915C178.065 93.1915 178.179 93.0775 178.179 92.9369C178.179 92.7963 178.065 92.6823 177.924 92.6823C177.782 92.6823 177.668 92.7963 177.668 92.9369C177.668 93.0775 177.782 93.1915 177.924 93.1915Z" fill="#B3B3B3"/>
<path d="M179.201 93.1915C179.342 93.1915 179.457 93.0775 179.457 92.9369C179.457 92.7963 179.342 92.6823 179.201 92.6823C179.06 92.6823 178.945 92.7963 178.945 92.9369C178.945 93.0775 179.06 93.1915 179.201 93.1915Z" fill="#B3B3B3"/>
<path d="M176.646 92.536C176.787 92.536 176.902 92.422 176.902 92.2813C176.902 92.1407 176.787 92.0267 176.646 92.0267C176.505 92.0267 176.391 92.1407 176.391 92.2813C176.391 92.422 176.505 92.536 176.646 92.536Z" fill="#B3B3B3"/>
<path d="M177.303 92.536C177.444 92.536 177.558 92.422 177.558 92.2813C177.558 92.1407 177.444 92.0267 177.303 92.0267C177.161 92.0267 177.047 92.1407 177.047 92.2813C177.047 92.422 177.161 92.536 177.303 92.536Z" fill="#B3B3B3"/>
<path d="M177.924 92.536C178.065 92.536 178.179 92.422 178.179 92.2813C178.179 92.1407 178.065 92.0267 177.924 92.0267C177.782 92.0267 177.668 92.1407 177.668 92.2813C177.668 92.422 177.782 92.536 177.924 92.536Z" fill="#B3B3B3"/>
<path d="M178.545 92.536C178.686 92.536 178.8 92.422 178.8 92.2813C178.8 92.1407 178.686 92.0267 178.545 92.0267C178.404 92.0267 178.289 92.1407 178.289 92.2813C178.289 92.422 178.404 92.536 178.545 92.536Z" fill="#B3B3B3"/>
<path d="M179.201 92.536C179.342 92.536 179.457 92.422 179.457 92.2813C179.457 92.1407 179.342 92.0267 179.201 92.0267C179.06 92.0267 178.945 92.1407 178.945 92.2813C178.945 92.422 179.06 92.536 179.201 92.536Z" fill="#B3B3B3"/>
<path d="M176.646 91.2988C176.787 91.2988 176.902 91.1848 176.902 91.0442C176.902 90.9036 176.787 90.7896 176.646 90.7896C176.505 90.7896 176.391 90.9036 176.391 91.0442C176.391 91.1848 176.505 91.2988 176.646 91.2988Z" fill="#B3B3B3"/>
<path d="M177.303 91.2988C177.444 91.2988 177.558 91.1848 177.558 91.0442C177.558 90.9036 177.444 90.7896 177.303 90.7896C177.161 90.7896 177.047 90.9036 177.047 91.0442C177.047 91.1848 177.161 91.2988 177.303 91.2988Z" fill="#B3B3B3"/>
<path d="M177.924 91.2988C178.065 91.2988 178.179 91.1848 178.179 91.0442C178.179 90.9036 178.065 90.7896 177.924 90.7896C177.782 90.7896 177.668 90.9036 177.668 91.0442C177.668 91.1848 177.782 91.2988 177.924 91.2988Z" fill="#B3B3B3"/>
<path d="M177.303 90.6472C177.444 90.6472 177.558 90.5332 177.558 90.3926C177.558 90.252 177.444 90.138 177.303 90.138C177.161 90.138 177.047 90.252 177.047 90.3926C177.047 90.5332 177.161 90.6472 177.303 90.6472Z" fill="#B3B3B3"/>
<path d="M177.924 90.6472C178.065 90.6472 178.179 90.5332 178.179 90.3926C178.179 90.252 178.065 90.138 177.924 90.138C177.782 90.138 177.668 90.252 177.668 90.3926C177.668 90.5332 177.782 90.6472 177.924 90.6472Z" fill="#B3B3B3"/>
<path d="M178.545 90.6472C178.686 90.6472 178.8 90.5332 178.8 90.3926C178.8 90.252 178.686 90.138 178.545 90.138C178.404 90.138 178.289 90.252 178.289 90.3926C178.289 90.5332 178.404 90.6472 178.545 90.6472Z" fill="#B3B3B3"/>
<path d="M179.201 90.6472C179.342 90.6472 179.457 90.5332 179.457 90.3926C179.457 90.252 179.342 90.138 179.201 90.138C179.06 90.138 178.945 90.252 178.945 90.3926C178.945 90.5332 179.06 90.6472 179.201 90.6472Z" fill="#B3B3B3"/>
<path d="M177.924 90.0267C178.065 90.0267 178.179 89.9127 178.179 89.772C178.179 89.6314 178.065 89.5174 177.924 89.5174C177.782 89.5174 177.668 89.6314 177.668 89.772C177.668 89.9127 177.782 90.0267 177.924 90.0267Z" fill="#B3B3B3"/>
<path d="M176.646 88.7546C176.787 88.7546 176.902 88.6406 176.902 88.4999C176.902 88.3593 176.787 88.2453 176.646 88.2453C176.505 88.2453 176.391 88.3593 176.391 88.4999C176.391 88.6406 176.505 88.7546 176.646 88.7546Z" fill="#B3B3B3"/>
<path d="M177.303 88.7543C177.444 88.7543 177.558 88.6403 177.558 88.4996C177.558 88.359 177.444 88.245 177.303 88.245C177.161 88.245 177.047 88.359 177.047 88.4996C177.047 88.6403 177.161 88.7543 177.303 88.7543Z" fill="#B3B3B3"/>
<path d="M177.924 88.7543C178.065 88.7543 178.179 88.6403 178.179 88.4996C178.179 88.359 178.065 88.245 177.924 88.245C177.782 88.245 177.668 88.359 177.668 88.4996C177.668 88.6403 177.782 88.7543 177.924 88.7543Z" fill="#B3B3B3"/>
<path d="M179.201 88.7543C179.342 88.7543 179.457 88.6403 179.457 88.4996C179.457 88.359 179.342 88.245 179.201 88.245C179.06 88.245 178.945 88.359 178.945 88.4996C178.945 88.6403 179.06 88.7543 179.201 88.7543Z" fill="#B3B3B3"/>
<path d="M176.646 88.134C176.787 88.134 176.902 88.02 176.902 87.8794C176.902 87.7387 176.787 87.6247 176.646 87.6247C176.505 87.6247 176.391 87.7387 176.391 87.8794C176.391 88.02 176.505 88.134 176.646 88.134Z" fill="#B3B3B3"/>
<path d="M177.924 88.134C178.065 88.134 178.179 88.02 178.179 87.8794C178.179 87.7387 178.065 87.6247 177.924 87.6247C177.782 87.6247 177.668 87.7387 177.668 87.8794C177.668 88.02 177.782 88.134 177.924 88.134Z" fill="#B3B3B3"/>
<path d="M179.201 88.134C179.342 88.134 179.457 88.02 179.457 87.8794C179.457 87.7387 179.342 87.6247 179.201 87.6247C179.06 87.6247 178.945 87.7387 178.945 87.8794C178.945 88.02 179.06 88.134 179.201 88.134Z" fill="#B3B3B3"/>
<path d="M176.646 87.4797C176.787 87.4797 176.902 87.3657 176.902 87.2251C176.902 87.0844 176.787 86.9704 176.646 86.9704C176.505 86.9704 176.391 87.0844 176.391 87.2251C176.391 87.3657 176.505 87.4797 176.646 87.4797Z" fill="#B3B3B3"/>
<path d="M177.924 87.4797C178.065 87.4797 178.179 87.3657 178.179 87.2251C178.179 87.0844 178.065 86.9704 177.924 86.9704C177.782 86.9704 177.668 87.0844 177.668 87.2251C177.668 87.3657 177.782 87.4797 177.924 87.4797Z" fill="#B3B3B3"/>
<path d="M178.545 87.4797C178.686 87.4797 178.8 87.3657 178.8 87.2251C178.8 87.0844 178.686 86.9704 178.545 86.9704C178.404 86.9704 178.289 87.0844 178.289 87.2251C178.289 87.3657 178.404 87.4797 178.545 87.4797Z" fill="#B3B3B3"/>
<path d="M179.201 87.4797C179.342 87.4797 179.457 87.3657 179.457 87.2251C179.457 87.0844 179.342 86.9704 179.201 86.9704C179.06 86.9704 178.945 87.0844 178.945 87.2251C178.945 87.3657 179.06 87.4797 179.201 87.4797Z" fill="#B3B3B3"/>
<path d="M176.646 86.2438C176.787 86.2438 176.902 86.1298 176.902 85.9891C176.902 85.8485 176.787 85.7345 176.646 85.7345C176.505 85.7345 176.391 85.8485 176.391 85.9891C176.391 86.1298 176.505 86.2438 176.646 86.2438Z" fill="#B3B3B3"/>
<path d="M177.924 86.2438C178.065 86.2438 178.179 86.1298 178.179 85.9891C178.179 85.8485 178.065 85.7345 177.924 85.7345C177.782 85.7345 177.668 85.8485 177.668 85.9891C177.668 86.1298 177.782 86.2438 177.924 86.2438Z" fill="#B3B3B3"/>
<path d="M178.545 86.2438C178.686 86.2438 178.8 86.1298 178.8 85.9891C178.8 85.8485 178.686 85.7345 178.545 85.7345C178.404 85.7345 178.289 85.8485 178.289 85.9891C178.289 86.1298 178.404 86.2438 178.545 86.2438Z" fill="#B3B3B3"/>
<path d="M179.201 86.2438C179.342 86.2438 179.457 86.1298 179.457 85.9891C179.457 85.8485 179.342 85.7345 179.201 85.7345C179.06 85.7345 178.945 85.8485 178.945 85.9891C178.945 86.1298 179.06 86.2438 179.201 86.2438Z" fill="#B3B3B3"/>
<path d="M176.646 85.587C176.787 85.587 176.902 85.473 176.902 85.3324C176.902 85.1917 176.787 85.0777 176.646 85.0777C176.505 85.0777 176.391 85.1917 176.391 85.3324C176.391 85.473 176.505 85.587 176.646 85.587Z" fill="#B3B3B3"/>
<path d="M177.924 85.587C178.065 85.587 178.179 85.473 178.179 85.3324C178.179 85.1917 178.065 85.0777 177.924 85.0777C177.782 85.0777 177.668 85.1917 177.668 85.3324C177.668 85.473 177.782 85.587 177.924 85.587Z" fill="#B3B3B3"/>
<path d="M179.201 85.587C179.342 85.587 179.457 85.473 179.457 85.3324C179.457 85.1917 179.342 85.0777 179.201 85.0777C179.06 85.0777 178.945 85.1917 178.945 85.3324C178.945 85.473 179.06 85.587 179.201 85.587Z" fill="#B3B3B3"/>
<path d="M176.646 84.9689C176.787 84.9689 176.902 84.8549 176.902 84.7143C176.902 84.5736 176.787 84.4596 176.646 84.4596C176.505 84.4596 176.391 84.5736 176.391 84.7143C176.391 84.8549 176.505 84.9689 176.646 84.9689Z" fill="#B3B3B3"/>
<path d="M177.303 84.9689C177.444 84.9689 177.558 84.8549 177.558 84.7143C177.558 84.5736 177.444 84.4596 177.303 84.4596C177.161 84.4596 177.047 84.5736 177.047 84.7143C177.047 84.8549 177.161 84.9689 177.303 84.9689Z" fill="#B3B3B3"/>
<path d="M177.924 84.9689C178.065 84.9689 178.179 84.8549 178.179 84.7143C178.179 84.5736 178.065 84.4596 177.924 84.4596C177.782 84.4596 177.668 84.5736 177.668 84.7143C177.668 84.8549 177.782 84.9689 177.924 84.9689Z" fill="#B3B3B3"/>
<path d="M178.545 84.9689C178.686 84.9689 178.8 84.8549 178.8 84.7143C178.8 84.5736 178.686 84.4596 178.545 84.4596C178.404 84.4596 178.289 84.5736 178.289 84.7143C178.289 84.8549 178.404 84.9689 178.545 84.9689Z" fill="#B3B3B3"/>
<path d="M179.201 84.9689C179.342 84.9689 179.457 84.8549 179.457 84.7143C179.457 84.5736 179.342 84.4596 179.201 84.4596C179.06 84.4596 178.945 84.5736 178.945 84.7143C178.945 84.8549 179.06 84.9689 179.201 84.9689Z" fill="#B3B3B3"/>
<path d="M176.646 83.6968C176.787 83.6968 176.902 83.5828 176.902 83.4422C176.902 83.3015 176.787 83.1875 176.646 83.1875C176.505 83.1875 176.391 83.3015 176.391 83.4422C176.391 83.5828 176.505 83.6968 176.646 83.6968Z" fill="#B3B3B3"/>
<path d="M176.646 83.0774C176.787 83.0774 176.902 82.9634 176.902 82.8228C176.902 82.6822 176.787 82.5681 176.646 82.5681C176.505 82.5681 176.391 82.6822 176.391 82.8228C176.391 82.9634 176.505 83.0774 176.646 83.0774Z" fill="#B3B3B3"/>
<path d="M176.646 82.4235C176.787 82.4235 176.902 82.3094 176.902 82.1688C176.902 82.0282 176.787 81.9142 176.646 81.9142C176.505 81.9142 176.391 82.0282 176.391 82.1688C176.391 82.3094 176.505 82.4235 176.646 82.4235Z" fill="#B3B3B3"/>
<path d="M177.303 82.4235C177.444 82.4235 177.558 82.3094 177.558 82.1688C177.558 82.0282 177.444 81.9142 177.303 81.9142C177.161 81.9142 177.047 82.0282 177.047 82.1688C177.047 82.3094 177.161 82.4235 177.303 82.4235Z" fill="#B3B3B3"/>
<path d="M177.924 82.4235C178.065 82.4235 178.179 82.3094 178.179 82.1688C178.179 82.0282 178.065 81.9142 177.924 81.9142C177.782 81.9142 177.668 82.0282 177.668 82.1688C177.668 82.3094 177.782 82.4235 177.924 82.4235Z" fill="#B3B3B3"/>
<path d="M178.545 82.4235C178.686 82.4235 178.8 82.3094 178.8 82.1688C178.8 82.0282 178.686 81.9142 178.545 81.9142C178.404 81.9142 178.289 82.0282 178.289 82.1688C178.289 82.3094 178.404 82.4235 178.545 82.4235Z" fill="#B3B3B3"/>
<path d="M179.201 82.4235C179.342 82.4235 179.457 82.3094 179.457 82.1688C179.457 82.0282 179.342 81.9142 179.201 81.9142C179.06 81.9142 178.945 82.0282 178.945 82.1688C178.945 82.3094 179.06 82.4235 179.201 82.4235Z" fill="#B3B3B3"/>
<path d="M176.646 81.1847C176.787 81.1847 176.902 81.0707 176.902 80.9301C176.902 80.7895 176.787 80.6754 176.646 80.6754C176.505 80.6754 176.391 80.7895 176.391 80.9301C176.391 81.0707 176.505 81.1847 176.646 81.1847Z" fill="#B3B3B3"/>
<path d="M177.303 81.1847C177.444 81.1847 177.558 81.0707 177.558 80.9301C177.558 80.7895 177.444 80.6754 177.303 80.6754C177.161 80.6754 177.047 80.7895 177.047 80.9301C177.047 81.0707 177.161 81.1847 177.303 81.1847Z" fill="#B3B3B3"/>
<path d="M177.924 81.1847C178.065 81.1847 178.179 81.0707 178.179 80.9301C178.179 80.7895 178.065 80.6754 177.924 80.6754C177.782 80.6754 177.668 80.7895 177.668 80.9301C177.668 81.0707 177.782 81.1847 177.924 81.1847Z" fill="#B3B3B3"/>
<path d="M178.545 81.1847C178.686 81.1847 178.8 81.0707 178.8 80.9301C178.8 80.7895 178.686 80.6754 178.545 80.6754C178.404 80.6754 178.289 80.7895 178.289 80.9301C178.289 81.0707 178.404 81.1847 178.545 81.1847Z" fill="#B3B3B3"/>
<path d="M179.201 81.1847C179.342 81.1847 179.457 81.0707 179.457 80.9301C179.457 80.7895 179.342 80.6754 179.201 80.6754C179.06 80.6754 178.945 80.7895 178.945 80.9301C178.945 81.0707 179.06 81.1847 179.201 81.1847Z" fill="#B3B3B3"/>
<path d="M176.646 80.5308C176.787 80.5308 176.902 80.4167 176.902 80.2761C176.902 80.1355 176.787 80.0215 176.646 80.0215C176.505 80.0215 176.391 80.1355 176.391 80.2761C176.391 80.4167 176.505 80.5308 176.646 80.5308Z" fill="#B3B3B3"/>
<path d="M177.924 80.5308C178.065 80.5308 178.179 80.4167 178.179 80.2761C178.179 80.1355 178.065 80.0215 177.924 80.0215C177.782 80.0215 177.668 80.1355 177.668 80.2761C177.668 80.4167 177.782 80.5308 177.924 80.5308Z" fill="#B3B3B3"/>
<path d="M179.201 80.5308C179.342 80.5308 179.457 80.4167 179.457 80.2761C179.457 80.1355 179.342 80.0215 179.201 80.0215C179.06 80.0215 178.945 80.1355 178.945 80.2761C178.945 80.4167 179.06 80.5308 179.201 80.5308Z" fill="#B3B3B3"/>
<path d="M176.646 79.9114C176.787 79.9114 176.902 79.7974 176.902 79.6568C176.902 79.5161 176.787 79.4021 176.646 79.4021C176.505 79.4021 176.391 79.5161 176.391 79.6568C176.391 79.7974 176.505 79.9114 176.646 79.9114Z" fill="#B3B3B3"/>
<path d="M177.303 79.9114C177.444 79.9114 177.558 79.7974 177.558 79.6568C177.558 79.5161 177.444 79.4021 177.303 79.4021C177.161 79.4021 177.047 79.5161 177.047 79.6568C177.047 79.7974 177.161 79.9114 177.303 79.9114Z" fill="#B3B3B3"/>
<path d="M177.924 79.9114C178.065 79.9114 178.179 79.7974 178.179 79.6568C178.179 79.5161 178.065 79.4021 177.924 79.4021C177.782 79.4021 177.668 79.5161 177.668 79.6568C177.668 79.7974 177.782 79.9114 177.924 79.9114Z" fill="#B3B3B3"/>
<path d="M178.545 79.9114C178.686 79.9114 178.8 79.7974 178.8 79.6568C178.8 79.5161 178.686 79.4021 178.545 79.4021C178.404 79.4021 178.289 79.5161 178.289 79.6568C178.289 79.7974 178.404 79.9114 178.545 79.9114Z" fill="#B3B3B3"/>
<path d="M179.201 79.9114C179.342 79.9114 179.457 79.7974 179.457 79.6568C179.457 79.5161 179.342 79.4021 179.201 79.4021C179.06 79.4021 178.945 79.5161 178.945 79.6568C178.945 79.7974 179.06 79.9114 179.201 79.9114Z" fill="#B3B3B3"/>
<path d="M176.646 78.6417C176.787 78.6417 176.902 78.5277 176.902 78.3871C176.902 78.2464 176.787 78.1324 176.646 78.1324C176.505 78.1324 176.391 78.2464 176.391 78.3871C176.391 78.5277 176.505 78.6417 176.646 78.6417Z" fill="#B3B3B3"/>
<path d="M177.303 78.6417C177.444 78.6417 177.558 78.5277 177.558 78.3871C177.558 78.2464 177.444 78.1324 177.303 78.1324C177.161 78.1324 177.047 78.2464 177.047 78.3871C177.047 78.5277 177.161 78.6417 177.303 78.6417Z" fill="#B3B3B3"/>
<path d="M177.924 78.6417C178.065 78.6417 178.179 78.5277 178.179 78.3871C178.179 78.2464 178.065 78.1324 177.924 78.1324C177.782 78.1324 177.668 78.2464 177.668 78.3871C177.668 78.5277 177.782 78.6417 177.924 78.6417Z" fill="#B3B3B3"/>
<path d="M179.201 78.6417C179.342 78.6417 179.457 78.5277 179.457 78.3871C179.457 78.2464 179.342 78.1324 179.201 78.1324C179.06 78.1324 178.945 78.2464 178.945 78.3871C178.945 78.5277 179.06 78.6417 179.201 78.6417Z" fill="#B3B3B3"/>
<path d="M176.646 78.0199C176.787 78.0199 176.902 77.9059 176.902 77.7653C176.902 77.6247 176.787 77.5107 176.646 77.5107C176.505 77.5107 176.391 77.6247 176.391 77.7653C176.391 77.9059 176.505 78.0199 176.646 78.0199Z" fill="#B3B3B3"/>
<path d="M177.924 78.0199C178.065 78.0199 178.179 77.9059 178.179 77.7653C178.179 77.6247 178.065 77.5107 177.924 77.5107C177.782 77.5107 177.668 77.6247 177.668 77.7653C177.668 77.9059 177.782 78.0199 177.924 78.0199Z" fill="#B3B3B3"/>
<path d="M179.201 78.0199C179.342 78.0199 179.457 77.9059 179.457 77.7653C179.457 77.6247 179.342 77.5107 179.201 77.5107C179.06 77.5107 178.945 77.6247 178.945 77.7653C178.945 77.9059 179.06 78.0199 179.201 78.0199Z" fill="#B3B3B3"/>
<path d="M176.646 77.3656C176.787 77.3656 176.902 77.2516 176.902 77.111C176.902 76.9704 176.787 76.8564 176.646 76.8564C176.505 76.8564 176.391 76.9704 176.391 77.111C176.391 77.2516 176.505 77.3656 176.646 77.3656Z" fill="#B3B3B3"/>
<path d="M177.303 77.3659C177.444 77.3659 177.558 77.2519 177.558 77.1113C177.558 76.9707 177.444 76.8567 177.303 76.8567C177.161 76.8567 177.047 76.9707 177.047 77.1113C177.047 77.2519 177.161 77.3659 177.303 77.3659Z" fill="#B3B3B3"/>
<path d="M177.924 77.3659C178.065 77.3659 178.179 77.2519 178.179 77.1113C178.179 76.9707 178.065 76.8567 177.924 76.8567C177.782 76.8567 177.668 76.9707 177.668 77.1113C177.668 77.2519 177.782 77.3659 177.924 77.3659Z" fill="#B3B3B3"/>
<path d="M178.545 77.3659C178.686 77.3659 178.8 77.2519 178.8 77.1113C178.8 76.9707 178.686 76.8567 178.545 76.8567C178.404 76.8567 178.289 76.9707 178.289 77.1113C178.289 77.2519 178.404 77.3659 178.545 77.3659Z" fill="#B3B3B3"/>
<path d="M179.201 77.3659C179.342 77.3659 179.457 77.2519 179.457 77.1113C179.457 76.9707 179.342 76.8567 179.201 76.8567C179.06 76.8567 178.945 76.9707 178.945 77.1113C178.945 77.2519 179.06 77.3659 179.201 77.3659Z" fill="#B3B3B3"/>
<path d="M176.646 76.13C176.787 76.13 176.902 76.016 176.902 75.8753C176.902 75.7347 176.787 75.6207 176.646 75.6207C176.505 75.6207 176.391 75.7347 176.391 75.8753C176.391 76.016 176.505 76.13 176.646 76.13Z" fill="#B3B3B3"/>
<path d="M177.303 76.1297C177.444 76.1297 177.558 76.0157 177.558 75.875C177.558 75.7344 177.444 75.6204 177.303 75.6204C177.161 75.6204 177.047 75.7344 177.047 75.875C177.047 76.0157 177.161 76.1297 177.303 76.1297Z" fill="#B3B3B3"/>
<path d="M177.924 76.1297C178.065 76.1297 178.179 76.0157 178.179 75.875C178.179 75.7344 178.065 75.6204 177.924 75.6204C177.782 75.6204 177.668 75.7344 177.668 75.875C177.668 76.0157 177.782 76.1297 177.924 76.1297Z" fill="#B3B3B3"/>
<path d="M178.545 76.1297C178.686 76.1297 178.8 76.0157 178.8 75.875C178.8 75.7344 178.686 75.6204 178.545 75.6204C178.404 75.6204 178.289 75.7344 178.289 75.875C178.289 76.0157 178.404 76.1297 178.545 76.1297Z" fill="#B3B3B3"/>
<path d="M179.201 76.1297C179.342 76.1297 179.457 76.0157 179.457 75.875C179.457 75.7344 179.342 75.6204 179.201 75.6204C179.06 75.6204 178.945 75.7344 178.945 75.875C178.945 76.0157 179.06 76.1297 179.201 76.1297Z" fill="#B3B3B3"/>
<path d="M176.646 75.4744C176.787 75.4744 176.902 75.3604 176.902 75.2198C176.902 75.0792 176.787 74.9651 176.646 74.9651C176.505 74.9651 176.391 75.0792 176.391 75.2198C176.391 75.3604 176.505 75.4744 176.646 75.4744Z" fill="#B3B3B3"/>
<path d="M179.201 75.4742C179.342 75.4742 179.457 75.3602 179.457 75.2195C179.457 75.0789 179.342 74.9649 179.201 74.9649C179.06 74.9649 178.945 75.0789 178.945 75.2195C178.945 75.3602 179.06 75.4742 179.201 75.4742Z" fill="#B3B3B3"/>
<path d="M176.646 74.8582C176.787 74.8582 176.902 74.7442 176.902 74.6035C176.902 74.4629 176.787 74.3489 176.646 74.3489C176.505 74.3489 176.391 74.4629 176.391 74.6035C176.391 74.7442 176.505 74.8582 176.646 74.8582Z" fill="#B3B3B3"/>
<path d="M177.303 74.8563C177.444 74.8563 177.558 74.7423 177.558 74.6017C177.558 74.4611 177.444 74.347 177.303 74.347C177.161 74.347 177.047 74.4611 177.047 74.6017C177.047 74.7423 177.161 74.8563 177.303 74.8563Z" fill="#B3B3B3"/>
<path d="M177.924 74.8563C178.065 74.8563 178.179 74.7423 178.179 74.6017C178.179 74.4611 178.065 74.347 177.924 74.347C177.782 74.347 177.668 74.4611 177.668 74.6017C177.668 74.7423 177.782 74.8563 177.924 74.8563Z" fill="#B3B3B3"/>
<path d="M178.545 74.8563C178.686 74.8563 178.8 74.7423 178.8 74.6017C178.8 74.4611 178.686 74.347 178.545 74.347C178.404 74.347 178.289 74.4611 178.289 74.6017C178.289 74.7423 178.404 74.8563 178.545 74.8563Z" fill="#B3B3B3"/>
<path d="M179.201 74.8563C179.342 74.8563 179.457 74.7423 179.457 74.6017C179.457 74.4611 179.342 74.347 179.201 74.347C179.06 74.347 178.945 74.4611 178.945 74.6017C178.945 74.7423 179.06 74.8563 179.201 74.8563Z" fill="#B3B3B3"/>
<path d="M152.474 118.588H141.883V120.152H152.474V118.588Z" fill="#CECECE"/>
<path d="M155.177 122.623H141.883V124.188H155.177V122.623Z" fill="#CECECE"/>
<path d="M156.747 126.66H141.883V128.224H156.747V126.66Z" fill="#CECECE"/>
<path d="M152.693 130.662H141.883V132.226H152.693V130.662Z" fill="#CECECE"/>
<path d="M152.693 134.701H141.883V136.266H152.693V134.701Z" fill="#CECECE"/>
<path d="M175.443 130.662H164.633V132.226H175.443V130.662Z" fill="#CECECE"/>
<path d="M175.443 134.701H164.633V136.266H175.443V134.701Z" fill="#CECECE"/>
<path d="M136.076 84.0641H125.484V85.6283H136.076V84.0641Z" fill="#CECECE"/>
<path d="M169.565 71.9512H134.688V77.1169H169.565V71.9512Z" fill="#CECECE"/>
<path d="M138.778 88.1036H125.484V89.6679H138.778V88.1036Z" fill="#CECECE"/>
<path d="M140.349 92.1404H125.484V93.7047H140.349V92.1404Z" fill="#CECECE"/>
<path d="M136.295 96.142H125.484V97.7062H136.295V96.142Z" fill="#CECECE"/>
<path d="M136.295 100.182H125.484V101.746H136.295V100.182Z" fill="#CECECE"/>
<path d="M137.815 136.052H125.945V133.142C125.945 131.214 127.516 129.686 129.415 129.686H134.345C136.281 129.686 137.815 131.25 137.815 133.142V136.052Z" fill="#424246"/>
<path d="M136.211 126.738C136.029 126.665 135.773 126.81 135.554 127.065V124.81C135.554 123.827 134.824 123.027 133.947 123.027H129.893C128.98 123.027 128.286 123.827 128.286 124.81V127.065C128.067 126.774 127.848 126.628 127.629 126.738C127.337 126.847 127.264 127.465 127.483 128.084C127.702 128.702 128.104 129.102 128.432 128.993C128.432 128.993 128.469 128.993 128.469 128.957C128.944 130.266 130.332 131.212 131.975 131.212C133.618 131.212 135.006 130.266 135.481 128.957C135.481 128.957 135.518 128.957 135.518 128.993C135.81 129.102 136.248 128.702 136.467 128.084C136.577 127.465 136.504 126.847 136.211 126.738Z" fill="#E8E8E8"/>
<path d="M135.957 122.227C135.884 122.191 135.811 122.118 135.738 122.082C135.775 122.009 135.775 121.936 135.775 121.863C135.738 121.463 135.154 121.209 134.862 121.099C133.693 120.627 132.488 120.19 131.246 120.19C130.004 120.19 128.726 120.663 127.923 121.682C127.338 122.409 127.046 123.319 126.754 124.228C126.754 124.228 127.192 124.301 127.667 124.337C127.63 125.101 127.703 125.829 127.74 126.265C127.813 127.065 128.361 127.72 128.361 127.72C128.251 127.138 128.251 125.428 128.616 124.446C128.763 124.446 128.836 124.483 128.872 124.483C129.603 124.483 130.333 124.41 131.063 124.264C131.976 124.082 132.889 123.791 133.729 123.391C134.204 123.428 135.263 123.973 135.446 124.592C135.629 125.21 135.373 127.684 135.373 127.684C135.373 127.684 136.103 127.029 136.286 125.137C136.505 123.246 135.957 122.227 135.957 122.227Z" fill="#424246"/>
<path d="M167.758 63.8404C167.758 60.4572 164.873 57.7289 161.331 57.7289C159.724 57.7289 158.226 58.3109 157.094 59.2568C155.926 57.6925 154.099 56.7103 152.018 56.7103C150.082 56.7103 148.329 57.5834 147.16 59.0021C145.882 57.6197 143.983 56.7103 141.901 56.7103C138.03 56.7103 134.926 59.6569 134.926 63.3311C134.926 64.2042 134.926 67.4055 134.926 68.2785C134.926 71.9527 138.067 74.8994 141.901 74.8994C144.02 74.8994 145.882 74.0263 147.16 72.6076C148.329 73.9899 150.082 74.8994 152.018 74.8994C153.807 74.8994 155.414 74.1354 156.583 72.935C157.752 74.1354 159.432 74.8994 161.331 74.8994C164.873 74.8994 167.758 72.171 167.758 68.7878C167.758 67.8784 167.758 64.7135 167.758 63.8404Z" fill="#E8E8E8"/>
</svg>
