<svg width="21" height="21" viewBox="0 0 21 21" fill="none" xmlns="http://www.w3.org/2000/svg">
<path d="M7.70876 1.75L4.54126 4.92625" stroke="#29334B" stroke-width="1.5" stroke-miterlimit="10" stroke-linecap="round" stroke-linejoin="round"/>
<path d="M13.2913 1.75L16.4588 4.92625" stroke="#29334B" stroke-width="1.5" stroke-miterlimit="10" stroke-linecap="round" stroke-linejoin="round"/>
<path d="M1.75 6.86875C1.75 5.25 2.61625 5.11875 3.6925 5.11875H17.3075C18.3838 5.11875 19.25 5.25 19.25 6.86875C19.25 8.75 18.3838 8.61875 17.3075 8.61875H3.6925C2.61625 8.61875 1.75 8.75 1.75 6.86875Z" stroke="#29334B" stroke-width="1.5"/>
<path d="M8.53979 12.25V15.3562" stroke="#29334B" stroke-width="1.5" stroke-linecap="round"/>
<path d="M12.5649 12.25V15.3562" stroke="#29334B" stroke-width="1.5" stroke-linecap="round"/>
<path d="M3.0625 8.75L4.29625 16.31C4.57625 18.0075 5.25 19.25 7.7525 19.25H13.0288C15.75 19.25 16.1525 18.06 16.4675 16.415L17.9375 8.75" stroke="#29334B" stroke-width="1.5" stroke-linecap="round"/>
</svg>
