<svg width="19" height="19" viewBox="0 0 19 19" fill="none" xmlns="http://www.w3.org/2000/svg">
<path d="M4.12989 11.7659L7.23659 14.8757C8.51219 16.1526 10.5833 16.1526 11.8658 14.8757L14.8765 11.862C16.1521 10.5851 16.1521 8.51193 14.8765 7.2282L11.7629 4.12526C11.1114 3.4731 10.213 3.12299 9.29401 3.17104L5.86498 3.3358C4.49337 3.39758 3.40294 4.4891 3.33436 5.85522L3.16977 9.28766C3.12862 10.2144 3.47838 11.1137 4.12989 11.7659Z" stroke="#5200FF" stroke-width="1.5" stroke-linecap="round" stroke-linejoin="round"/>
<path d="M7.91634 9.49999C8.79079 9.49999 9.49967 8.79111 9.49967 7.91666C9.49967 7.04221 8.79079 6.33333 7.91634 6.33333C7.04189 6.33333 6.33301 7.04221 6.33301 7.91666C6.33301 8.79111 7.04189 9.49999 7.91634 9.49999Z" stroke="#5200FF" stroke-width="1.5" stroke-linecap="round"/>
</svg>
